{
.appVersion = "1131";
DisplayStrings = (
"/Tshe-cy Manrope"
);
classes = (
{
code = "";
name = DevaIMatras;
},
{
automatic = 1;
code = "A Aacute Abreve Acircumflex Adieresis Agrave Amacron Aogonek Aring Atilde AE B C Cacute Ccaron Ccedilla Cdotaccent D Eth Dcaron Dcroat E Eacute Ecaron Ecircumflex Edieresis Edotaccent Egrave Emacron Eogonek F G Gbreve Gcommaaccent Gdotaccent H Hbar I Iacute Icircumflex Idieresis Idotaccent Igrave Imacron Iogonek J K Kcommaaccent L Lacute Lcaron Lcommaaccent Lslash M N Nacute Ncaron Ncommaaccent Eng Ntilde O Oacute Ocircumflex Odieresis Ograve Ohungarumlaut Omacron Oslash Otilde OE P Thorn Q R Racute Rcaron Rcommaaccent S Sacute Scaron Scedilla Scommaaccent T Tbar Tcaron Tcedilla Tcommaaccent U Uacute Ucircumflex Udieresis Ugrave Uhungarumlaut Umacron Uogonek Uring V W Wacute Wcircumflex Wdieresis Wgrave X Y Yacute Ycircumflex Ydieresis Ygrave Z Zacute Zcaron Zdotaccent A-cy Be-cy Ve-cy Ge-cy Gje-cy Gheupturn-cy De-cy Ie-cy Iegrave-cy Io-cy Zhe-cy Ze-cy Ii-cy Iishort-cy Iigrave-cy Ka-cy Kje-cy El-cy Em-cy En-cy O-cy Pe-cy Er-cy Es-cy Te-cy U-cy Ushort-cy Ef-cy Ha-cy Che-cy Tse-cy Sha-cy Shcha-cy Dzhe-cy Softsign-cy Hardsign-cy Yeru-cy Lje-cy Nje-cy Dze-cy E-cy Ereversed-cy I-cy Yi-cy Je-cy Tshe-cy Iu-cy Ia-cy Dje-cy Ustrait-cy Shha-cy Obarred-cy De-cy.loclBGR Zhe-cy.loclBGR Ka-cy.loclBGR El-cy.loclBGR";
name = Uppercase;
},
{
code = "zero one two three four five six seven eight nine";
name = Digit;
}
);
copyright = "Copyright 2018 The Manrope Project Authors (https://github.com/sharanda/manrope)";
customParameters = (
{
name = license;
value = "This Font Software is licensed under the SIL Open Font License, Version 1.1. This license is available with a FAQ at: http://scripts.sil.org/OFL";
},
{
name = licenseURL;
value = "http://scripts.sil.org/OFL";
},
{
name = vendorID;
value = SHMI;
},
{
name = fsType;
value = (
);
},
{
name = "Use Typo Metrics";
value = 1;
}
);
date = "2018-07-29 15:08:27 +0000";
designer = "Michael Sharanda";

glyphs = (
{
glyphname = A;
lastChange = "2018-07-25 01:58:35 +0000";
layers = (
{
components = (
{
name = V;
transform = "{1, 0, 0, -1, 15, 720}";
}
);
layerId = "CAA188E2-8C62-414B-93AE-B576BEB044DB";
paths = (
{
closed = 1;
nodes = (
"110 157 LINE",
"498 157 LINE",
"498 197 LINE",
"110 197 LINE"
);
}
);
width = 609;
},
{
components = (
{
name = V;
transform = "{1, 0, 0, -1, 15, 720}";
}
);
layerId = "0DA27741-1AFD-43F2-A947-40AFBF8D6498";
paths = (
{
closed = 1;
nodes = (
"152 113 LINE",
"532 113 LINE",
"532 240 LINE",
"152 240 LINE"
);
}
);
width = 683;
},
{
associatedMasterId = "0DA27741-1AFD-43F2-A947-40AFBF8D6498";
layerId = "A2873047-0ED6-4C67-9B4D-3870B51BD5C6";
paths = (
{
closed = 1;
nodes = (
"5 0 LINE",
"155 0 LINE",
"183 90 LINE",
"476 90 LINE",
"504 0 LINE",
"654 0 LINE",
"434 720 LINE",
"225 720 LINE"
);
},
{
closed = 1;
nodes = (
"330 570 LINE",
"431 240 LINE",
"229 240 LINE"
);
}
);
width = 659;
},
{
associatedMasterId = "0DA27741-1AFD-43F2-A947-40AFBF8D6498";
layerId = "55314CA7-5524-4D70-B802-98D4FAE25636";
width = 493;
},
{
associatedMasterId = "0DA27741-1AFD-43F2-A947-40AFBF8D6498";
layerId = "13A3DD5D-E91B-4961-8595-F8141D3FA442";
width = 632;
}
);
leftKerningGroup = A;
note = A;
rightKerningGroup = A;
unicode = 0041;
},
{
glyphname = AE;
lastChange = "2018-07-29 15:03:33 +0000";
layers = (
{
components = (
{
name = E;
transform = "{1, 0, 0, 1, 315, 0}";
}
);
layerId = "CAA188E2-8C62-414B-93AE-B576BEB044DB";
paths = (
{
closed = 1;
nodes = (
"110 157 LINE",
"425 157 LINE",
"425 197 LINE",
"110 197 LINE"
);
},
{
closed = 1;
nodes = (
"20 0 LINE",
"65 0 LINE",
"311 678 LINE",
"405 678 LINE",
"405 720 LINE",
"282 720 LINE"
);
}
);
width = 885;
},
{
components = (
{
name = E;
transform = "{1, 0, 0, 1, 355, 0}";
}
);
layerId = "0DA27741-1AFD-43F2-A947-40AFBF8D6498";
paths = (
{
closed = 1;
nodes = (
"165 112 LINE",
"493 112 LINE",
"493 240 LINE",
"165 240 LINE"
);
},
{
closed = 1;
nodes = (
"20 0 LINE",
"160 0 LINE",
"338 584 LINE",
"493 584 LINE",
"493 720 LINE",
"240 720 LINE"
);
}
);
width = 965;
},
{
associatedMasterId = "0DA27741-1AFD-43F2-A947-40AFBF8D6498";
layerId = "A2873047-0ED6-4C67-9B4D-3870B51BD5C6";
width = 600;
},
{
associatedMasterId = "0DA27741-1AFD-43F2-A947-40AFBF8D6498";
layerId = "55314CA7-5524-4D70-B802-98D4FAE25636";
width = 938;
},
{
associatedMasterId = "0DA27741-1AFD-43F2-A947-40AFBF8D6498";
layerId = "13A3DD5D-E91B-4961-8595-F8141D3FA442";
width = 654;
}
);
leftKerningGroup = A;
leftMetricsKey = A;
rightKerningGroup = E;
rightMetricsKey = E;
unicode = 00C6;
},
{
glyphname = B;
lastChange = "2018-07-25 11:14:41 +0000";
layers = (
{
layerId = "CAA188E2-8C62-414B-93AE-B576BEB044DB";
paths = (
{
closed = 1;
nodes = (
"343 400 LINE SMOOTH",
"387 400 OFFCURVE",
"437 422 OFFCURVE",
"464 462 CURVE",
"482 488 OFFCURVE",
"491 519 OFFCURVE",
"491 550 CURVE SMOOTH",
"491 584 OFFCURVE",
"475 614 OFFCURVE",
"454 636 CURVE SMOOTH",
"419 672 OFFCURVE",
"391 679 OFFCURVE",
"343 679 CURVE",
"110 679 LINE",
"110 720 LINE",
"291 720 LINE SMOOTH",
"326 720 OFFCURVE",
"374 722 OFFCURVE",
"397 714 CURVE",
"431 705 OFFCURVE",
"465 686 OFFCURVE",
"491 657 CURVE",
"517 629 OFFCURVE",
"532 591 OFFCURVE",
"536 550 CURVE SMOOTH",
"540 509 OFFCURVE",
"525 469 OFFCURVE",
"499 437 CURVE",
"466 390 OFFCURVE",
"411 359 OFFCURVE",
"344 359 CURVE",
"110 359 LINE",
"110 400 LINE"
);
},
{
closed = 1;
nodes = (
"302 42 LINE",
"385 42 OFFCURVE",
"436 35 OFFCURVE",
"487 94 CURVE",
"510 120 OFFCURVE",
"526 153 OFFCURVE",
"526 190 CURVE SMOOTH",
"526 225 OFFCURVE",
"516 260 OFFCURVE",
"496 288 CURVE",
"468 332 OFFCURVE",
"408 359 OFFCURVE",
"362 359 CURVE",
"110 359 LINE",
"110 399 LINE",
"362 399 LINE",
"434 399 OFFCURVE",
"494 367 OFFCURVE",
"532 314 CURVE",
"560 279 OFFCURVE",
"574 234 OFFCURVE",
"571 190 CURVE SMOOTH",
"568 146 OFFCURVE",
"552 103 OFFCURVE",
"524 72 CURVE",
"495 40 OFFCURVE",
"458 19 OFFCURVE",
"420 9 CURVE",
"381 -2 OFFCURVE",
"342 0 OFFCURVE",
"302 0 CURVE SMOOTH",
"110 0 LINE",
"110 42 LINE"
);
},
{
closed = 1;
nodes = (
"112 720 LINE",
"112 0 LINE",
"70 0 LINE",
"70 720 LINE"
);
}
);
width = 601;
},
{
layerId = "0DA27741-1AFD-43F2-A947-40AFBF8D6498";
paths = (
{
closed = 1;
nodes = (
"356 439 LINE SMOOTH",
"370 439 OFFCURVE",
"396 451 OFFCURVE",
"409 468 CURVE",
"420 481 OFFCURVE",
"427 498 OFFCURVE",
"426 515 CURVE SMOOTH",
"425 534 OFFCURVE",
"419 553 OFFCURVE",
"406 567 CURVE",
"396 580 OFFCURVE",
"372 593 OFFCURVE",
"356 593 CURVE SMOOTH",
"205 593 LINE",
"205 720 LINE",
"357 720 LINE SMOOTH",
"378 720 OFFCURVE",
"399 717 OFFCURVE",
"419 710 CURVE",
"461 698 OFFCURVE",
"498 672 OFFCURVE",
"522 637 CURVE",
"549 603 OFFCURVE",
"563 559 OFFCURVE",
"564 515 CURVE SMOOTH",
"565 473 OFFCURVE",
"549 429 OFFCURVE",
"522 395 CURVE",
"486 342 OFFCURVE",
"423 312 OFFCURVE",
"357 312 CURVE SMOOTH",
"205 312 LINE",
"205 439 LINE"
);
},
{
closed = 1;
nodes = (
"372 128 LINE SMOOTH",
"394 128 OFFCURVE",
"414 138 OFFCURVE",
"430 152 CURVE SMOOTH",
"450 169 OFFCURVE",
"459 194 OFFCURVE",
"460 220 CURVE SMOOTH",
"461 244 OFFCURVE",
"451 269 OFFCURVE",
"434 287 CURVE",
"414 307 OFFCURVE",
"395 312 OFFCURVE",
"372 312 CURVE SMOOTH",
"208 312 LINE",
"208 440 LINE",
"374 440 LINE",
"451 440 OFFCURVE",
"513 407 OFFCURVE",
"554 351 CURVE",
"582 314 OFFCURVE",
"597 268 OFFCURVE",
"597 220 CURVE SMOOTH",
"597 174 OFFCURVE",
"582 128 OFFCURVE",
"554 89 CURVE",
"526 52 OFFCURVE",
"486 25 OFFCURVE",
"442 11 CURVE",
"420 5 OFFCURVE",
"397 0 OFFCURVE",
"374 0 CURVE",
"208 0 LINE",
"208 128 LINE"
);
},
{
closed = 1;
nodes = (
"208 720 LINE",
"208 0 LINE",
"70 0 LINE",
"70 720 LINE"
);
}
);
width = 637;
},
{
associatedMasterId = "0DA27741-1AFD-43F2-A947-40AFBF8D6498";
layerId = "A2873047-0ED6-4C67-9B4D-3870B51BD5C6";
width = 600;
},
{
associatedMasterId = "0DA27741-1AFD-43F2-A947-40AFBF8D6498";
layerId = "55314CA7-5524-4D70-B802-98D4FAE25636";
width = 606;
},
{
associatedMasterId = "0DA27741-1AFD-43F2-A947-40AFBF8D6498";
layerId = "13A3DD5D-E91B-4961-8595-F8141D3FA442";
width = 601;
}
);
leftKerningGroup = B;
leftMetricsKey = H;
note = B;
rightKerningGroup = B;
unicode = 0042;
},
{
glyphname = C;
lastChange = "2018-07-29 14:55:30 +0000";
layers = (
{
layerId = "CAA188E2-8C62-414B-93AE-B576BEB044DB";
paths = (
{
closed = 1;
nodes = (
"615 191 OFFCURVE",
"599 155 OFFCURVE",
"577 124 CURVE",
"528 59 OFFCURVE",
"446 26 OFFCURVE",
"363 27 CURVE SMOOTH",
"281 28 OFFCURVE",
"199 59 OFFCURVE",
"151 124 CURVE",
"101 190 OFFCURVE",
"86 276 OFFCURVE",
"86 360 CURVE SMOOTH",
"86 444 OFFCURVE",
"101 530 OFFCURVE",
"151 595 CURVE",
"199 660 OFFCURVE",
"281 693 OFFCURVE",
"363 692 CURVE SMOOTH",
"446 691 OFFCURVE",
"528 660 OFFCURVE",
"577 595 CURVE",
"602 561 OFFCURVE",
"619 521 OFFCURVE",
"628 479 CURVE",
"672 486 LINE",
"661 534 OFFCURVE",
"642 580 OFFCURVE",
"611 621 CURVE",
"555 697 OFFCURVE",
"462 735 OFFCURVE",
"363 735 CURVE SMOOTH",
"264 735 OFFCURVE",
"174 698 OFFCURVE",
"116 621 CURVE",
"58 545 OFFCURVE",
"42 450 OFFCURVE",
"40 360 CURVE SMOOTH",
"38 270 OFFCURVE",
"58 174 OFFCURVE",
"116 98 CURVE",
"177 21 OFFCURVE",
"263 -15 OFFCURVE",
"363 -15 CURVE SMOOTH",
"463 -15 OFFCURVE",
"553 21 OFFCURVE",
"611 98 CURVE",
"638 134 OFFCURVE",
"657 174 OFFCURVE",
"667 216 CURVE",
"625 228 LINE"
);
}
);
width = 712;
},
{
layerId = "0DA27741-1AFD-43F2-A947-40AFBF8D6498";
paths = (
{
closed = 1;
nodes = (
"582 226 OFFCURVE",
"571 204 OFFCURVE",
"557 185 CURVE",
"521 137 OFFCURVE",
"461 112 OFFCURVE",
"400 113 CURVE SMOOTH",
"338 112 OFFCURVE",
"278 137 OFFCURVE",
"243 185 CURVE",
"206 233 OFFCURVE",
"195 297 OFFCURVE",
"194 360 CURVE SMOOTH",
"195 423 OFFCURVE",
"206 488 OFFCURVE",
"243 535 CURVE",
"278 583 OFFCURVE",
"338 608 OFFCURVE",
"400 608 CURVE SMOOTH",
"461 608 OFFCURVE",
"521 583 OFFCURVE",
"557 535 CURVE",
"573 515 OFFCURVE",
"583 491 OFFCURVE",
"591 466 CURVE",
"731 490 LINE",
"718 533 OFFCURVE",
"697 578 OFFCURVE",
"665 618 CURVE",
"601 696 OFFCURVE",
"504 735 OFFCURVE",
"400 735 CURVE SMOOTH",
"296 735 OFFCURVE",
"198 697 OFFCURVE",
"135 618 CURVE",
"76 547 OFFCURVE",
"50 459 OFFCURVE",
"50 360 CURVE SMOOTH",
"50 265 OFFCURVE",
"75 176 OFFCURVE",
"135 103 CURVE",
"195 28 OFFCURVE",
"294 -15 OFFCURVE",
"400 -15 CURVE SMOOTH",
"500 -15 OFFCURVE",
"599 23 OFFCURVE",
"665 103 CURVE",
"692 136 OFFCURVE",
"711 173 OFFCURVE",
"724 210 CURVE",
"589 249 LINE"
);
}
);
width = 781;
},
{
associatedMasterId = "0DA27741-1AFD-43F2-A947-40AFBF8D6498";
layerId = "A2873047-0ED6-4C67-9B4D-3870B51BD5C6";
width = 600;
},
{
associatedMasterId = "0DA27741-1AFD-43F2-A947-40AFBF8D6498";
layerId = "55314CA7-5524-4D70-B802-98D4FAE25636";
width = 718;
},
{
associatedMasterId = "0DA27741-1AFD-43F2-A947-40AFBF8D6498";
layerId = "13A3DD5D-E91B-4961-8595-F8141D3FA442";
width = 619;
}
);
leftKerningGroup = C;
leftMetricsKey = O;
note = C;
rightKerningGroup = C;
rightMetricsKey = O;
unicode = 0043;
},
{
glyphname = D;
lastChange = "2018-07-29 14:53:06 +0000";
layers = (
{
layerId = "CAA188E2-8C62-414B-93AE-B576BEB044DB";
paths = (
{
closed = 1;
nodes = (
"612 259 OFFCURVE",
"583 157 OFFCURVE",
"524 91 CURVE SMOOTH",
"467 28 OFFCURVE",
"384 1 OFFCURVE",
"301 1 CURVE SMOOTH",
"70 1 LINE",
"70 721 LINE",
"303 720 LINE SMOOTH",
"390 720 OFFCURVE",
"472 690 OFFCURVE",
"527 627 CURVE SMOOTH",
"593 554 OFFCURVE",
"612 457 OFFCURVE",
"612 356 CURVE SMOOTH"
);
},
{
closed = 1;
nodes = (
"569 445 OFFCURVE",
"548 538 OFFCURVE",
"495 598 CURVE SMOOTH",
"448 652 OFFCURVE",
"378 678 OFFCURVE",
"302 678 CURVE SMOOTH",
"115 677 LINE",
"115 45 LINE",
"301 43 LINE SMOOTH",
"378 43 OFFCURVE",
"450 71 OFFCURVE",
"499 127 CURVE SMOOTH",
"548 183 OFFCURVE",
"565 279 OFFCURVE",
"567 355 CURVE SMOOTH"
);
}
);
width = 652;
},
{
layerId = "0DA27741-1AFD-43F2-A947-40AFBF8D6498";
paths = (
{
closed = 1;
nodes = (
"660 263 OFFCURVE",
"630 164 OFFCURVE",
"567 98 CURVE SMOOTH",
"506 31 OFFCURVE",
"417 0 OFFCURVE",
"323 0 CURVE SMOOTH",
"70 0 LINE",
"70 720 LINE",
"324 720 LINE SMOOTH",
"423 720 OFFCURVE",
"506 687 OFFCURVE",
"564 623 CURVE SMOOTH",
"629 555 OFFCURVE",
"660 459 OFFCURVE",
"660 360 CURVE SMOOTH"
);
},
{
closed = 1;
nodes = (
"516 426 OFFCURVE",
"502 488 OFFCURVE",
"463 534 CURVE SMOOTH",
"424 577 OFFCURVE",
"380 589 OFFCURVE",
"324 592 CURVE",
"208 591 LINE",
"208 128 LINE",
"323 127 LINE",
"377 129 OFFCURVE",
"426 145 OFFCURVE",
"461 183 CURVE",
"502 231 OFFCURVE",
"516 290 OFFCURVE",
"516 360 CURVE SMOOTH"
);
}
);
width = 710;
},
{
associatedMasterId = "0DA27741-1AFD-43F2-A947-40AFBF8D6498";
layerId = "A2873047-0ED6-4C67-9B4D-3870B51BD5C6";
width = 600;
},
{
associatedMasterId = "0DA27741-1AFD-43F2-A947-40AFBF8D6498";
layerId = "55314CA7-5524-4D70-B802-98D4FAE25636";
width = 663;
},
{
associatedMasterId = "0DA27741-1AFD-43F2-A947-40AFBF8D6498";
layerId = "13A3DD5D-E91B-4961-8595-F8141D3FA442";
width = 610;
}
);
leftMetricsKey = H;
note = D;
rightKerningGroup = D;
unicode = 0044;
},
{
glyphname = Eth;
lastChange = "2018-07-29 14:55:41 +0000";
layers = (
{
components = (
{
name = D;
transform = "{1, 0, 0, 1, -11, 0}";
}
);
layerId = "CAA188E2-8C62-414B-93AE-B576BEB044DB";
paths = (
{
closed = 1;
nodes = (
"310 381 LINE",
"310 339 LINE",
"10 339 LINE",
"10 381 LINE"
);
}
);
width = 641;
},
{
components = (
{
name = D;
transform = "{1, 0, 0, 1, 4, 0}";
}
);
layerId = "0DA27741-1AFD-43F2-A947-40AFBF8D6498";
paths = (
{
closed = 1;
nodes = (
"355 413 LINE",
"355 308 LINE",
"10 308 LINE",
"10 413 LINE"
);
}
);
width = 714;
},
{
associatedMasterId = "0DA27741-1AFD-43F2-A947-40AFBF8D6498";
layerId = "A2873047-0ED6-4C67-9B4D-3870B51BD5C6";
width = 600;
},
{
associatedMasterId = "0DA27741-1AFD-43F2-A947-40AFBF8D6498";
layerId = "55314CA7-5524-4D70-B802-98D4FAE25636";
width = 711;
},
{
associatedMasterId = "0DA27741-1AFD-43F2-A947-40AFBF8D6498";
layerId = "13A3DD5D-E91B-4961-8595-F8141D3FA442";
width = 618;
}
);
leftKerningGroup = D;
leftMetricsKey = t;
rightKerningGroup = D;
rightMetricsKey = D;
unicode = 00D0;
},
{
glyphname = E;
lastChange = "2018-07-25 11:14:51 +0000";
layers = (
{
layerId = "CAA188E2-8C62-414B-93AE-B576BEB044DB";
paths = (
{
closed = 1;
nodes = (
"70 0 LINE",
"112 0 LINE",
"112 720 LINE",
"70 720 LINE"
);
},
{
closed = 1;
nodes = (
"97 678 LINE",
"500 678 LINE",
"500 720 LINE",
"97 720 LINE"
);
},
{
closed = 1;
nodes = (
"97 0 LINE",
"500 0 LINE",
"500 42 LINE",
"97 42 LINE"
);
},
{
closed = 1;
nodes = (
"97 339 LINE",
"440 339 LINE",
"440 381 LINE",
"97 381 LINE"
);
}
);
width = 570;
},
{
layerId = "0DA27741-1AFD-43F2-A947-40AFBF8D6498";
paths = (
{
closed = 1;
nodes = (
"70 0 LINE",
"206 0 LINE",
"206 720 LINE",
"70 720 LINE"
);
},
{
closed = 1;
nodes = (
"157 593 LINE",
"540 593 LINE",
"540 720 LINE",
"157 720 LINE"
);
},
{
closed = 1;
nodes = (
"157 0 LINE",
"540 0 LINE",
"540 127 LINE",
"157 127 LINE"
);
},
{
closed = 1;
nodes = (
"157 297 LINE",
"480 297 LINE",
"480 424 LINE",
"157 424 LINE"
);
}
);
width = 610;
},
{
associatedMasterId = "0DA27741-1AFD-43F2-A947-40AFBF8D6498";
layerId = "A2873047-0ED6-4C67-9B4D-3870B51BD5C6";
width = 600;
},
{
associatedMasterId = "0DA27741-1AFD-43F2-A947-40AFBF8D6498";
layerId = "55314CA7-5524-4D70-B802-98D4FAE25636";
width = 563;
},
{
associatedMasterId = "0DA27741-1AFD-43F2-A947-40AFBF8D6498";
layerId = "13A3DD5D-E91B-4961-8595-F8141D3FA442";
width = 594;
}
);
leftMetricsKey = H;
note = E;
unicode = 0045;
},
{
glyphname = F;
lastChange = "2018-07-25 11:15:38 +0000";
layers = (
{
layerId = "CAA188E2-8C62-414B-93AE-B576BEB044DB";
paths = (
{
closed = 1;
nodes = (
"112 720 LINE",
"112 0 LINE",
"70 0 LINE",
"70 720 LINE"
);
},
{
closed = 1;
nodes = (
"470 720 LINE",
"470 678 LINE",
"97 678 LINE",
"97 720 LINE"
);
},
{
closed = 1;
nodes = (
"410 381 LINE",
"410 339 LINE",
"97 339 LINE",
"97 381 LINE"
);
}
);
width = 490;
},
{
layerId = "0DA27741-1AFD-43F2-A947-40AFBF8D6498";
paths = (
{
closed = 1;
nodes = (
"206 720 LINE",
"206 0 LINE",
"70 0 LINE",
"70 720 LINE"
);
},
{
closed = 1;
nodes = (
"510 720 LINE",
"510 584 LINE",
"157 584 LINE",
"157 720 LINE"
);
},
{
closed = 1;
nodes = (
"450 428 LINE",
"450 292 LINE",
"157 292 LINE",
"157 428 LINE"
);
}
);
width = 530;
},
{
associatedMasterId = "0DA27741-1AFD-43F2-A947-40AFBF8D6498";
layerId = "A2873047-0ED6-4C67-9B4D-3870B51BD5C6";
width = 600;
},
{
associatedMasterId = "0DA27741-1AFD-43F2-A947-40AFBF8D6498";
layerId = "55314CA7-5524-4D70-B802-98D4FAE25636";
width = 500;
},
{
associatedMasterId = "0DA27741-1AFD-43F2-A947-40AFBF8D6498";
layerId = "13A3DD5D-E91B-4961-8595-F8141D3FA442";
width = 584;
}
);
leftMetricsKey = H;
note = F;
unicode = 0046;
},
{
glyphname = G;
lastChange = "2018-07-29 14:55:46 +0000";
layers = (
{
layerId = "CAA188E2-8C62-414B-93AE-B576BEB044DB";
paths = (
{
closed = 1;
nodes = (
"635 261 OFFCURVE",
"619 186 OFFCURVE",
"576 126 CURVE",
"527 61 OFFCURVE",
"445 28 OFFCURVE",
"362 28 CURVE SMOOTH",
"280 28 OFFCURVE",
"198 61 OFFCURVE",
"149 126 CURVE",
"99 189 OFFCURVE",
"86 278 OFFCURVE",
"83 360 CURVE SMOOTH",
"86 442 OFFCURVE",
"99 531 OFFCURVE",
"149 594 CURVE",
"198 659 OFFCURVE",
"280 692 OFFCURVE",
"362 692 CURVE SMOOTH",
"445 692 OFFCURVE",
"527 659 OFFCURVE",
"576 594 CURVE",
"586 580 OFFCURVE",
"596 561 OFFCURVE",
"606 544 CURVE",
"645 561 LINE",
"635 584 OFFCURVE",
"622 603 OFFCURVE",
"609 620 CURVE",
"548 699 OFFCURVE",
"464 735 OFFCURVE",
"362 735 CURVE SMOOTH",
"260 735 OFFCURVE",
"168 698 OFFCURVE",
"116 620 CURVE",
"56 544 OFFCURVE",
"40 449 OFFCURVE",
"40 360 CURVE SMOOTH",
"40 271 OFFCURVE",
"56 176 OFFCURVE",
"116 100 CURVE",
"168 21 OFFCURVE",
"263 -15 OFFCURVE",
"362 -15 CURVE SMOOTH",
"458 -15 OFFCURVE",
"546 19 OFFCURVE",
"609 100 CURVE",
"662 169 OFFCURVE",
"681 255 OFFCURVE",
"685 337 CURVE",
"639 337 LINE"
);
},
{
closed = 1;
nodes = (
"655 318 LINE",
"685 337 LINE",
"685 360 LINE",
"445 360 LINE",
"445 318 LINE"
);
}
);
width = 725;
},
{
layerId = "0DA27741-1AFD-43F2-A947-40AFBF8D6498";
paths = (
{
closed = 1;
nodes = (
"605 297 OFFCURVE",
"593 233 OFFCURVE",
"557 185 CURVE",
"521 137 OFFCURVE",
"461 112 OFFCURVE",
"400 113 CURVE SMOOTH",
"338 112 OFFCURVE",
"278 137 OFFCURVE",
"242 185 CURVE",
"206 233 OFFCURVE",
"195 297 OFFCURVE",
"194 360 CURVE SMOOTH",
"195 423 OFFCURVE",
"206 487 OFFCURVE",
"242 535 CURVE",
"278 583 OFFCURVE",
"338 608 OFFCURVE",
"400 607 CURVE SMOOTH",
"461 608 OFFCURVE",
"521 583 OFFCURVE",
"557 535 CURVE",
"563 527 OFFCURVE",
"567 519 OFFCURVE",
"572 511 CURVE",
"697 568 LINE",
"688 585 OFFCURVE",
"677 602 OFFCURVE",
"665 617 CURVE",
"603 692 OFFCURVE",
"506 735 OFFCURVE",
"400 735 CURVE SMOOTH",
"297 735 OFFCURVE",
"197 695 OFFCURVE",
"135 617 CURVE",
"76 545 OFFCURVE",
"52 459 OFFCURVE",
"50 360 CURVE SMOOTH",
"52 265 OFFCURVE",
"75 174 OFFCURVE",
"135 103 CURVE",
"197 24 OFFCURVE",
"296 -15 OFFCURVE",
"400 -15 CURVE SMOOTH",
"504 -15 OFFCURVE",
"602 24 OFFCURVE",
"665 103 CURVE",
"723 173 OFFCURVE",
"747 263 OFFCURVE",
"749 360 CURVE",
"605 360 LINE"
);
},
{
closed = 1;
nodes = (
"690 276 LINE",
"749 360 LINE",
"749 384 LINE",
"430 384 LINE",
"430 276 LINE"
);
}
);
width = 799;
},
{
associatedMasterId = "0DA27741-1AFD-43F2-A947-40AFBF8D6498";
layerId = "A2873047-0ED6-4C67-9B4D-3870B51BD5C6";
width = 600;
},
{
associatedMasterId = "0DA27741-1AFD-43F2-A947-40AFBF8D6498";
layerId = "55314CA7-5524-4D70-B802-98D4FAE25636";
width = 733;
},
{
associatedMasterId = "0DA27741-1AFD-43F2-A947-40AFBF8D6498";
layerId = "13A3DD5D-E91B-4961-8595-F8141D3FA442";
width = 621;
}
);
leftKerningGroup = G;
leftMetricsKey = O;
note = G;
rightKerningGroup = G;
rightMetricsKey = O;
unicode = 0047;
},
{
glyphname = H;
lastChange = "2018-07-25 11:12:27 +0000";
layers = (
{
layerId = "CAA188E2-8C62-414B-93AE-B576BEB044DB";
paths = (
{
closed = 1;
nodes = (
"70 0 LINE",
"112 0 LINE",
"112 720 LINE",
"70 720 LINE"
);
},
{
closed = 1;
nodes = (
"548 0 LINE",
"590 0 LINE",
"590 720 LINE",
"548 720 LINE"
);
},
{
closed = 1;
nodes = (
"80 287 LINE",
"576 287 LINE",
"576 329 LINE",
"80 329 LINE"
);
}
);
width = 660;
},
{
layerId = "0DA27741-1AFD-43F2-A947-40AFBF8D6498";
paths = (
{
closed = 1;
nodes = (
"70 0 LINE",
"206 0 LINE",
"206 720 LINE",
"70 720 LINE"
);
},
{
closed = 1;
nodes = (
"528 0 LINE",
"664 0 LINE",
"664 720 LINE",
"528 720 LINE"
);
},
{
closed = 1;
nodes = (
"110 244 LINE",
"620 244 LINE",
"620 371 LINE",
"110 371 LINE"
);
}
);
width = 734;
},
{
associatedMasterId = "0DA27741-1AFD-43F2-A947-40AFBF8D6498";
layerId = "A2873047-0ED6-4C67-9B4D-3870B51BD5C6";
width = 600;
},
{
associatedMasterId = "0DA27741-1AFD-43F2-A947-40AFBF8D6498";
layerId = "55314CA7-5524-4D70-B802-98D4FAE25636";
width = 725;
},
{
associatedMasterId = "0DA27741-1AFD-43F2-A947-40AFBF8D6498";
layerId = "13A3DD5D-E91B-4961-8595-F8141D3FA442";
width = 620;
}
);
note = H;
unicode = 0048;
},
{
glyphname = Hbar;
lastChange = "2018-06-29 15:14:54 +0000";
layers = (
{
components = (
{
name = H;
}
);
layerId = "CAA188E2-8C62-414B-93AE-B576BEB044DB";
paths = (
{
closed = 1;
nodes = (
"10 498 LINE",
"670 498 LINE",
"670 540 LINE",
"10 540 LINE"
);
}
);
width = 680;
},
{
components = (
{
name = H;
}
);
layerId = "0DA27741-1AFD-43F2-A947-40AFBF8D6498";
paths = (
{
closed = 1;
nodes = (
"10 480 LINE",
"744 480 LINE",
"744 616 LINE",
"10 616 LINE"
);
}
);
width = 754;
},
{
associatedMasterId = "0DA27741-1AFD-43F2-A947-40AFBF8D6498";
layerId = "A2873047-0ED6-4C67-9B4D-3870B51BD5C6";
width = 600;
},
{
associatedMasterId = "0DA27741-1AFD-43F2-A947-40AFBF8D6498";
layerId = "55314CA7-5524-4D70-B802-98D4FAE25636";
width = 725;
},
{
associatedMasterId = "0DA27741-1AFD-43F2-A947-40AFBF8D6498";
layerId = "13A3DD5D-E91B-4961-8595-F8141D3FA442";
width = 620;
}
);
leftKerningGroup = H;
rightKerningGroup = H;
unicode = 0126;
},
{
glyphname = I;
lastChange = "2018-07-25 11:13:32 +0000";
layers = (
{
layerId = "CAA188E2-8C62-414B-93AE-B576BEB044DB";
paths = (
{
closed = 1;
nodes = (
"80 0 LINE",
"122 0 LINE",
"122 720 LINE",
"80 720 LINE"
);
}
);
width = 202;
},
{
hints = (
{
horizontal = 1;
origin = "{0, 0}";
target = up;
type = BottomGhost;
},
{
horizontal = 1;
origin = "{0, 3}";
target = down;
type = TopGhost;
},
{
place = "{70, 140}";
type = Stem;
}
);
layerId = "0DA27741-1AFD-43F2-A947-40AFBF8D6498";
paths = (
{
closed = 1;
nodes = (
"80 0 LINE",
"216 0 LINE",
"216 720 LINE",
"80 720 LINE"
);
}
);
width = 296;
},
{
associatedMasterId = "0DA27741-1AFD-43F2-A947-40AFBF8D6498";
layerId = "A2873047-0ED6-4C67-9B4D-3870B51BD5C6";
width = 600;
},
{
associatedMasterId = "0DA27741-1AFD-43F2-A947-40AFBF8D6498";
layerId = "55314CA7-5524-4D70-B802-98D4FAE25636";
width = 213;
},
{
associatedMasterId = "0DA27741-1AFD-43F2-A947-40AFBF8D6498";
layerId = "13A3DD5D-E91B-4961-8595-F8141D3FA442";
width = 538;
}
);
leftKerningGroup = n;
note = I;
rightKerningGroup = u;
unicode = 0049;
},
{
glyphname = J;
lastChange = "2018-05-09 06:51:53 +0000";
layers = (
{
layerId = "CAA188E2-8C62-414B-93AE-B576BEB044DB";
paths = (
{
closed = 1;
nodes = (
"358 212 LINE",
"358 157 OFFCURVE",
"358 117 OFFCURVE",
"333 73 CURVE",
"301 17 OFFCURVE",
"245 -14 OFFCURVE",
"179 -14 CURVE SMOOTH",
"145 -14 OFFCURVE",
"112 -6 OFFCURVE",
"84 11 CURVE",
"41 35 OFFCURVE",
"11 78 OFFCURVE",
"0 125 CURVE",
"43 135 LINE",
"51 100 OFFCURVE",
"75 68 OFFCURVE",
"106 48 CURVE",
"127 35 OFFCURVE",
"152 28 OFFCURVE",
"177 28 CURVE SMOOTH",
"227 28 OFFCURVE",
"272 53 OFFCURVE",
"296 98 CURVE",
"314 132 OFFCURVE",
"313 158 OFFCURVE",
"313 212 CURVE",
"313 720 LINE",
"358 720 LINE"
);
}
);
width = 439;
},
{
layerId = "0DA27741-1AFD-43F2-A947-40AFBF8D6498";
paths = (
{
closed = 1;
nodes = (
"433 240 LINE",
"433 168 OFFCURVE",
"433 141 OFFCURVE",
"405 89 CURVE",
"363 20 OFFCURVE",
"305 -15 OFFCURVE",
"215 -15 CURVE SMOOTH",
"175 -15 OFFCURVE",
"136 -7 OFFCURVE",
"102 14 CURVE",
"52 43 OFFCURVE",
"16 93 OFFCURVE",
"0 148 CURVE",
"134 180 LINE",
"137 160 OFFCURVE",
"149 142 OFFCURVE",
"165 130 CURVE",
"179 119 OFFCURVE",
"197 112 OFFCURVE",
"215 112 CURVE SMOOTH",
"241 112 OFFCURVE",
"275 127 OFFCURVE",
"286 156 CURVE",
"294 176 OFFCURVE",
"294 190 OFFCURVE",
"294 240 CURVE",
"294 720 LINE",
"433 720 LINE"
);
}
);
width = 513;
},
{
associatedMasterId = "0DA27741-1AFD-43F2-A947-40AFBF8D6498";
layerId = "A2873047-0ED6-4C67-9B4D-3870B51BD5C6";
width = 600;
},
{
associatedMasterId = "0DA27741-1AFD-43F2-A947-40AFBF8D6498";
layerId = "55314CA7-5524-4D70-B802-98D4FAE25636";
width = 415;
},
{
associatedMasterId = "0DA27741-1AFD-43F2-A947-40AFBF8D6498";
layerId = "13A3DD5D-E91B-4961-8595-F8141D3FA442";
width = 570;
}
);
leftKerningGroup = J;
note = J;
rightKerningGroup = J;
unicode = 004A;
},
{
glyphname = K;
lastChange = "2018-07-25 11:15:00 +0000";
layers = (
{
layerId = "CAA188E2-8C62-414B-93AE-B576BEB044DB";
paths = (
{
closed = 1;
nodes = (
"237 376 LINE",
"536 720 LINE",
"480 720 LINE",
"199 396 LINE",
"112 396 LINE",
"112 720 LINE",
"70 720 LINE",
"70 0 LINE",
"112 0 LINE",
"112 354 LINE",
"199 354 LINE",
"539 0 LINE",
"598 0 LINE"
);
}
);
width = 598;
},
{
layerId = "0DA27741-1AFD-43F2-A947-40AFBF8D6498";
paths = (
{
closed = 1;
nodes = (
"401 361 LINE",
"651 720 LINE",
"483 720 LINE",
"276 424 LINE",
"208 424 LINE",
"208 720 LINE",
"70 720 LINE",
"70 0 LINE",
"208 0 LINE",
"208 296 LINE",
"277 296 LINE",
"498 0 LINE",
"670 0 LINE"
);
}
);
width = 670;
},
{
associatedMasterId = "0DA27741-1AFD-43F2-A947-40AFBF8D6498";
layerId = "A2873047-0ED6-4C67-9B4D-3870B51BD5C6";
width = 600;
},
{
associatedMasterId = "0DA27741-1AFD-43F2-A947-40AFBF8D6498";
layerId = "55314CA7-5524-4D70-B802-98D4FAE25636";
width = 584;
},
{
associatedMasterId = "0DA27741-1AFD-43F2-A947-40AFBF8D6498";
layerId = "13A3DD5D-E91B-4961-8595-F8141D3FA442";
width = 597;
}
);
leftKerningGroup = H;
leftMetricsKey = H;
note = K;
rightKerningGroup = K;
unicode = 004B;
},
{
glyphname = L;
lastChange = "2018-07-10 05:49:09 +0000";
layers = (
{
layerId = "CAA188E2-8C62-414B-93AE-B576BEB044DB";
paths = (
{
closed = 1;
nodes = (
"122 42 LINE",
"480 42 LINE",
"480 0 LINE",
"80 0 LINE",
"80 720 LINE",
"122 720 LINE"
);
}
);
width = 495;
},
{
layerId = "0DA27741-1AFD-43F2-A947-40AFBF8D6498";
paths = (
{
closed = 1;
nodes = (
"216 127 LINE",
"526 127 LINE",
"526 0 LINE",
"80 0 LINE",
"80 720 LINE",
"216 720 LINE"
);
}
);
width = 541;
},
{
associatedMasterId = "0DA27741-1AFD-43F2-A947-40AFBF8D6498";
layerId = "A2873047-0ED6-4C67-9B4D-3870B51BD5C6";
width = 600;
},
{
associatedMasterId = "0DA27741-1AFD-43F2-A947-40AFBF8D6498";
layerId = "55314CA7-5524-4D70-B802-98D4FAE25636";
width = 431;
},
{
associatedMasterId = "0DA27741-1AFD-43F2-A947-40AFBF8D6498";
layerId = "13A3DD5D-E91B-4961-8595-F8141D3FA442";
width = 573;
}
);
note = L;
rightKerningGroup = L;
unicode = 004C;
},
{
glyphname = M;
lastChange = "2018-07-25 11:12:52 +0000";
layers = (
{
layerId = "CAA188E2-8C62-414B-93AE-B576BEB044DB";
paths = (
{
closed = 1;
nodes = (
"719 720 LINE",
"416 51 LINE",
"110 720 LINE",
"70 720 LINE",
"70 0 LINE",
"112 0 LINE",
"112 619 LINE",
"392 0 LINE",
"439 0 LINE",
"719 619 LINE",
"719 1 LINE",
"761 1 LINE",
"761 720 LINE"
);
}
);
width = 831;
},
{
layerId = "0DA27741-1AFD-43F2-A947-40AFBF8D6498";
paths = (
{
closed = 1;
nodes = (
"674 720 LINE",
"441 242 LINE",
"208 720 LINE",
"70 720 LINE",
"70 0 LINE",
"208 0 LINE",
"208 429 LINE",
"417 0 LINE",
"465 0 LINE",
"674 430 LINE",
"674 0 LINE",
"812 0 LINE",
"812 720 LINE"
);
}
);
width = 882;
},
{
associatedMasterId = "0DA27741-1AFD-43F2-A947-40AFBF8D6498";
layerId = "A2873047-0ED6-4C67-9B4D-3870B51BD5C6";
width = 600;
},
{
associatedMasterId = "0DA27741-1AFD-43F2-A947-40AFBF8D6498";
layerId = "55314CA7-5524-4D70-B802-98D4FAE25636";
width = 914;
},
{
associatedMasterId = "0DA27741-1AFD-43F2-A947-40AFBF8D6498";
layerId = "13A3DD5D-E91B-4961-8595-F8141D3FA442";
width = 650;
}
);
leftKerningGroup = M;
leftMetricsKey = H;
note = M;
rightKerningGroup = M;
rightMetricsKey = H;
unicode = 004D;
},
{
glyphname = N;
lastChange = "2018-07-25 11:15:15 +0000";
layers = (
{
layerId = "CAA188E2-8C62-414B-93AE-B576BEB044DB";
paths = (
{
closed = 1;
nodes = (
"70 720 LINE",
"70 0 LINE",
"112 0 LINE",
"112 646 LINE",
"550 0 LINE",
"592 0 LINE",
"592 720 LINE",
"550 720 LINE",
"550 75 LINE",
"112 720 LINE"
);
}
);
width = 662;
},
{
layerId = "0DA27741-1AFD-43F2-A947-40AFBF8D6498";
paths = (
{
closed = 1;
nodes = (
"70 720 LINE",
"70 0 LINE",
"209 0 LINE",
"209 470 LINE",
"539 0 LINE",
"659 0 LINE",
"659 720 LINE",
"521 720 LINE",
"521 250 LINE",
"190 720 LINE"
);
}
);
width = 729;
},
{
associatedMasterId = "0DA27741-1AFD-43F2-A947-40AFBF8D6498";
layerId = "A2873047-0ED6-4C67-9B4D-3870B51BD5C6";
width = 600;
},
{
associatedMasterId = "0DA27741-1AFD-43F2-A947-40AFBF8D6498";
layerId = "55314CA7-5524-4D70-B802-98D4FAE25636";
width = 725;
},
{
associatedMasterId = "0DA27741-1AFD-43F2-A947-40AFBF8D6498";
layerId = "13A3DD5D-E91B-4961-8595-F8141D3FA442";
width = 620;
}
);
leftKerningGroup = N;
leftMetricsKey = H;
note = N;
rightKerningGroup = N;
rightMetricsKey = H;
unicode = 004E;
},
{
glyphname = Eng;
lastChange = "2018-07-29 14:56:51 +0000";
layers = (
{
components = (
{
name = N;
}
);
layerId = "CAA188E2-8C62-414B-93AE-B576BEB044DB";
paths = (
{
closed = 1;
nodes = (
"495 -179 OFFCURVE",
"512 -181 OFFCURVE",
"540 -178 CURVE",
"570 -172 OFFCURVE",
"592 -152 OFFCURVE",
"592 -95 CURVE SMOOTH",
"592 1 LINE",
"485 96 LINE",
"524 39 LINE SMOOTH",
"542 12 OFFCURVE",
"550 -22 OFFCURVE",
"550 -55 CURVE SMOOTH",
"550 -126 OFFCURVE",
"540 -143 OFFCURVE",
"475 -133 CURVE",
"475 -174 LINE"
);
}
);
width = 662;
},
{
components = (
{
name = N;
}
);
layerId = "0DA27741-1AFD-43F2-A947-40AFBF8D6498";
paths = (
{
closed = 1;
nodes = (
"465 -238 OFFCURVE",
"513 -244 OFFCURVE",
"562 -234 CURVE SMOOTH",
"624 -221 OFFCURVE",
"659 -167 OFFCURVE",
"659 -88 CURVE SMOOTH",
"659 144 LINE",
"424 164 LINE",
"479 85 LINE SMOOTH",
"537 1 OFFCURVE",
"547 -50 OFFCURVE",
"547 -68 CURVE SMOOTH",
"547 -149 OFFCURVE",
"460 -132 OFFCURVE",
"429 -129 CURVE",
"429 -229 LINE"
);
}
);
width = 729;
},
{
associatedMasterId = "0DA27741-1AFD-43F2-A947-40AFBF8D6498";
layerId = "A2873047-0ED6-4C67-9B4D-3870B51BD5C6";
width = 600;
},
{
associatedMasterId = "0DA27741-1AFD-43F2-A947-40AFBF8D6498";
layerId = "55314CA7-5524-4D70-B802-98D4FAE25636";
width = 725;
},
{
associatedMasterId = "0DA27741-1AFD-43F2-A947-40AFBF8D6498";
layerId = "13A3DD5D-E91B-4961-8595-F8141D3FA442";
width = 620;
}
);
leftKerningGroup = N;
leftMetricsKey = N;
rightKerningGroup = N;
rightMetricsKey = N;
unicode = 014A;
},
{
glyphname = O;
lastChange = "2018-07-25 14:28:01 +0000";
layers = (
{
layerId = "CAA188E2-8C62-414B-93AE-B576BEB044DB";
paths = (
{
closed = 1;
nodes = (
"467 -15 OFFCURVE",
"555 23 OFFCURVE",
"611 99 CURVE",
"669 175 OFFCURVE",
"687 270 OFFCURVE",
"686 360 CURVE SMOOTH",
"685 450 OFFCURVE",
"669 545 OFFCURVE",
"611 621 CURVE",
"553 697 OFFCURVE",
"461 732 OFFCURVE",
"363 734 CURVE SMOOTH",
"266 736 OFFCURVE",
"172 697 OFFCURVE",
"116 621 CURVE",
"58 545 OFFCURVE",
"39 450 OFFCURVE",
"40 360 CURVE SMOOTH",
"41 270 OFFCURVE",
"58 175 OFFCURVE",
"116 99 CURVE",
"172 21 OFFCURVE",
"261 -15 OFFCURVE",
"363 -15 CURVE SMOOTH"
);
},
{
closed = 1;
nodes = (
"281 26 OFFCURVE",
"198 59 OFFCURVE",
"150 125 CURVE",
"100 189 OFFCURVE",
"84 276 OFFCURVE",
"85 360 CURVE SMOOTH",
"86 443 OFFCURVE",
"100 530 OFFCURVE",
"150 594 CURVE",
"198 660 OFFCURVE",
"281 691 OFFCURVE",
"363 692 CURVE SMOOTH",
"446 693 OFFCURVE",
"528 660 OFFCURVE",
"575 594 CURVE",
"625 530 OFFCURVE",
"642 443 OFFCURVE",
"641 360 CURVE SMOOTH",
"640 276 OFFCURVE",
"625 189 OFFCURVE",
"575 125 CURVE",
"528 59 OFFCURVE",
"446 28 OFFCURVE",
"363 27 CURVE SMOOTH"
);
}
);
width = 726;
},
{
layerId = "0DA27741-1AFD-43F2-A947-40AFBF8D6498";
paths = (
{
closed = 1;
nodes = (
"499 -15 OFFCURVE",
"598 23 OFFCURVE",
"664 103 CURVE",
"723 175 OFFCURVE",
"746 260 OFFCURVE",
"748 360 CURVE SMOOTH",
"746 456 OFFCURVE",
"725 544 OFFCURVE",
"664 618 CURVE",
"600 696 OFFCURVE",
"503 735 OFFCURVE",
"399 735 CURVE SMOOTH",
"295 735 OFFCURVE",
"197 697 OFFCURVE",
"134 618 CURVE",
"76 548 OFFCURVE",
"50 456 OFFCURVE",
"50 360 CURVE SMOOTH",
"50 264 OFFCURVE",
"76 173 OFFCURVE",
"134 103 CURVE",
"196 25 OFFCURVE",
"296 -15 OFFCURVE",
"399 -15 CURVE SMOOTH"
);
},
{
closed = 1;
nodes = (
"337 112 OFFCURVE",
"277 137 OFFCURVE",
"242 185 CURVE",
"205 233 OFFCURVE",
"194 297 OFFCURVE",
"193 360 CURVE SMOOTH",
"194 423 OFFCURVE",
"205 488 OFFCURVE",
"242 535 CURVE",
"277 583 OFFCURVE",
"337 608 OFFCURVE",
"399 607 CURVE SMOOTH",
"461 608 OFFCURVE",
"520 583 OFFCURVE",
"556 535 CURVE",
"592 488 OFFCURVE",
"604 423 OFFCURVE",
"604 360 CURVE SMOOTH",
"604 297 OFFCURVE",
"592 233 OFFCURVE",
"556 185 CURVE",
"520 137 OFFCURVE",
"461 112 OFFCURVE",
"399 113 CURVE SMOOTH"
);
}
);
width = 798;
},
{
associatedMasterId = "0DA27741-1AFD-43F2-A947-40AFBF8D6498";
layerId = "A2873047-0ED6-4C67-9B4D-3870B51BD5C6";
width = 600;
},
{
associatedMasterId = "0DA27741-1AFD-43F2-A947-40AFBF8D6498";
layerId = "55314CA7-5524-4D70-B802-98D4FAE25636";
width = 734;
},
{
associatedMasterId = "0DA27741-1AFD-43F2-A947-40AFBF8D6498";
layerId = "13A3DD5D-E91B-4961-8595-F8141D3FA442";
width = 621;
}
);
leftKerningGroup = O;
rightKerningGroup = O;
unicode = 004F;
},
{
glyphname = P;
lastChange = "2018-07-25 11:15:31 +0000";
layers = (
{
layerId = "CAA188E2-8C62-414B-93AE-B576BEB044DB";
paths = (
{
closed = 1;
nodes = (
"355 678 LINE SMOOTH",
"398 678 OFFCURVE",
"443 659 OFFCURVE",
"473 629 CURVE SMOOTH",
"506 596 OFFCURVE",
"525 551 OFFCURVE",
"526 504 CURVE SMOOTH",
"527 463 OFFCURVE",
"511 423 OFFCURVE",
"485 392 CURVE",
"453 354 OFFCURVE",
"404 330 OFFCURVE",
"355 330 CURVE SMOOTH",
"112 330 LINE",
"112 288 LINE",
"355 288 LINE",
"414 288 OFFCURVE",
"475 315 OFFCURVE",
"514 359 CURVE",
"549 398 OFFCURVE",
"571 450 OFFCURVE",
"571 504 CURVE SMOOTH",
"571 562 OFFCURVE",
"546 620 OFFCURVE",
"503 660 CURVE SMOOTH",
"483 679 OFFCURVE",
"458 695 OFFCURVE",
"432 705 CURVE SMOOTH",
"407 715 OFFCURVE",
"381 720 OFFCURVE",
"355 720 CURVE SMOOTH",
"112 720 LINE",
"112 678 LINE"
);
},
{
closed = 1;
nodes = (
"112 0 LINE",
"112 720 LINE",
"70 720 LINE",
"70 0 LINE"
);
}
);
width = 611;
},
{
layerId = "0DA27741-1AFD-43F2-A947-40AFBF8D6498";
paths = (
{
closed = 1;
nodes = (
"398 592 LINE SMOOTH",
"426 592 OFFCURVE",
"457 575 OFFCURVE",
"476 553 CURVE SMOOTH",
"493 534 OFFCURVE",
"501 508 OFFCURVE",
"502 482 CURVE SMOOTH",
"503 458 OFFCURVE",
"494 435 OFFCURVE",
"480 416 CURVE SMOOTH",
"459 388 OFFCURVE",
"425 372 OFFCURVE",
"398 372 CURVE SMOOTH",
"206 372 LINE",
"206 245 LINE",
"399 245 LINE SMOOTH",
"478 245 OFFCURVE",
"550 283 OFFCURVE",
"592 341 CURVE",
"622 381 OFFCURVE",
"641 432 OFFCURVE",
"640 482 CURVE SMOOTH",
"639 532 OFFCURVE",
"622 583 OFFCURVE",
"592 623 CURVE",
"563 664 OFFCURVE",
"520 694 OFFCURVE",
"472 709 CURVE",
"449 716 OFFCURVE",
"424 720 OFFCURVE",
"399 720 CURVE SMOOTH",
"206 720 LINE",
"206 592 LINE"
);
},
{
closed = 1;
nodes = (
"206 0 LINE",
"206 720 LINE",
"70 720 LINE",
"70 0 LINE"
);
}
);
width = 660;
},
{
associatedMasterId = "0DA27741-1AFD-43F2-A947-40AFBF8D6498";
layerId = "A2873047-0ED6-4C67-9B4D-3870B51BD5C6";
width = 600;
},
{
associatedMasterId = "0DA27741-1AFD-43F2-A947-40AFBF8D6498";
layerId = "55314CA7-5524-4D70-B802-98D4FAE25636";
width = 564;
},
{
associatedMasterId = "0DA27741-1AFD-43F2-A947-40AFBF8D6498";
layerId = "13A3DD5D-E91B-4961-8595-F8141D3FA442";
width = 594;
}
);
leftMetricsKey = H;
note = P;
unicode = 0050;
},
{
glyphname = Thorn;
lastChange = "2018-07-29 14:56:56 +0000";
layers = (
{
layerId = "CAA188E2-8C62-414B-93AE-B576BEB044DB";
paths = (
{
closed = 1;
nodes = (
"112 576 LINE",
"325 576 LINE SMOOTH",
"351 576 OFFCURVE",
"377 571 OFFCURVE",
"402 561 CURVE SMOOTH",
"428 551 OFFCURVE",
"453 535 OFFCURVE",
"473 516 CURVE SMOOTH",
"516 476 OFFCURVE",
"541 418 OFFCURVE",
"541 360 CURVE SMOOTH",
"541 306 OFFCURVE",
"519 254 OFFCURVE",
"484 215 CURVE",
"445 171 OFFCURVE",
"384 144 OFFCURVE",
"325 144 CURVE",
"112 144 LINE",
"112 186 LINE",
"325 186 LINE SMOOTH",
"374 186 OFFCURVE",
"423 210 OFFCURVE",
"455 248 CURVE",
"481 279 OFFCURVE",
"497 319 OFFCURVE",
"496 360 CURVE SMOOTH",
"495 407 OFFCURVE",
"476 452 OFFCURVE",
"443 485 CURVE SMOOTH",
"413 515 OFFCURVE",
"368 534 OFFCURVE",
"325 534 CURVE SMOOTH",
"112 534 LINE"
);
},
{
closed = 1;
nodes = (
"70 720 LINE",
"112 720 LINE",
"112 0 LINE",
"70 0 LINE"
);
}
);
width = 581;
},
{
layerId = "0DA27741-1AFD-43F2-A947-40AFBF8D6498";
paths = (
{
closed = 1;
nodes = (
"208 598 LINE",
"371 598 LINE SMOOTH",
"396 598 OFFCURVE",
"421 594 OFFCURVE",
"444 587 CURVE",
"492 572 OFFCURVE",
"535 542 OFFCURVE",
"564 501 CURVE",
"594 461 OFFCURVE",
"611 410 OFFCURVE",
"612 360 CURVE SMOOTH",
"613 310 OFFCURVE",
"594 259 OFFCURVE",
"564 219 CURVE",
"522 161 OFFCURVE",
"450 123 OFFCURVE",
"371 123 CURVE SMOOTH",
"208 123 LINE",
"208 250 LINE",
"370 250 LINE SMOOTH",
"397 250 OFFCURVE",
"431 266 OFFCURVE",
"452 294 CURVE SMOOTH",
"466 313 OFFCURVE",
"475 336 OFFCURVE",
"474 360 CURVE SMOOTH",
"473 386 OFFCURVE",
"465 412 OFFCURVE",
"448 431 CURVE SMOOTH",
"429 453 OFFCURVE",
"398 470 OFFCURVE",
"370 470 CURVE SMOOTH",
"208 470 LINE"
);
},
{
closed = 1;
nodes = (
"70 720 LINE",
"208 720 LINE",
"208 0 LINE",
"70 0 LINE"
);
}
);
width = 632;
},
{
associatedMasterId = "0DA27741-1AFD-43F2-A947-40AFBF8D6498";
layerId = "A2873047-0ED6-4C67-9B4D-3870B51BD5C6";
width = 600;
},
{
associatedMasterId = "0DA27741-1AFD-43F2-A947-40AFBF8D6498";
layerId = "55314CA7-5524-4D70-B802-98D4FAE25636";
width = 601;
},
{
associatedMasterId = "0DA27741-1AFD-43F2-A947-40AFBF8D6498";
layerId = "13A3DD5D-E91B-4961-8595-F8141D3FA442";
width = 600;
}
);
leftKerningGroup = P;
leftMetricsKey = P;
rightKerningGroup = P;
rightMetricsKey = P;
unicode = 00DE;
},
{
glyphname = Q;
lastChange = "2018-07-29 14:57:00 +0000";
layers = (
{
components = (
{
name = O;
}
);
layerId = "CAA188E2-8C62-414B-93AE-B576BEB044DB";
paths = (
{
closed = 1;
nodes = (
"487 201 LINE",
"454 168 LINE",
"637 -14 LINE",
"669 19 LINE"
);
}
);
width = 726;
},
{
components = (
{
name = O;
}
);
layerId = "0DA27741-1AFD-43F2-A947-40AFBF8D6498";
paths = (
{
closed = 1;
nodes = (
"507 278 LINE",
"423 194 LINE",
"633 -15 LINE",
"716 69 LINE"
);
}
);
width = 798;
},
{
associatedMasterId = "0DA27741-1AFD-43F2-A947-40AFBF8D6498";
layerId = "A2873047-0ED6-4C67-9B4D-3870B51BD5C6";
width = 600;
},
{
associatedMasterId = "0DA27741-1AFD-43F2-A947-40AFBF8D6498";
layerId = "55314CA7-5524-4D70-B802-98D4FAE25636";
width = 734;
},
{
associatedMasterId = "0DA27741-1AFD-43F2-A947-40AFBF8D6498";
layerId = "13A3DD5D-E91B-4961-8595-F8141D3FA442";
width = 621;
}
);
leftMetricsKey = O;
note = Q;
rightMetricsKey = O;
unicode = 0051;
},
{
glyphname = R;
lastChange = "2018-07-29 15:03:35 +0000";
layers = (
{
components = (
{
name = P;
}
);
layerId = "CAA188E2-8C62-414B-93AE-B576BEB044DB";
paths = (
{
closed = 1;
nodes = (
"425 320 LINE",
"389 293 LINE",
"531 0 LINE",
"581 0 LINE"
);
}
);
width = 641;
},
{
components = (
{
name = P;
}
);
layerId = "0DA27741-1AFD-43F2-A947-40AFBF8D6498";
paths = (
{
closed = 1;
nodes = (
"494 320 LINE",
"354 293 LINE",
"496 0 LINE",
"650 0 LINE"
);
}
);
width = 710;
},
{
associatedMasterId = "0DA27741-1AFD-43F2-A947-40AFBF8D6498";
layerId = "A2873047-0ED6-4C67-9B4D-3870B51BD5C6";
width = 600;
},
{
associatedMasterId = "0DA27741-1AFD-43F2-A947-40AFBF8D6498";
layerId = "55314CA7-5524-4D70-B802-98D4FAE25636";
width = 551;
},
{
associatedMasterId = "0DA27741-1AFD-43F2-A947-40AFBF8D6498";
layerId = "13A3DD5D-E91B-4961-8595-F8141D3FA442";
width = 592;
}
);
leftKerningGroup = P;
leftMetricsKey = H;
note = R;
rightKerningGroup = R;
unicode = 0052;
},
{
glyphname = S;
lastChange = "2018-07-29 15:15:28 +0000";
layers = (
{
layerId = "CAA188E2-8C62-414B-93AE-B576BEB044DB";
paths = (
{
closed = 1;
nodes = (
"534 606 OFFCURVE",
"495 661 OFFCURVE",
"438 696 CURVE",
"397 722 OFFCURVE",
"342 735 OFFCURVE",
"290 735 CURVE SMOOTH",
"244 735 OFFCURVE",
"197 728 OFFCURVE",
"155 704 CURVE",
"101 675 OFFCURVE",
"60 616 OFFCURVE",
"60 557 CURVE SMOOTH",
"60 517 OFFCURVE",
"75 470 OFFCURVE",
"107 439 CURVE",
"146 403 OFFCURVE",
"193 388 OFFCURVE",
"237 373 CURVE",
"368 334 LINE",
"411 322 OFFCURVE",
"449 304 OFFCURVE",
"477 275 CURVE",
"502 250 OFFCURVE",
"516 218 OFFCURVE",
"516 183 CURVE SMOOTH",
"516 140 OFFCURVE",
"498 94 OFFCURVE",
"460 67 CURVE",
"422 40 OFFCURVE",
"362 27 OFFCURVE",
"308 27 CURVE SMOOTH",
"234 27 OFFCURVE",
"162 50 OFFCURVE",
"118 112 CURVE",
"94 144 OFFCURVE",
"80 184 OFFCURVE",
"72 225 CURVE",
"30 213 LINE",
"40 169 OFFCURVE",
"56 125 OFFCURVE",
"84 87 CURVE",
"134 17 OFFCURVE",
"216 -15 OFFCURVE",
"307 -15 CURVE SMOOTH",
"370 -15 OFFCURVE",
"438 -2 OFFCURVE",
"485 33 CURVE",
"531 66 OFFCURVE",
"561 124 OFFCURVE",
"561 181 CURVE SMOOTH",
"562 227 OFFCURVE",
"540 274 OFFCURVE",
"508 305 CURVE",
"472 340 OFFCURVE",
"425 362 OFFCURVE",
"380 374 CURVE",
"249 413 LINE",
"207 426 OFFCURVE",
"165 443 OFFCURVE",
"138 470 CURVE",
"116 492 OFFCURVE",
"105 523 OFFCURVE",
"105 555 CURVE SMOOTH",
"105 601 OFFCURVE",
"134 646 OFFCURVE",
"175 668 CURVE",
"209 686 OFFCURVE",
"250 693 OFFCURVE",
"291 693 CURVE SMOOTH",
"334 693 OFFCURVE",
"382 681 OFFCURVE",
"416 660 CURVE",
"464 631 OFFCURVE",
"497 583 OFFCURVE",
"516 529 CURVE",
"557 540 LINE"
);
}
);
width = 591;
},
{
layerId = "0DA27741-1AFD-43F2-A947-40AFBF8D6498";
paths = (
{
closed = 1;
nodes = (
"587 610 OFFCURVE",
"539 667 OFFCURVE",
"478 700 CURVE",
"430 726 OFFCURVE",
"376 734 OFFCURVE",
"327 735 CURVE SMOOTH",
"279 735 OFFCURVE",
"227 731 OFFCURVE",
"175 707 CURVE",
"109 677 OFFCURVE",
"58 609 OFFCURVE",
"58 530 CURVE SMOOTH",
"58 480 OFFCURVE",
"77 426 OFFCURVE",
"120 390 CURVE",
"155 359 OFFCURVE",
"204 338 OFFCURVE",
"258 323 CURVE",
"392 284 LINE",
"420 276 OFFCURVE",
"440 266 OFFCURVE",
"456 252 CURVE",
"471 239 OFFCURVE",
"478 221 OFFCURVE",
"478 202 CURVE SMOOTH",
"478 182 OFFCURVE",
"472 160 OFFCURVE",
"449 143 CURVE",
"423 123 OFFCURVE",
"375 112 OFFCURVE",
"337 112 CURVE SMOOTH",
"289 112 OFFCURVE",
"233 130 OFFCURVE",
"204 170 CURVE",
"186 192 OFFCURVE",
"174 224 OFFCURVE",
"168 259 CURVE",
"30 222 LINE",
"41 175 OFFCURVE",
"60 125 OFFCURVE",
"95 82 CURVE",
"154 10 OFFCURVE",
"236 -15 OFFCURVE",
"332 -15 CURVE SMOOTH",
"408 -15 OFFCURVE",
"474 -6 OFFCURVE",
"529 31 CURVE",
"586 69 OFFCURVE",
"622 135 OFFCURVE",
"622 198 CURVE SMOOTH",
"622 257 OFFCURVE",
"598 310 OFFCURVE",
"555 351 CURVE",
"523 381 OFFCURVE",
"486 400 OFFCURVE",
"422 419 CURVE",
"297 455 LINE",
"261 466 OFFCURVE",
"228 479 OFFCURVE",
"215 493 CURVE",
"206 502 OFFCURVE",
"201 514 OFFCURVE",
"201 527 CURVE SMOOTH",
"201 549 OFFCURVE",
"213 572 OFFCURVE",
"238 587 CURVE",
"259 600 OFFCURVE",
"291 608 OFFCURVE",
"325 607 CURVE SMOOTH",
"358 607 OFFCURVE",
"387 595 OFFCURVE",
"410 581 CURVE",
"444 561 OFFCURVE",
"459 536 OFFCURVE",
"477 500 CURVE",
"615 537 LINE"
);
}
);
width = 652;
},
{
associatedMasterId = "0DA27741-1AFD-43F2-A947-40AFBF8D6498";
layerId = "A2873047-0ED6-4C67-9B4D-3870B51BD5C6";
width = 600;
},
{
associatedMasterId = "0DA27741-1AFD-43F2-A947-40AFBF8D6498";
layerId = "55314CA7-5524-4D70-B802-98D4FAE25636";
width = 616;
},
{
associatedMasterId = "0DA27741-1AFD-43F2-A947-40AFBF8D6498";
layerId = "13A3DD5D-E91B-4961-8595-F8141D3FA442";
width = 603;
}
);
leftKerningGroup = S;
note = S;
rightKerningGroup = S;
unicode = 0053;
},
{
glyphname = T;
lastChange = "2018-07-29 15:14:04 +0000";
layers = (
{
layerId = "CAA188E2-8C62-414B-93AE-B576BEB044DB";
paths = (
{
closed = 1;
nodes = (
"274 0 LINE",
"316 0 LINE",
"316 700 LINE",
"274 700 LINE"
);
},
{
closed = 1;
nodes = (
"10 678 LINE",
"580 678 LINE",
"580 720 LINE",
"10 720 LINE"
);
}
);
width = 590;
},
{
layerId = "0DA27741-1AFD-43F2-A947-40AFBF8D6498";
paths = (
{
closed = 1;
nodes = (
"237 0 LINE",
"373 0 LINE",
"373 660 LINE",
"237 660 LINE"
);
},
{
closed = 1;
nodes = (
"10 593 LINE",
"600 593 LINE",
"600 720 LINE",
"10 720 LINE"
);
}
);
width = 610;
},
{
associatedMasterId = "0DA27741-1AFD-43F2-A947-40AFBF8D6498";
layerId = "A2873047-0ED6-4C67-9B4D-3870B51BD5C6";
width = 600;
},
{
associatedMasterId = "0DA27741-1AFD-43F2-A947-40AFBF8D6498";
layerId = "55314CA7-5524-4D70-B802-98D4FAE25636";
width = 513;
},
{
associatedMasterId = "0DA27741-1AFD-43F2-A947-40AFBF8D6498";
layerId = "13A3DD5D-E91B-4961-8595-F8141D3FA442";
width = 586;
}
);
leftKerningGroup = T;
note = T;
rightKerningGroup = T;
unicode = 0054;
},
{
glyphname = Tbar;
lastChange = "2018-06-29 15:14:54 +0000";
layers = (
{
components = (
{
name = T;
}
);
layerId = "CAA188E2-8C62-414B-93AE-B576BEB044DB";
paths = (
{
closed = 1;
nodes = (
"85 339 LINE",
"505 339 LINE",
"505 381 LINE",
"85 381 LINE"
);
}
);
width = 590;
},
{
components = (
{
name = T;
}
);
layerId = "0DA27741-1AFD-43F2-A947-40AFBF8D6498";
paths = (
{
closed = 1;
nodes = (
"65 292 LINE",
"545 292 LINE",
"545 428 LINE",
"65 428 LINE"
);
}
);
width = 610;
},
{
associatedMasterId = "0DA27741-1AFD-43F2-A947-40AFBF8D6498";
layerId = "A2873047-0ED6-4C67-9B4D-3870B51BD5C6";
width = 600;
},
{
associatedMasterId = "0DA27741-1AFD-43F2-A947-40AFBF8D6498";
layerId = "55314CA7-5524-4D70-B802-98D4FAE25636";
width = 513;
},
{
associatedMasterId = "0DA27741-1AFD-43F2-A947-40AFBF8D6498";
layerId = "13A3DD5D-E91B-4961-8595-F8141D3FA442";
width = 586;
}
);
leftKerningGroup = X;
leftMetricsKey = T;
rightKerningGroup = X;
rightMetricsKey = T;
unicode = 0166;
},
{
glyphname = Tcedilla;
lastChange = "2018-06-29 15:14:54 +0000";
layers = (
{
components = (
{
name = T;
}
);
layerId = "CAA188E2-8C62-414B-93AE-B576BEB044DB";
paths = (
{
closed = 1;
nodes = (
"325 -94 OFFCURVE",
"307 -79 OFFCURVE",
"288 -71 CURVE",
"316 0 LINE",
"274 0 LINE",
"237 -96 LINE",
"269 -107 OFFCURVE",
"289 -112 OFFCURVE",
"299 -133 CURVE",
"307 -148 OFFCURVE",
"305 -164 OFFCURVE",
"296 -178 CURVE",
"288 -192 OFFCURVE",
"273 -199 OFFCURVE",
"254 -198 CURVE",
"242 -197 OFFCURVE",
"228 -193 OFFCURVE",
"214 -188 CURVE",
"200 -225 LINE",
"216 -232 OFFCURVE",
"233 -238 OFFCURVE",
"252 -239 CURVE",
"281 -242 OFFCURVE",
"315 -228 OFFCURVE",
"331 -202 CURVE",
"349 -177 OFFCURVE",
"351 -140 OFFCURVE",
"336 -114 CURVE"
);
}
);
width = 590;
},
{
components = (
{
name = T;
}
);
layerId = "0DA27741-1AFD-43F2-A947-40AFBF8D6498";
paths = (
{
closed = 1;
nodes = (
"370 -59 OFFCURVE",
"352 -45 OFFCURVE",
"334 -36 CURVE",
"352 18 LINE",
"273 17 LINE",
"238 -85 LINE",
"270 -94 OFFCURVE",
"297 -101 OFFCURVE",
"302 -122 CURVE SMOOTH",
"304 -130 OFFCURVE",
"302 -135 OFFCURVE",
"298 -141 CURVE SMOOTH",
"294 -147 OFFCURVE",
"285 -151 OFFCURVE",
"275 -151 CURVE SMOOTH",
"267 -151 OFFCURVE",
"258 -149 OFFCURVE",
"245 -145 CURVE",
"216 -223 LINE",
"233 -232 OFFCURVE",
"252 -239 OFFCURVE",
"274 -241 CURVE",
"316 -246 OFFCURVE",
"353 -228 OFFCURVE",
"377 -194 CURVE",
"399 -162 OFFCURVE",
"402 -113 OFFCURVE",
"382 -79 CURVE"
);
}
);
width = 610;
},
{
associatedMasterId = "0DA27741-1AFD-43F2-A947-40AFBF8D6498";
layerId = "A2873047-0ED6-4C67-9B4D-3870B51BD5C6";
width = 600;
},
{
associatedMasterId = "0DA27741-1AFD-43F2-A947-40AFBF8D6498";
layerId = "55314CA7-5524-4D70-B802-98D4FAE25636";
width = 513;
},
{
associatedMasterId = "0DA27741-1AFD-43F2-A947-40AFBF8D6498";
layerId = "13A3DD5D-E91B-4961-8595-F8141D3FA442";
width = 586;
}
);
leftKerningGroup = T;
leftMetricsKey = T;
rightKerningGroup = T;
rightMetricsKey = T;
unicode = 0162;
},
{
glyphname = U;
lastChange = "2018-07-25 11:15:08 +0000";
layers = (
{
layerId = "CAA188E2-8C62-414B-93AE-B576BEB044DB";
paths = (
{
closed = 1;
nodes = (
"578 720 LINE",
"578 305 LINE",
"578 224 OFFCURVE",
"577 173 OFFCURVE",
"526 110 CURVE",
"483 56 OFFCURVE",
"414 24 OFFCURVE",
"345 24 CURVE SMOOTH",
"276 24 OFFCURVE",
"208 56 OFFCURVE",
"164 110 CURVE",
"111 178 OFFCURVE",
"112 224 OFFCURVE",
"112 305 CURVE",
"112 720 LINE",
"70 720 LINE",
"70 253 LINE",
"70 196 OFFCURVE",
"95 128 OFFCURVE",
"132 84 CURVE",
"183 20 OFFCURVE",
"265 -16 OFFCURVE",
"345 -15 CURVE SMOOTH",
"426 -16 OFFCURVE",
"508 20 OFFCURVE",
"559 84 CURVE",
"596 130 OFFCURVE",
"620 195 OFFCURVE",
"620 253 CURVE",
"620 720 LINE"
);
}
);
width = 690;
},
{
layerId = "0DA27741-1AFD-43F2-A947-40AFBF8D6498";
paths = (
{
closed = 1;
nodes = (
"518 720 LINE",
"518 272 LINE",
"518 235 OFFCURVE",
"509 203 OFFCURVE",
"487 174 CURVE",
"458 135 OFFCURVE",
"411 113 OFFCURVE",
"364 113 CURVE SMOOTH",
"316 113 OFFCURVE",
"268 135 OFFCURVE",
"239 173 CURVE",
"219 202 OFFCURVE",
"208 236 OFFCURVE",
"208 272 CURVE",
"208 720 LINE",
"70 719 LINE",
"70 270 LINE",
"70 206 OFFCURVE",
"94 139 OFFCURVE",
"134 88 CURVE",
"188 20 OFFCURVE",
"274 -15 OFFCURVE",
"364 -15 CURVE SMOOTH",
"454 -15 OFFCURVE",
"538 19 OFFCURVE",
"592 88 CURVE",
"634 140 OFFCURVE",
"656 203 OFFCURVE",
"656 270 CURVE",
"656 720 LINE"
);
}
);
width = 726;
},
{
associatedMasterId = "0DA27741-1AFD-43F2-A947-40AFBF8D6498";
layerId = "A2873047-0ED6-4C67-9B4D-3870B51BD5C6";
width = 600;
},
{
associatedMasterId = "0DA27741-1AFD-43F2-A947-40AFBF8D6498";
layerId = "55314CA7-5524-4D70-B802-98D4FAE25636";
width = 725;
},
{
associatedMasterId = "0DA27741-1AFD-43F2-A947-40AFBF8D6498";
layerId = "13A3DD5D-E91B-4961-8595-F8141D3FA442";
width = 620;
}
);
leftKerningGroup = U;
leftMetricsKey = H;
note = U;
rightKerningGroup = U;
rightMetricsKey = H;
unicode = 0055;
},
{
glyphname = Uogonek;
lastChange = "2018-07-29 14:57:51 +0000";
layers = (
{
components = (
{
name = U;
}
);
layerId = "CAA188E2-8C62-414B-93AE-B576BEB044DB";
paths = (
{
closed = 1;
nodes = (
"464 33 LINE",
"443 9 OFFCURVE",
"426 -10 OFFCURVE",
"407 -37 CURVE SMOOTH",
"388 -64 OFFCURVE",
"372 -94 OFFCURVE",
"363 -123 CURVE",
"353 -159 OFFCURVE",
"358 -191 OFFCURVE",
"382 -215 CURVE",
"403 -239 OFFCURVE",
"442 -247 OFFCURVE",
"478 -232 CURVE",
"496 -224 OFFCURVE",
"511 -213 OFFCURVE",
"523 -201 CURVE",
"497 -172 LINE",
"473 -194 OFFCURVE",
"438 -212 OFFCURVE",
"411 -185 CURVE SMOOTH",
"398 -172 OFFCURVE",
"397 -153 OFFCURVE",
"403 -134 CURVE",
"410 -108 OFFCURVE",
"427 -78 OFFCURVE",
"446 -49 CURVE SMOOTH",
"465 -20 OFFCURVE",
"493 6 OFFCURVE",
"546 69 CURVE"
);
}
);
width = 690;
},
{
components = (
{
name = U;
}
);
layerId = "0DA27741-1AFD-43F2-A947-40AFBF8D6498";
paths = (
{
closed = 1;
nodes = (
"464 66 LINE",
"427 53 OFFCURVE",
"393 32 OFFCURVE",
"366 5 CURVE SMOOTH",
"346 -15 OFFCURVE",
"330 -37 OFFCURVE",
"319 -62 CURVE",
"300 -109 OFFCURVE",
"306 -163 OFFCURVE",
"334 -195 CURVE",
"366 -236 OFFCURVE",
"424 -253 OFFCURVE",
"470 -230 CURVE",
"492 -220 OFFCURVE",
"508 -205 OFFCURVE",
"518 -187 CURVE",
"471 -125 LINE",
"455 -138 OFFCURVE",
"427 -146 OFFCURVE",
"417 -131 CURVE",
"407 -121 OFFCURVE",
"413 -103 OFFCURVE",
"415 -98 CURVE",
"423 -80 OFFCURVE",
"436 -63 OFFCURVE",
"450 -45 CURVE SMOOTH",
"464 -27 OFFCURVE",
"502 5 OFFCURVE",
"555 50 CURVE"
);
}
);
width = 726;
},
{
associatedMasterId = "0DA27741-1AFD-43F2-A947-40AFBF8D6498";
layerId = "A2873047-0ED6-4C67-9B4D-3870B51BD5C6";
width = 600;
},
{
associatedMasterId = "0DA27741-1AFD-43F2-A947-40AFBF8D6498";
layerId = "55314CA7-5524-4D70-B802-98D4FAE25636";
width = 725;
},
{
associatedMasterId = "0DA27741-1AFD-43F2-A947-40AFBF8D6498";
layerId = "13A3DD5D-E91B-4961-8595-F8141D3FA442";
width = 620;
}
);
leftKerningGroup = U;
leftMetricsKey = U;
rightKerningGroup = U;
rightMetricsKey = U;
unicode = 0172;
},
{
glyphname = V;
lastChange = "2018-03-21 05:39:08 +0000";
layers = (
{
layerId = "CAA188E2-8C62-414B-93AE-B576BEB044DB";
paths = (
{
closed = 1;
nodes = (
"312 0 LINE",
"574 720 LINE",
"529 720 LINE",
"289 61 LINE",
"50 720 LINE",
"5 720 LINE",
"267 0 LINE"
);
}
);
width = 579;
},
{
layerId = "0DA27741-1AFD-43F2-A947-40AFBF8D6498";
paths = (
{
closed = 1;
nodes = (
"428 0 LINE",
"648 720 LINE",
"508 720 LINE",
"325 128 LINE",
"145 720 LINE",
"5 720 LINE",
"225 0 LINE"
);
}
);
width = 653;
},
{
associatedMasterId = "0DA27741-1AFD-43F2-A947-40AFBF8D6498";
layerId = "A2873047-0ED6-4C67-9B4D-3870B51BD5C6";
width = 600;
},
{
associatedMasterId = "0DA27741-1AFD-43F2-A947-40AFBF8D6498";
layerId = "55314CA7-5524-4D70-B802-98D4FAE25636";
width = 623;
},
{
associatedMasterId = "0DA27741-1AFD-43F2-A947-40AFBF8D6498";
layerId = "13A3DD5D-E91B-4961-8595-F8141D3FA442";
width = 604;
}
);
leftKerningGroup = V;
note = V;
rightKerningGroup = V;
unicode = 0056;
},
{
glyphname = W;
lastChange = "2018-07-13 06:53:09 +0000";
layers = (
{
layerId = "CAA188E2-8C62-414B-93AE-B576BEB044DB";
paths = (
{
closed = 1;
nodes = (
"661 76 LINE",
"476 720 LINE",
"432 720 LINE",
"248 76 LINE",
"63 720 LINE",
"20 720 LINE",
"226 0 LINE",
"270 0 LINE",
"454 643 LINE",
"639 0 LINE",
"683 0 LINE",
"889 720 LINE",
"845 720 LINE"
);
}
);
width = 909;
},
{
layerId = "0DA27741-1AFD-43F2-A947-40AFBF8D6498";
paths = (
{
closed = 1;
nodes = (
"700 225 LINE",
"565 720 LINE",
"422 719 LINE",
"288 225 LINE",
"153 720 LINE",
"10 720 LINE",
"221 0 LINE",
"355 0 LINE",
"494 486 LINE",
"634 0 LINE",
"768 0 LINE",
"979 720 LINE",
"836 720 LINE"
);
}
);
width = 989;
},
{
associatedMasterId = "0DA27741-1AFD-43F2-A947-40AFBF8D6498";
layerId = "A2873047-0ED6-4C67-9B4D-3870B51BD5C6";
width = 600;
},
{
associatedMasterId = "0DA27741-1AFD-43F2-A947-40AFBF8D6498";
layerId = "55314CA7-5524-4D70-B802-98D4FAE25636";
width = 906;
},
{
associatedMasterId = "0DA27741-1AFD-43F2-A947-40AFBF8D6498";
layerId = "13A3DD5D-E91B-4961-8595-F8141D3FA442";
width = 649;
}
);
leftKerningGroup = W;
note = W;
rightKerningGroup = W;
unicode = 0057;
},
{
glyphname = X;
lastChange = "2018-07-13 14:25:37 +0000";
layers = (
{
layerId = "CAA188E2-8C62-414B-93AE-B576BEB044DB";
paths = (
{
closed = 1;
nodes = (
"552 720 LINE",
"502 720 LINE",
"281 399 LINE",
"61 720 LINE",
"11 720 LINE",
"258 365 LINE",
"5 0 LINE",
"55 0 LINE",
"281 330 LINE",
"508 0 LINE",
"558 0 LINE",
"305 365 LINE"
);
}
);
width = 563;
},
{
layerId = "0DA27741-1AFD-43F2-A947-40AFBF8D6498";
paths = (
{
closed = 1;
nodes = (
"671 720 LINE",
"503 720 LINE",
"342 485 LINE",
"179 720 LINE",
"12 720 LINE",
"257 364 LINE",
"5 0 LINE",
"173 0 LINE",
"342 243 LINE",
"510 0 LINE",
"677 0 LINE",
"426 364 LINE"
);
}
);
width = 682;
},
{
associatedMasterId = "0DA27741-1AFD-43F2-A947-40AFBF8D6498";
layerId = "A2873047-0ED6-4C67-9B4D-3870B51BD5C6";
width = 600;
},
{
associatedMasterId = "0DA27741-1AFD-43F2-A947-40AFBF8D6498";
layerId = "55314CA7-5524-4D70-B802-98D4FAE25636";
width = 766;
},
{
associatedMasterId = "0DA27741-1AFD-43F2-A947-40AFBF8D6498";
layerId = "13A3DD5D-E91B-4961-8595-F8141D3FA442";
width = 627;
}
);
leftKerningGroup = X;
note = X;
rightKerningGroup = X;
unicode = 0058;
},
{
glyphname = Y;
lastChange = "2018-07-29 15:13:39 +0000";
layers = (
{
layerId = "CAA188E2-8C62-414B-93AE-B576BEB044DB";
paths = (
{
closed = 1;
nodes = (
"260 354 LINE",
"48 720 LINE",
"0 720 LINE",
"239 306 LINE",
"239 0 LINE",
"281 0 LINE",
"281 306 LINE",
"519 720 LINE",
"471 720 LINE"
);
}
);
width = 519;
},
{
layerId = "0DA27741-1AFD-43F2-A947-40AFBF8D6498";
paths = (
{
closed = 1;
nodes = (
"315 449 LINE",
"159 720 LINE",
"0 720 LINE",
"246 293 LINE",
"246 0 LINE",
"384 0 LINE",
"384 293 LINE",
"630 720 LINE",
"471 720 LINE"
);
}
);
width = 630;
},
{
associatedMasterId = "0DA27741-1AFD-43F2-A947-40AFBF8D6498";
layerId = "A2873047-0ED6-4C67-9B4D-3870B51BD5C6";
width = 600;
},
{
associatedMasterId = "0DA27741-1AFD-43F2-A947-40AFBF8D6498";
layerId = "55314CA7-5524-4D70-B802-98D4FAE25636";
width = 569;
},
{
associatedMasterId = "0DA27741-1AFD-43F2-A947-40AFBF8D6498";
layerId = "13A3DD5D-E91B-4961-8595-F8141D3FA442";
width = 595;
}
);
leftKerningGroup = Y;
note = Y;
rightKerningGroup = Y;
unicode = 0059;
},
{
glyphname = Z;
lastChange = "2018-03-06 08:24:50 +0000";
layers = (
{
layerId = "CAA188E2-8C62-414B-93AE-B576BEB044DB";
paths = (
{
closed = 1;
nodes = (
"541 678 LINE",
"541 720 LINE",
"60 720 LINE",
"60 678 LINE",
"490 678 LINE",
"60 42 LINE",
"60 0 LINE",
"541 0 LINE",
"541 41 LINE",
"111 41 LINE"
);
}
);
width = 601;
},
{
layerId = "0DA27741-1AFD-43F2-A947-40AFBF8D6498";
paths = (
{
closed = 1;
nodes = (
"600 592 LINE",
"600 720 LINE",
"60 720 LINE",
"60 593 LINE",
"425 593 LINE",
"60 128 LINE",
"60 0 LINE",
"600 0 LINE",
"600 128 LINE",
"235 128 LINE"
);
}
);
width = 660;
},
{
associatedMasterId = "0DA27741-1AFD-43F2-A947-40AFBF8D6498";
layerId = "A2873047-0ED6-4C67-9B4D-3870B51BD5C6";
width = 600;
},
{
associatedMasterId = "0DA27741-1AFD-43F2-A947-40AFBF8D6498";
layerId = "55314CA7-5524-4D70-B802-98D4FAE25636";
width = 600;
},
{
associatedMasterId = "0DA27741-1AFD-43F2-A947-40AFBF8D6498";
layerId = "13A3DD5D-E91B-4961-8595-F8141D3FA442";
width = 600;
}
);
leftKerningGroup = Z;
note = Z;
rightKerningGroup = Z;
unicode = 005A;
},
{
glyphname = a;
lastChange = "2018-07-29 15:39:27 +0000";
layers = (
{
layerId = "CAA188E2-8C62-414B-93AE-B576BEB044DB";
paths = (
{
closed = 1;
nodes = (
"482 338 LINE",
"482 399 OFFCURVE",
"469 468 OFFCURVE",
"421 508 CURVE SMOOTH",
"388 538 OFFCURVE",
"339 555 OFFCURVE",
"288 555 CURVE SMOOTH",
"207 555 OFFCURVE",
"132 535 OFFCURVE",
"77 461 CURVE",
"110 432 LINE",
"164 505 OFFCURVE",
"220 513 OFFCURVE",
"280 513 CURVE SMOOTH",
"368 513 OFFCURVE",
"440 467 OFFCURVE",
"437 356 CURVE",
"301 334 OFFCURVE",
"200 327 OFFCURVE",
"135 292 CURVE SMOOTH",
"68 256 OFFCURVE",
"40 213 OFFCURVE",
"40 146 CURVE SMOOTH",
"40 46 OFFCURVE",
"117 -15 OFFCURVE",
"217 -15 CURVE SMOOTH",
"314 -15 OFFCURVE",
"398 18 OFFCURVE",
"443 98 CURVE",
"443 0 LINE",
"482 0 LINE"
);
},
{
closed = 1;
nodes = (
"380 61 OFFCURVE",
"309 27 OFFCURVE",
"218 27 CURVE SMOOTH",
"140 27 OFFCURVE",
"84 75 OFFCURVE",
"84 151 CURVE SMOOTH",
"84 220 OFFCURVE",
"147 265 OFFCURVE",
"228 282 CURVE SMOOTH",
"253 288 OFFCURVE",
"322 298 OFFCURVE",
"440 315 CURVE",
"440 225 OFFCURVE",
"439 181 OFFCURVE",
"416 134 CURVE"
);
}
);
width = 542;
},
{
layerId = "0DA27741-1AFD-43F2-A947-40AFBF8D6498";
paths = (
{
closed = 1;
nodes = (
"523 322 LINE",
"523 390 OFFCURVE",
"505 451 OFFCURVE",
"452 496 CURVE SMOOTH",
"413 529 OFFCURVE",
"353 555 OFFCURVE",
"294 555 CURVE SMOOTH",
"197 555 OFFCURVE",
"128 520 OFFCURVE",
"71 466 CURVE",
"149 376 LINE",
"184 407 OFFCURVE",
"231 427 OFFCURVE",
"284 427 CURVE SMOOTH",
"346 427 OFFCURVE",
"379 399 OFFCURVE",
"388 360 CURVE",
"317 350 OFFCURVE",
"203 338 OFFCURVE",
"135 307 CURVE SMOOTH",
"67 276 OFFCURVE",
"40 222 OFFCURVE",
"40 152 CURVE SMOOTH",
"40 51 OFFCURVE",
"109 -15 OFFCURVE",
"218 -15 CURVE SMOOTH",
"301 -15 OFFCURVE",
"350 4 OFFCURVE",
"404 66 CURVE",
"404 0 LINE",
"523 0 LINE"
);
},
{
closed = 1;
nodes = (
"346 124 OFFCURVE",
"303 98 OFFCURVE",
"251 98 CURVE SMOOTH",
"207 98 OFFCURVE",
"174 125 OFFCURVE",
"174 162 CURVE SMOOTH",
"174 198 OFFCURVE",
"211 217 OFFCURVE",
"252 226 CURVE SMOOTH",
"303 237 OFFCURVE",
"356 248 OFFCURVE",
"388 254 CURVE",
"388 226 OFFCURVE",
"389 189 OFFCURVE",
"370 160 CURVE SMOOTH"
);
}
);
width = 583;
},
{
associatedMasterId = "0DA27741-1AFD-43F2-A947-40AFBF8D6498";
layerId = "A2873047-0ED6-4C67-9B4D-3870B51BD5C6";
width = 600;
},
{
associatedMasterId = "0DA27741-1AFD-43F2-A947-40AFBF8D6498";
layerId = "55314CA7-5524-4D70-B802-98D4FAE25636";
width = 535;
},
{
associatedMasterId = "0DA27741-1AFD-43F2-A947-40AFBF8D6498";
layerId = "13A3DD5D-E91B-4961-8595-F8141D3FA442";
width = 590;
}
);
leftKerningGroup = a;
note = a;
rightKerningGroup = a;
rightMetricsKey = n;
unicode = 0061;
},
{
glyphname = ae;
lastChange = "2018-07-29 15:03:39 +0000";
layers = (
{
components = (
{
alignment = -1;
name = e;
transform = "{0.945, 0, 0, 1, 420, 0}";
}
);
layerId = "CAA188E2-8C62-414B-93AE-B576BEB044DB";
paths = (
{
closed = 1;
nodes = (
"106 427 OFFCURVE",
"111 436 OFFCURVE",
"117 443 CURVE",
"155 490 OFFCURVE",
"211 513 OFFCURVE",
"271 512 CURVE SMOOTH",
"321 512 OFFCURVE",
"372 498 OFFCURVE",
"405 468 CURVE",
"443 433 OFFCURVE",
"458 390 OFFCURVE",
"459 300 CURVE",
"348 300 LINE SMOOTH",
"284 300 OFFCURVE",
"231 300 OFFCURVE",
"182 294 CURVE",
"122 286 OFFCURVE",
"74 258 OFFCURVE",
"54 209 CURVE",
"33 159 OFFCURVE",
"34 108 OFFCURVE",
"66 62 CURVE",
"93 15 OFFCURVE",
"147 -6 OFFCURVE",
"204 -13 CURVE",
"255 -16 OFFCURVE",
"309 -9 OFFCURVE",
"356 14 CURVE",
"403 37 OFFCURVE",
"441 74 OFFCURVE",
"466 123 CURVE",
"489 169 OFFCURVE",
"500 214 OFFCURVE",
"500 264 CURVE",
"501 338 LINE",
"501 397 OFFCURVE",
"482 457 OFFCURVE",
"434 501 CURVE",
"387 542 OFFCURVE",
"326 554 OFFCURVE",
"270 554 CURVE SMOOTH",
"197 554 OFFCURVE",
"126 526 OFFCURVE",
"82 469 CURVE",
"75 460 OFFCURVE",
"68 449 OFFCURVE",
"62 439 CURVE",
"102 420 LINE"
);
},
{
closed = 1;
nodes = (
"457 217 OFFCURVE",
"447 177 OFFCURVE",
"429 142 CURVE",
"411 107 OFFCURVE",
"375 68 OFFCURVE",
"338 49 CURVE",
"300 30 OFFCURVE",
"254 22 OFFCURVE",
"209 26 CURVE",
"173 29 OFFCURVE",
"126 50 OFFCURVE",
"103 85 CURVE",
"81 118 OFFCURVE",
"80 161 OFFCURVE",
"96 194 CURVE",
"112 227 OFFCURVE",
"142 249 OFFCURVE",
"188 255 CURVE",
"219 259 OFFCURVE",
"290 260 OFFCURVE",
"367 260 CURVE SMOOTH",
"458 260 LINE"
);
}
);
width = 964;
},
{
components = (
{
alignment = -1;
name = e;
transform = "{0.945, 0, 0, 1, 357, 0}";
}
);
layerId = "0DA27741-1AFD-43F2-A947-40AFBF8D6498";
paths = (
{
closed = 1;
nodes = (
"187 392 OFFCURVE",
"196 403 OFFCURVE",
"209 411 CURVE",
"227 424 OFFCURVE",
"249 428 OFFCURVE",
"274 428 CURVE SMOOTH",
"303 428 OFFCURVE",
"331 424 OFFCURVE",
"354 411 CURVE",
"381 397 OFFCURVE",
"397 370 OFFCURVE",
"397 339 CURVE",
"308 339 LINE SMOOTH",
"224 339 OFFCURVE",
"186 334 OFFCURVE",
"135 309 CURVE",
"106 295 OFFCURVE",
"72 263 OFFCURVE",
"53 221 CURVE",
"29 166 OFFCURVE",
"40 105 OFFCURVE",
"72 60 CURVE",
"91 33 OFFCURVE",
"120 12 OFFCURVE",
"153 -1 CURVE",
"200 -19 OFFCURVE",
"286 -19 OFFCURVE",
"345 7 CURVE",
"381 23 OFFCURVE",
"412 48 OFFCURVE",
"440 84 CURVE",
"473 127 OFFCURVE",
"520 179 OFFCURVE",
"533 277 CURVE",
"533 339 LINE",
"533 420 OFFCURVE",
"487 489 OFFCURVE",
"419 525 CURVE",
"365 550 OFFCURVE",
"319 554 OFFCURVE",
"278 554 CURVE SMOOTH",
"191 554 OFFCURVE",
"113 523 OFFCURVE",
"67 456 CURVE",
"63 451 OFFCURVE",
"59 445 OFFCURVE",
"56 440 CURVE",
"180 381 LINE"
);
},
{
closed = 1;
nodes = (
"388 201 OFFCURVE",
"384 182 OFFCURVE",
"367 162 CURVE",
"352 144 OFFCURVE",
"332 132 OFFCURVE",
"309 123 CURVE",
"284 113 OFFCURVE",
"249 107 OFFCURVE",
"232 110 CURVE",
"218 111 OFFCURVE",
"198 118 OFFCURVE",
"185 134 CURVE",
"170 153 OFFCURVE",
"173 178 OFFCURVE",
"182 190 CURVE",
"195 207 OFFCURVE",
"225 219 OFFCURVE",
"251 221 CURVE",
"278 223 OFFCURVE",
"304 222 OFFCURVE",
"333 222 CURVE SMOOTH",
"395 222 LINE"
);
}
);
width = 940;
},
{
associatedMasterId = "0DA27741-1AFD-43F2-A947-40AFBF8D6498";
layerId = "A2873047-0ED6-4C67-9B4D-3870B51BD5C6";
width = 600;
},
{
associatedMasterId = "0DA27741-1AFD-43F2-A947-40AFBF8D6498";
layerId = "55314CA7-5524-4D70-B802-98D4FAE25636";
width = 1029;
},
{
associatedMasterId = "0DA27741-1AFD-43F2-A947-40AFBF8D6498";
layerId = "13A3DD5D-E91B-4961-8595-F8141D3FA442";
width = 669;
}
);
leftKerningGroup = a;
leftMetricsKey = a;
rightKerningGroup = e;
rightMetricsKey = e;
unicode = 00E6;
},
{
glyphname = c;
lastChange = "2018-01-03 04:26:04 +0000";
layers = (
{
layerId = "CAA188E2-8C62-414B-93AE-B576BEB044DB";
paths = (
{
closed = 1;
nodes = (
"497 438 OFFCURVE",
"487 454 OFFCURVE",
"476 469 CURVE",
"430 527 OFFCURVE",
"363 555 OFFCURVE",
"287 555 CURVE SMOOTH",
"210 555 OFFCURVE",
"144 528 OFFCURVE",
"98 469 CURVE",
"53 410 OFFCURVE",
"41 338 OFFCURVE",
"40 270 CURVE SMOOTH",
"41 203 OFFCURVE",
"53 130 OFFCURVE",
"98 72 CURVE",
"143 13 OFFCURVE",
"211 -15 OFFCURVE",
"287 -15 CURVE SMOOTH",
"363 -15 OFFCURVE",
"431 13 OFFCURVE",
"476 72 CURVE",
"487 86 OFFCURVE",
"496 101 OFFCURVE",
"504 117 CURVE",
"463 135 LINE",
"457 122 OFFCURVE",
"450 109 OFFCURVE",
"441 98 CURVE",
"406 51 OFFCURVE",
"348 27 OFFCURVE",
"287 27 CURVE SMOOTH",
"226 27 OFFCURVE",
"168 51 OFFCURVE",
"133 98 CURVE",
"97 145 OFFCURVE",
"86 208 OFFCURVE",
"85 270 CURVE SMOOTH",
"86 332 OFFCURVE",
"97 395 OFFCURVE",
"133 442 CURVE",
"168 490 OFFCURVE",
"226 514 OFFCURVE",
"287 513 CURVE SMOOTH",
"348 514 OFFCURVE",
"406 490 OFFCURVE",
"441 442 CURVE",
"450 430 OFFCURVE",
"458 418 OFFCURVE",
"464 404 CURVE",
"504 421 LINE"
);
}
);
width = 539;
},
{
layerId = "0DA27741-1AFD-43F2-A947-40AFBF8D6498";
paths = (
{
closed = 1;
nodes = (
"541 435 OFFCURVE",
"531 450 OFFCURVE",
"519 465 CURVE",
"469 524 OFFCURVE",
"392 555 OFFCURVE",
"312 555 CURVE SMOOTH",
"235 555 OFFCURVE",
"158 527 OFFCURVE",
"106 465 CURVE",
"61 410 OFFCURVE",
"40 343 OFFCURVE",
"40 270 CURVE SMOOTH",
"40 197 OFFCURVE",
"61 130 OFFCURVE",
"106 76 CURVE",
"156 16 OFFCURVE",
"233 -16 OFFCURVE",
"312 -14 CURVE SMOOTH",
"391 -16 OFFCURVE",
"469 17 OFFCURVE",
"519 76 CURVE",
"531 90 OFFCURVE",
"540 105 OFFCURVE",
"549 120 CURVE",
"421 175 LINE",
"418 169 OFFCURVE",
"415 164 OFFCURVE",
"411 158 CURVE",
"389 128 OFFCURVE",
"352 113 OFFCURVE",
"312 113 CURVE SMOOTH",
"273 113 OFFCURVE",
"236 128 OFFCURVE",
"214 158 CURVE",
"191 188 OFFCURVE",
"184 229 OFFCURVE",
"183 270 CURVE SMOOTH",
"184 311 OFFCURVE",
"191 352 OFFCURVE",
"214 382 CURVE",
"236 412 OFFCURVE",
"273 428 OFFCURVE",
"312 428 CURVE SMOOTH",
"352 428 OFFCURVE",
"389 412 OFFCURVE",
"411 382 CURVE",
"415 377 OFFCURVE",
"419 370 OFFCURVE",
"422 364 CURVE",
"549 419 LINE"
);
}
);
width = 584;
},
{
associatedMasterId = "0DA27741-1AFD-43F2-A947-40AFBF8D6498";
layerId = "A2873047-0ED6-4C67-9B4D-3870B51BD5C6";
width = 600;
},
{
associatedMasterId = "0DA27741-1AFD-43F2-A947-40AFBF8D6498";
layerId = "55314CA7-5524-4D70-B802-98D4FAE25636";
width = 566;
},
{
associatedMasterId = "0DA27741-1AFD-43F2-A947-40AFBF8D6498";
layerId = "13A3DD5D-E91B-4961-8595-F8141D3FA442";
width = 595;
}
);
leftKerningGroup = o;
leftMetricsKey = o;
note = c;
rightKerningGroup = c;
unicode = 0063;
},
{
glyphname = eth;
lastChange = "2018-07-10 06:02:46 +0000";
layers = (
{
layerId = "CAA188E2-8C62-414B-93AE-B576BEB044DB";
paths = (
{
closed = 1;
nodes = (
"533 421 OFFCURVE",
"527 497 OFFCURVE",
"488 572 CURVE",
"440 670 OFFCURVE",
"352 726 OFFCURVE",
"235 733 CURVE",
"230 692 LINE",
"329 685 OFFCURVE",
"407 640 OFFCURVE",
"450 553 CURVE",
"469 514 OFFCURVE",
"480 470 OFFCURVE",
"485 425 CURVE",
"481 431 OFFCURVE",
"477 437 OFFCURVE",
"472 442 CURVE",
"426 497 OFFCURVE",
"353 520 OFFCURVE",
"287 519 CURVE SMOOTH",
"220 520 OFFCURVE",
"148 497 OFFCURVE",
"101 442 CURVE",
"55 389 OFFCURVE",
"41 318 OFFCURVE",
"40 252 CURVE SMOOTH",
"41 187 OFFCURVE",
"55 116 OFFCURVE",
"101 62 CURVE",
"148 8 OFFCURVE",
"220 -16 OFFCURVE",
"287 -15 CURVE SMOOTH",
"353 -16 OFFCURVE",
"426 8 OFFCURVE",
"472 62 CURVE",
"514 111 OFFCURVE",
"533 181 OFFCURVE",
"533 253 CURVE"
);
},
{
closed = 1;
nodes = (
"488 193 OFFCURVE",
"475 133 OFFCURVE",
"439 90 CURVE",
"403 47 OFFCURVE",
"345 27 OFFCURVE",
"287 27 CURVE SMOOTH",
"228 27 OFFCURVE",
"170 47 OFFCURVE",
"134 90 CURVE",
"98 133 OFFCURVE",
"85 193 OFFCURVE",
"85 252 CURVE SMOOTH",
"85 311 OFFCURVE",
"98 372 OFFCURVE",
"134 414 CURVE",
"170 457 OFFCURVE",
"228 478 OFFCURVE",
"287 477 CURVE SMOOTH",
"345 478 OFFCURVE",
"403 457 OFFCURVE",
"439 414 CURVE",
"475 372 OFFCURVE",
"488 312 OFFCURVE",
"488 253 CURVE SMOOTH"
);
},
{
closed = 1;
nodes = (
"442 756 LINE",
"409 782 LINE",
"270 605 LINE",
"303 579 LINE"
);
}
);
width = 573;
},
{
layerId = "0DA27741-1AFD-43F2-A947-40AFBF8D6498";
paths = (
{
closed = 1;
nodes = (
"561 408 OFFCURVE",
"547 545 OFFCURVE",
"460 652 CURVE SMOOTH",
"399 727 OFFCURVE",
"314 757 OFFCURVE",
"222 760 CURVE",
"201 657 LINE",
"279 652 OFFCURVE",
"336 617 OFFCURVE",
"384 572 CURVE SMOOTH",
"419 539 OFFCURVE",
"429 510 OFFCURVE",
"433 483 CURVE",
"429 485 OFFCURVE",
"410 496 OFFCURVE",
"400 501 CURVE SMOOTH",
"366 518 OFFCURVE",
"331 518 OFFCURVE",
"301 518 CURVE SMOOTH",
"226 518 OFFCURVE",
"154 491 OFFCURVE",
"107 437 CURVE",
"61 388 OFFCURVE",
"40 322 OFFCURVE",
"40 251 CURVE SMOOTH",
"40 181 OFFCURVE",
"62 114 OFFCURVE",
"107 65 CURVE",
"153 14 OFFCURVE",
"223 -15 OFFCURVE",
"301 -15 CURVE SMOOTH",
"378 -15 OFFCURVE",
"453 2 OFFCURVE",
"494 65 CURVE",
"540 115 OFFCURVE",
"561 182 OFFCURVE",
"561 255 CURVE SMOOTH"
);
},
{
closed = 1;
nodes = (
"373 119 OFFCURVE",
"338 105 OFFCURVE",
"301 105 CURVE SMOOTH",
"263 105 OFFCURVE",
"228 119 OFFCURVE",
"206 146 CURVE",
"183 173 OFFCURVE",
"176 212 OFFCURVE",
"176 252 CURVE SMOOTH",
"176 292 OFFCURVE",
"183 330 OFFCURVE",
"206 358 CURVE",
"228 384 OFFCURVE",
"263 398 OFFCURVE",
"301 398 CURVE SMOOTH",
"338 398 OFFCURVE",
"373 384 OFFCURVE",
"394 358 CURVE",
"417 330 OFFCURVE",
"425 292 OFFCURVE",
"425 252 CURVE SMOOTH",
"425 212 OFFCURVE",
"417 173 OFFCURVE",
"394 146 CURVE"
);
},
{
closed = 1;
nodes = (
"488 742 LINE",
"405 807 LINE",
"239 596 LINE",
"322 531 LINE"
);
}
);
width = 601;
},
{
associatedMasterId = "0DA27741-1AFD-43F2-A947-40AFBF8D6498";
layerId = "A2873047-0ED6-4C67-9B4D-3870B51BD5C6";
width = 600;
},
{
associatedMasterId = "0DA27741-1AFD-43F2-A947-40AFBF8D6498";
layerId = "55314CA7-5524-4D70-B802-98D4FAE25636";
width = 585;
},
{
associatedMasterId = "0DA27741-1AFD-43F2-A947-40AFBF8D6498";
layerId = "13A3DD5D-E91B-4961-8595-F8141D3FA442";
width = 598;
}
);
leftKerningGroup = d;
leftMetricsKey = d;
rightKerningGroup = b;
rightMetricsKey = b;
unicode = 00F0;
},
{
glyphname = e;
lastChange = "2018-07-25 11:12:14 +0000";
layers = (
{
layerId = "CAA188E2-8C62-414B-93AE-B576BEB044DB";
paths = (
{
closed = 1;
nodes = (
"442 61 OFFCURVE",
"367 27 OFFCURVE",
"287 27 CURVE SMOOTH",
"226 27 OFFCURVE",
"167 51 OFFCURVE",
"132 98 CURVE",
"97 145 OFFCURVE",
"85 208 OFFCURVE",
"85 270 CURVE SMOOTH",
"85 332 OFFCURVE",
"97 395 OFFCURVE",
"132 442 CURVE",
"167 489 OFFCURVE",
"226 514 OFFCURVE",
"287 513 CURVE SMOOTH",
"347 514 OFFCURVE",
"406 489 OFFCURVE",
"441 442 CURVE",
"477 395 OFFCURVE",
"488 332 OFFCURVE",
"488 258 CURVE",
"533 258 LINE",
"533 335 OFFCURVE",
"519 412 OFFCURVE",
"476 469 CURVE",
"430 527 OFFCURVE",
"363 555 OFFCURVE",
"287 555 CURVE SMOOTH",
"211 555 OFFCURVE",
"144 527 OFFCURVE",
"98 469 CURVE",
"53 410 OFFCURVE",
"40 338 OFFCURVE",
"40 270 CURVE SMOOTH",
"40 203 OFFCURVE",
"53 130 OFFCURVE",
"98 72 CURVE",
"142 15 OFFCURVE",
"212 -15 OFFCURVE",
"287 -15 CURVE SMOOTH",
"381 -15 OFFCURVE",
"471 25 OFFCURVE",
"520 129 CURVE",
"485 149 LINE"
);
},
{
closed = 1;
nodes = (
"67 258 LINE",
"507 258 LINE",
"507 300 LINE",
"67 300 LINE"
);
}
);
width = 573;
},
{
layerId = "0DA27741-1AFD-43F2-A947-40AFBF8D6498";
paths = (
{
closed = 1;
nodes = (
"419 129 OFFCURVE",
"382 102 OFFCURVE",
"313 102 CURVE SMOOTH",
"271 102 OFFCURVE",
"231 119 OFFCURVE",
"208 151 CURVE",
"183 183 OFFCURVE",
"176 226 OFFCURVE",
"176 270 CURVE SMOOTH",
"176 314 OFFCURVE",
"183 358 OFFCURVE",
"208 390 CURVE",
"231 422 OFFCURVE",
"271 438 OFFCURVE",
"313 438 CURVE SMOOTH",
"356 438 OFFCURVE",
"395 422 OFFCURVE",
"418 390 CURVE",
"447 352 OFFCURVE",
"456 289 OFFCURVE",
"448.86 233 CURVE",
"584 233 LINE",
"591 318 OFFCURVE",
"575 399 OFFCURVE",
"520 465 CURVE SMOOTH",
"470 525 OFFCURVE",
"393 555 OFFCURVE",
"313 555 CURVE SMOOTH",
"233 555 OFFCURVE",
"156 524 OFFCURVE",
"106 465 CURVE SMOOTH",
"63 413 OFFCURVE",
"40 341 OFFCURVE",
"40 263 CURVE SMOOTH",
"40 194 OFFCURVE",
"62 129 OFFCURVE",
"106 75 CURVE SMOOTH",
"155 16 OFFCURVE",
"239 -15 OFFCURVE",
"321 -15 CURVE SMOOTH",
"432 -15 OFFCURVE",
"509 36 OFFCURVE",
"557 102 CURVE",
"459 170 LINE"
);
},
{
closed = 1;
nodes = (
"142 233 LINE",
"500 233 LINE",
"500 338 LINE",
"142 338 LINE"
);
}
);
width = 616;
},
{
associatedMasterId = "0DA27741-1AFD-43F2-A947-40AFBF8D6498";
layerId = "A2873047-0ED6-4C67-9B4D-3870B51BD5C6";
width = 600;
},
{
associatedMasterId = "0DA27741-1AFD-43F2-A947-40AFBF8D6498";
layerId = "55314CA7-5524-4D70-B802-98D4FAE25636";
width = 584;
},
{
associatedMasterId = "0DA27741-1AFD-43F2-A947-40AFBF8D6498";
layerId = "13A3DD5D-E91B-4961-8595-F8141D3FA442";
width = 597;
}
);
leftKerningGroup = o;
leftMetricsKey = o;
note = e;
rightKerningGroup = e;
unicode = 0065;
},
{
glyphname = eogonek;
lastChange = "2018-07-29 15:00:21 +0000";
layers = (
{
components = (
{
name = e;
}
);
layerId = "CAA188E2-8C62-414B-93AE-B576BEB044DB";
paths = (
{
closed = 1;
nodes = (
"474 118 LINE",
"445 52 OFFCURVE",
"375 -13 OFFCURVE",
"355 -40 CURVE",
"335 -66 OFFCURVE",
"319 -94 OFFCURVE",
"311 -123 CURVE SMOOTH",
"301 -159 OFFCURVE",
"306 -191 OFFCURVE",
"330 -215 CURVE SMOOTH",
"353 -238 OFFCURVE",
"390 -247 OFFCURVE",
"426 -232 CURVE SMOOTH",
"444 -224 OFFCURVE",
"459 -213 OFFCURVE",
"471 -201 CURVE",
"445 -172 LINE",
"421 -194 OFFCURVE",
"386 -212 OFFCURVE",
"359 -185 CURVE SMOOTH",
"345 -171 OFFCURVE",
"346 -153 OFFCURVE",
"351 -134 CURVE SMOOTH",
"358 -108 OFFCURVE",
"375 -81 OFFCURVE",
"392 -56 CURVE",
"408 -33 OFFCURVE",
"488 59 OFFCURVE",
"516 121 CURVE"
);
}
);
width = 573;
},
{
components = (
{
name = e;
}
);
layerId = "0DA27741-1AFD-43F2-A947-40AFBF8D6498";
paths = (
{
closed = 1;
nodes = (
"472 116 LINE",
"447 89 OFFCURVE",
"419 46 OFFCURVE",
"405 24 CURVE SMOOTH",
"391 2 OFFCURVE",
"368 -32 OFFCURVE",
"355 -62 CURVE SMOOTH",
"335 -108 OFFCURVE",
"344 -162 OFFCURVE",
"370 -195 CURVE SMOOTH",
"401 -235 OFFCURVE",
"459 -251 OFFCURVE",
"506 -230 CURVE SMOOTH",
"528 -220 OFFCURVE",
"544 -205 OFFCURVE",
"554 -187 CURVE",
"507 -125 LINE",
"491 -138 OFFCURVE",
"465 -145 OFFCURVE",
"453 -131 CURVE SMOOTH",
"444 -121 OFFCURVE",
"447 -103 OFFCURVE",
"449 -97 CURVE SMOOTH",
"455 -78 OFFCURVE",
"467 -50 OFFCURVE",
"485 -18 CURVE SMOOTH",
"503 14 OFFCURVE",
"526 53 OFFCURVE",
"557 102 CURVE"
);
}
);
width = 616;
},
{
associatedMasterId = "0DA27741-1AFD-43F2-A947-40AFBF8D6498";
layerId = "A2873047-0ED6-4C67-9B4D-3870B51BD5C6";
width = 600;
},
{
associatedMasterId = "0DA27741-1AFD-43F2-A947-40AFBF8D6498";
layerId = "55314CA7-5524-4D70-B802-98D4FAE25636";
width = 584;
},
{
associatedMasterId = "0DA27741-1AFD-43F2-A947-40AFBF8D6498";
layerId = "13A3DD5D-E91B-4961-8595-F8141D3FA442";
width = 597;
}
);
leftKerningGroup = e;
leftMetricsKey = e;
rightKerningGroup = e;
rightMetricsKey = e;
unicode = 0119;
},
{
glyphname = f;
lastChange = "2018-07-13 09:36:55 +0000";
layers = (
{
layerId = "CAA188E2-8C62-414B-93AE-B576BEB044DB";
paths = (
{
closed = 1;
nodes = (
"138 0 LINE",
"138 593 LINE",
"138 639 OFFCURVE",
"152 678 OFFCURVE",
"187 705 CURVE",
"232 735 OFFCURVE",
"284 737 OFFCURVE",
"339 732 CURVE",
"339 693 LINE",
"309 697 OFFCURVE",
"280 697 OFFCURVE",
"253 690 CURVE",
"203 679 OFFCURVE",
"180 649 OFFCURVE",
"180 593 CURVE",
"180 0 LINE"
);
},
{
closed = 1;
nodes = (
"339 540 LINE",
"339 498 LINE",
"10 498 LINE",
"10 540 LINE"
);
}
);
width = 349;
},
{
layerId = "0DA27741-1AFD-43F2-A947-40AFBF8D6498";
paths = (
{
closed = 1;
nodes = (
"122 0 LINE",
"122 528 LINE SMOOTH",
"122 569 OFFCURVE",
"129 633 OFFCURVE",
"172 679 CURVE",
"229 737 OFFCURVE",
"314 742 OFFCURVE",
"402 733 CURVE",
"402 616 LINE",
"377 620 OFFCURVE",
"347 621 OFFCURVE",
"323 617 CURVE",
"269 609 OFFCURVE",
"258 580 OFFCURVE",
"258 540 CURVE SMOOTH",
"258 0 LINE"
);
},
{
closed = 1;
nodes = (
"402 540 LINE",
"402 435 LINE",
"10 435 LINE",
"10 540 LINE"
);
}
);
width = 412;
},
{
associatedMasterId = "0DA27741-1AFD-43F2-A947-40AFBF8D6498";
layerId = "A2873047-0ED6-4C67-9B4D-3870B51BD5C6";
width = 600;
},
{
associatedMasterId = "0DA27741-1AFD-43F2-A947-40AFBF8D6498";
layerId = "55314CA7-5524-4D70-B802-98D4FAE25636";
width = 298;
},
{
associatedMasterId = "0DA27741-1AFD-43F2-A947-40AFBF8D6498";
layerId = "13A3DD5D-E91B-4961-8595-F8141D3FA442";
width = 552;
}
);
leftKerningGroup = f;
note = f;
rightKerningGroup = f;
unicode = 0066;
},
{
glyphname = g;
lastChange = "2018-07-13 09:37:02 +0000";
layers = (
{
components = (
{
name = "oval-inner";
}
);
layerId = "CAA188E2-8C62-414B-93AE-B576BEB044DB";
paths = (
{
closed = 1;
nodes = (
"487 540 LINE",
"487 168 LINE",
"483 168 LINE",
"483 30 LINE",
"483 -75 OFFCURVE",
"475 -121 OFFCURVE",
"427 -163 CURVE",
"387 -198 OFFCURVE",
"331 -212 OFFCURVE",
"276 -212 CURVE SMOOTH",
"214 -212 OFFCURVE",
"154 -188 OFFCURVE",
"118 -140 CURVE",
"112.307 -132.68 OFFCURVE",
"107.275 -124.699 OFFCURVE",
"102.771 -116.325 CURVE",
"64.191 -135.003 LINE",
"69.807 -145.623 OFFCURVE",
"76.286 -156.017 OFFCURVE",
"84 -166 CURVE",
"129 -226 OFFCURVE",
"199 -255 OFFCURVE",
"276 -255 CURVE SMOOTH",
"338 -255 OFFCURVE",
"404 -239 OFFCURVE",
"455 -195 CURVE",
"513 -144 OFFCURVE",
"526 -91 OFFCURVE",
"526 30 CURVE",
"526 540 LINE"
);
}
);
width = 596;
},
{
components = (
{
name = "oval-inner";
}
);
layerId = "0DA27741-1AFD-43F2-A947-40AFBF8D6498";
paths = (
{
closed = 1;
nodes = (
"445 540 LINE",
"445 122 LINE",
"428 122 LINE",
"428 -35 LINE",
"429 -63 OFFCURVE",
"420 -83 OFFCURVE",
"395 -102 CURVE",
"375 -117 OFFCURVE",
"343 -126 OFFCURVE",
"312 -126 CURVE SMOOTH",
"295 -126 OFFCURVE",
"268 -121 OFFCURVE",
"251 -109 CURVE",
"239 -100 OFFCURVE",
"229 -90 OFFCURVE",
"222 -77 CURVE",
"96 -138 LINE",
"119 -178 OFFCURVE",
"159 -211 OFFCURVE",
"198 -230 CURVE",
"230 -244 OFFCURVE",
"276 -254 OFFCURVE",
"311 -254 CURVE SMOOTH",
"358 -254 OFFCURVE",
"408 -247 OFFCURVE",
"463 -216 CURVE",
"530 -178 OFFCURVE",
"564 -112 OFFCURVE",
"564 -37 CURVE",
"564 540 LINE"
);
}
);
width = 634;
},
{
associatedMasterId = "0DA27741-1AFD-43F2-A947-40AFBF8D6498";
layerId = "A2873047-0ED6-4C67-9B4D-3870B51BD5C6";
width = 600;
},
{
associatedMasterId = "0DA27741-1AFD-43F2-A947-40AFBF8D6498";
layerId = "55314CA7-5524-4D70-B802-98D4FAE25636";
width = 575;
},
{
associatedMasterId = "0DA27741-1AFD-43F2-A947-40AFBF8D6498";
layerId = "13A3DD5D-E91B-4961-8595-F8141D3FA442";
width = 596;
}
);
leftKerningGroup = g;
leftMetricsKey = o;
note = g;
rightKerningGroup = g;
rightMetricsKey = u;
unicode = 0067;
},
{
glyphname = i;
lastChange = "2018-07-13 09:36:29 +0000";
layers = (
{
components = (
{
name = idotless;
}
);
layerId = "CAA188E2-8C62-414B-93AE-B576BEB044DB";
paths = (
{
closed = 1;
nodes = (
"80 646 LINE",
"122 646 LINE",
"122 710 LINE",
"80 710 LINE"
);
}
);
width = 202;
},
{
components = (
{
name = idotless;
}
);
layerId = "0DA27741-1AFD-43F2-A947-40AFBF8D6498";
paths = (
{
closed = 1;
nodes = (
"80 615 LINE",
"216 615 LINE",
"216 735 LINE",
"80 735 LINE"
);
}
);
width = 296;
},
{
associatedMasterId = "0DA27741-1AFD-43F2-A947-40AFBF8D6498";
layerId = "A2873047-0ED6-4C67-9B4D-3870B51BD5C6";
width = 600;
},
{
associatedMasterId = "0DA27741-1AFD-43F2-A947-40AFBF8D6498";
layerId = "55314CA7-5524-4D70-B802-98D4FAE25636";
width = 163;
},
{
associatedMasterId = "0DA27741-1AFD-43F2-A947-40AFBF8D6498";
layerId = "13A3DD5D-E91B-4961-8595-F8141D3FA442";
width = 530;
}
);
leftKerningGroup = i;
note = i;
unicode = 0069;
},
{
glyphname = idotless;
lastChange = "2018-06-29 15:15:08 +0000";
layers = (
{
layerId = "CAA188E2-8C62-414B-93AE-B576BEB044DB";
paths = (
{
closed = 1;
nodes = (
"80 0 LINE",
"122 0 LINE",
"122 540 LINE",
"80 540 LINE"
);
}
);
width = 202;
},
{
layerId = "0DA27741-1AFD-43F2-A947-40AFBF8D6498";
paths = (
{
closed = 1;
nodes = (
"80 0 LINE",
"216 0 LINE",
"216 540 LINE",
"80 540 LINE"
);
}
);
width = 296;
},
{
associatedMasterId = "0DA27741-1AFD-43F2-A947-40AFBF8D6498";
layerId = "A2873047-0ED6-4C67-9B4D-3870B51BD5C6";
width = 600;
},
{
associatedMasterId = "0DA27741-1AFD-43F2-A947-40AFBF8D6498";
layerId = "55314CA7-5524-4D70-B802-98D4FAE25636";
width = 163;
},
{
associatedMasterId = "0DA27741-1AFD-43F2-A947-40AFBF8D6498";
layerId = "13A3DD5D-E91B-4961-8595-F8141D3FA442";
width = 530;
}
);
leftKerningGroup = i;
rightKerningGroup = i;
unicode = 0131;
},
{
glyphname = j;
lastChange = "2018-07-13 09:37:16 +0000";
layers = (
{
layerId = "CAA188E2-8C62-414B-93AE-B576BEB044DB";
paths = (
{
closed = 1;
nodes = (
"28 -211 OFFCURVE",
"54 -203 OFFCURVE",
"70 -186 CURVE SMOOTH",
"106 -150 OFFCURVE",
"103 -104 OFFCURVE",
"103 -8 CURVE SMOOTH",
"103 540 LINE",
"145 540 LINE",
"145 -8 LINE SMOOTH",
"145 -106 OFFCURVE",
"152 -165 OFFCURVE",
"100 -217 CURVE SMOOTH",
"74 -243 OFFCURVE",
"37 -255 OFFCURVE",
"0 -255 CURVE",
"0 -212 LINE"
);
},
{
closed = 1;
nodes = (
"103 646 LINE",
"145 646 LINE",
"145 710 LINE",
"103 710 LINE"
);
}
);
width = 225;
},
{
layerId = "0DA27741-1AFD-43F2-A947-40AFBF8D6498";
paths = (
{
closed = 1;
nodes = (
"40 -116 OFFCURVE",
"62 -116 OFFCURVE",
"77 -97 CURVE SMOOTH",
"87 -85 OFFCURVE",
"95 -64 OFFCURVE",
"95 -30 CURVE SMOOTH",
"95 540 LINE",
"231 540 LINE",
"231 -30 LINE SMOOTH",
"231 -90 OFFCURVE",
"216 -140 OFFCURVE",
"189 -178 CURVE SMOOTH",
"154 -227 OFFCURVE",
"99 -255 OFFCURVE",
"30 -255 CURVE",
"30 -116 LINE"
);
},
{
closed = 1;
nodes = (
"95 600 LINE",
"231 600 LINE",
"231 720 LINE",
"95 720 LINE"
);
}
);
width = 311;
},
{
associatedMasterId = "0DA27741-1AFD-43F2-A947-40AFBF8D6498";
layerId = "A2873047-0ED6-4C67-9B4D-3870B51BD5C6";
width = 600;
},
{
associatedMasterId = "0DA27741-1AFD-43F2-A947-40AFBF8D6498";
layerId = "55314CA7-5524-4D70-B802-98D4FAE25636";
width = 189;
},
{
associatedMasterId = "0DA27741-1AFD-43F2-A947-40AFBF8D6498";
layerId = "13A3DD5D-E91B-4961-8595-F8141D3FA442";
width = 534;
}
);
note = j;
unicode = 006A;
},
{
glyphname = k;
lastChange = "2018-07-17 05:14:24 +0000";
layers = (
{
layerId = "CAA188E2-8C62-414B-93AE-B576BEB044DB";
paths = (
{
closed = 1;
nodes = (
"169 281 LINE",
"409 0 LINE",
"464 0 LINE",
"207 301 LINE",
"430 540 LINE",
"373 540 LINE",
"169 323 LINE",
"112 323 LINE",
"112 720 LINE",
"70 720 LINE",
"70 0 LINE",
"112 0 LINE",
"112 281 LINE"
);
}
);
width = 464;
},
{
layerId = "0DA27741-1AFD-43F2-A947-40AFBF8D6498";
paths = (
{
closed = 1;
nodes = (
"266 217 LINE",
"413 0 LINE",
"567 0 LINE",
"383 271 LINE",
"554 540 LINE",
"403 540 LINE",
"265 322 LINE",
"209 322 LINE",
"209 720 LINE",
"71 720 LINE",
"70 0 LINE",
"209 0 LINE",
"209 217 LINE"
);
}
);
width = 567;
},
{
associatedMasterId = "0DA27741-1AFD-43F2-A947-40AFBF8D6498";
layerId = "A2873047-0ED6-4C67-9B4D-3870B51BD5C6";
width = 600;
},
{
associatedMasterId = "0DA27741-1AFD-43F2-A947-40AFBF8D6498";
layerId = "55314CA7-5524-4D70-B802-98D4FAE25636";
width = 500;
},
{
associatedMasterId = "0DA27741-1AFD-43F2-A947-40AFBF8D6498";
layerId = "13A3DD5D-E91B-4961-8595-F8141D3FA442";
width = 584;
}
);
leftKerningGroup = k;
leftMetricsKey = n;
note = k;
rightKerningGroup = k;
unicode = 006B;
},
{
glyphname = l;
lastChange = "2018-05-19 13:05:00 +0000";
layers = (
{
layerId = "CAA188E2-8C62-414B-93AE-B576BEB044DB";
paths = (
{
closed = 1;
nodes = (
"70 735 LINE",
"112 735 LINE",
"112 0 LINE",
"70 0 LINE"
);
}
);
width = 182;
},
{
layerId = "0DA27741-1AFD-43F2-A947-40AFBF8D6498";
paths = (
{
closed = 1;
nodes = (
"70 735 LINE",
"206 735 LINE",
"206 0 LINE",
"70 0 LINE"
);
}
);
width = 276;
},
{
associatedMasterId = "0DA27741-1AFD-43F2-A947-40AFBF8D6498";
layerId = "A2873047-0ED6-4C67-9B4D-3870B51BD5C6";
width = 600;
},
{
associatedMasterId = "0DA27741-1AFD-43F2-A947-40AFBF8D6498";
layerId = "55314CA7-5524-4D70-B802-98D4FAE25636";
width = 163;
},
{
associatedMasterId = "0DA27741-1AFD-43F2-A947-40AFBF8D6498";
layerId = "13A3DD5D-E91B-4961-8595-F8141D3FA442";
width = 530;
}
);
leftKerningGroup = n;
leftMetricsKey = n;
note = l;
rightKerningGroup = u;
rightMetricsKey = u;
unicode = 006C;
},
{
glyphname = eng;
lastChange = "2018-07-29 15:00:42 +0000";
layers = (
{
components = (
{
name = n;
}
);
layerId = "CAA188E2-8C62-414B-93AE-B576BEB044DB";
paths = (
{
closed = 1;
nodes = (
"416 -179 OFFCURVE",
"433 -181 OFFCURVE",
"461 -178 CURVE",
"491 -172 OFFCURVE",
"513 -152 OFFCURVE",
"513 -95 CURVE SMOOTH",
"513 1 LINE",
"471 1 LINE",
"471 -55 LINE",
"471 -126 OFFCURVE",
"461 -143 OFFCURVE",
"396 -133 CURVE",
"396 -174 LINE"
);
}
);
width = 573;
},
{
components = (
{
name = n;
}
);
layerId = "0DA27741-1AFD-43F2-A947-40AFBF8D6498";
paths = (
{
closed = 1;
nodes = (
"382 -238 OFFCURVE",
"422 -244 OFFCURVE",
"471 -234 CURVE SMOOTH",
"537 -221 OFFCURVE",
"576 -167 OFFCURVE",
"576 -88 CURVE SMOOTH",
"576 2 LINE",
"438 2 LINE",
"438 -66 LINE",
"438 -147 OFFCURVE",
"377 -136 OFFCURVE",
"346 -134 CURVE",
"346 -229 LINE"
);
}
);
width = 636;
},
{
associatedMasterId = "0DA27741-1AFD-43F2-A947-40AFBF8D6498";
layerId = "A2873047-0ED6-4C67-9B4D-3870B51BD5C6";
width = 600;
},
{
associatedMasterId = "0DA27741-1AFD-43F2-A947-40AFBF8D6498";
layerId = "55314CA7-5524-4D70-B802-98D4FAE25636";
width = 564;
},
{
associatedMasterId = "0DA27741-1AFD-43F2-A947-40AFBF8D6498";
layerId = "13A3DD5D-E91B-4961-8595-F8141D3FA442";
width = 594;
}
);
leftKerningGroup = n;
leftMetricsKey = n;
rightKerningGroup = n;
rightMetricsKey = n;
unicode = 014B;
},
{
glyphname = o;
lastChange = "2018-07-16 06:27:32 +0000";
layers = (
{
layerId = "CAA188E2-8C62-414B-93AE-B576BEB044DB";
paths = (
{
closed = 1;
nodes = (
"364 -15 OFFCURVE",
"431 12 OFFCURVE",
"476 72 CURVE",
"521 130 OFFCURVE",
"534 202 OFFCURVE",
"534 271 CURVE SMOOTH",
"534 338 OFFCURVE",
"521 411 OFFCURVE",
"476 469 CURVE",
"432 527 OFFCURVE",
"362 555 OFFCURVE",
"287 555 CURVE SMOOTH",
"210 555 OFFCURVE",
"140 524 OFFCURVE",
"98 469 CURVE",
"53 411 OFFCURVE",
"40 338 OFFCURVE",
"40 271 CURVE SMOOTH",
"40 202 OFFCURVE",
"53 130 OFFCURVE",
"98 72 CURVE",
"143 13 OFFCURVE",
"211 -15 OFFCURVE",
"287 -15 CURVE SMOOTH"
);
},
{
closed = 1;
nodes = (
"407 51 OFFCURVE",
"348 27 OFFCURVE",
"287 27 CURVE SMOOTH",
"226 27 OFFCURVE",
"167 51 OFFCURVE",
"133 98 CURVE",
"97 145 OFFCURVE",
"85 208 OFFCURVE",
"85 271 CURVE SMOOTH",
"85 332 OFFCURVE",
"97 396 OFFCURVE",
"133 443 CURVE",
"167 490 OFFCURVE",
"226 513 OFFCURVE",
"287 513 CURVE SMOOTH",
"348 513 OFFCURVE",
"407 490 OFFCURVE",
"442 443 CURVE",
"478 396 OFFCURVE",
"489 332 OFFCURVE",
"489 271 CURVE SMOOTH",
"489 208 OFFCURVE",
"478 145 OFFCURVE",
"442 98 CURVE"
);
}
);
width = 574;
},
{
layerId = "0DA27741-1AFD-43F2-A947-40AFBF8D6498";
paths = (
{
closed = 1;
nodes = (
"394 -15 OFFCURVE",
"469 15 OFFCURVE",
"520 75 CURVE",
"566 132 OFFCURVE",
"587 193 OFFCURVE",
"587 270 CURVE SMOOTH",
"587 343 OFFCURVE",
"568 408 OFFCURVE",
"520 465 CURVE",
"470 525 OFFCURVE",
"393 555 OFFCURVE",
"313 555 CURVE SMOOTH",
"234 555 OFFCURVE",
"156 524 OFFCURVE",
"106 465 CURVE",
"63 413 OFFCURVE",
"40 346 OFFCURVE",
"40 270 CURVE SMOOTH",
"40 196 OFFCURVE",
"60 131 OFFCURVE",
"106 75 CURVE",
"156 16 OFFCURVE",
"233 -15 OFFCURVE",
"313 -15 CURVE SMOOTH"
);
},
{
closed = 1;
nodes = (
"390 128 OFFCURVE",
"353 112 OFFCURVE",
"313 112 CURVE SMOOTH",
"273 112 OFFCURVE",
"236 128 OFFCURVE",
"214 158 CURVE",
"191 188 OFFCURVE",
"184 229 OFFCURVE",
"184 270 CURVE SMOOTH",
"184 311 OFFCURVE",
"191 353 OFFCURVE",
"214 383 CURVE",
"236 413 OFFCURVE",
"273 428 OFFCURVE",
"313 428 CURVE SMOOTH",
"353 428 OFFCURVE",
"390 413 OFFCURVE",
"412 383 CURVE",
"435 353 OFFCURVE",
"443 311 OFFCURVE",
"443 270 CURVE SMOOTH",
"443 229 OFFCURVE",
"435 188 OFFCURVE",
"412 158 CURVE"
);
}
);
width = 627;
},
{
associatedMasterId = "0DA27741-1AFD-43F2-A947-40AFBF8D6498";
layerId = "A2873047-0ED6-4C67-9B4D-3870B51BD5C6";
width = 600;
},
{
associatedMasterId = "0DA27741-1AFD-43F2-A947-40AFBF8D6498";
layerId = "55314CA7-5524-4D70-B802-98D4FAE25636";
width = 589;
},
{
associatedMasterId = "0DA27741-1AFD-43F2-A947-40AFBF8D6498";
layerId = "13A3DD5D-E91B-4961-8595-F8141D3FA442";
width = 598;
}
);
leftKerningGroup = o;
note = o;
rightKerningGroup = o;
unicode = 006F;
},
{
glyphname = oslash;
lastChange = "2018-06-29 15:15:08 +0000";
layers = (
{
components = (
{
name = o;
}
);
layerId = "CAA188E2-8C62-414B-93AE-B576BEB044DB";
paths = (
{
closed = 1;
nodes = (
"558 511 LINE",
"528 540 LINE",
"16 30 LINE",
"46 0 LINE"
);
}
);
width = 574;
},
{
components = (
{
name = o;
}
);
layerId = "0DA27741-1AFD-43F2-A947-40AFBF8D6498";
paths = (
{
closed = 1;
nodes = (
"599 464 LINE",
"509 555 LINE",
"28 75 LINE",
"118 -15 LINE"
);
}
);
width = 627;
},
{
associatedMasterId = "0DA27741-1AFD-43F2-A947-40AFBF8D6498";
layerId = "A2873047-0ED6-4C67-9B4D-3870B51BD5C6";
width = 600;
},
{
associatedMasterId = "0DA27741-1AFD-43F2-A947-40AFBF8D6498";
layerId = "55314CA7-5524-4D70-B802-98D4FAE25636";
width = 588;
},
{
associatedMasterId = "0DA27741-1AFD-43F2-A947-40AFBF8D6498";
layerId = "13A3DD5D-E91B-4961-8595-F8141D3FA442";
width = 598;
}
);
leftKerningGroup = o;
rightKerningGroup = o;
unicode = 00F8;
},
{
glyphname = thorn;
lastChange = "2018-06-29 15:15:08 +0000";
layers = (
{
components = (
{
name = p;
}
);
layerId = "CAA188E2-8C62-414B-93AE-B576BEB044DB";
paths = (
{
closed = 1;
nodes = (
"70 391 LINE",
"112 391 LINE",
"112 720 LINE",
"70 720 LINE"
);
}
);
width = 596;
},
{
components = (
{
name = p;
}
);
layerId = "0DA27741-1AFD-43F2-A947-40AFBF8D6498";
paths = (
{
closed = 1;
nodes = (
"70 432 LINE",
"207 432 LINE",
"207 720 LINE",
"70 720 LINE"
);
}
);
width = 635;
},
{
associatedMasterId = "0DA27741-1AFD-43F2-A947-40AFBF8D6498";
layerId = "A2873047-0ED6-4C67-9B4D-3870B51BD5C6";
width = 600;
},
{
associatedMasterId = "0DA27741-1AFD-43F2-A947-40AFBF8D6498";
layerId = "55314CA7-5524-4D70-B802-98D4FAE25636";
width = 573;
},
{
associatedMasterId = "0DA27741-1AFD-43F2-A947-40AFBF8D6498";
layerId = "13A3DD5D-E91B-4961-8595-F8141D3FA442";
width = 596;
}
);
leftKerningGroup = p;
leftMetricsKey = p;
rightKerningGroup = p;
rightMetricsKey = p;
unicode = 00FE;
},
{
glyphname = r;
lastChange = "2018-07-13 09:35:39 +0000";
layers = (
{
components = (
{
alignment = -1;
name = "line-vertical-short";
transform = "{1, 0, 0, -1, 70, 540}";
}
);
layerId = "CAA188E2-8C62-414B-93AE-B576BEB044DB";
paths = (
{
closed = 1;
nodes = (
"335.216 552.676 OFFCURVE",
"314 555 OFFCURVE",
"291 555 CURVE SMOOTH",
"239 555 OFFCURVE",
"186 538 OFFCURVE",
"147 502 CURVE",
"88 448 OFFCURVE",
"79 393 OFFCURVE",
"72 306 CURVE",
"72 241 LINE",
"112 241 LINE",
"112 339 OFFCURVE",
"108 414 OFFCURVE",
"173 472 CURVE",
"202 500 OFFCURVE",
"246 515 OFFCURVE",
"291 515 CURVE SMOOTH",
"314 515 OFFCURVE",
"335.216 511.902 OFFCURVE",
"355 505.024 CURVE",
"355 547.347 LINE"
);
}
);
width = 380;
},
{
components = (
{
alignment = -1;
name = "line-vertical-short";
transform = "{1, 0, 0, -1, 70, 540}";
}
);
layerId = "0DA27741-1AFD-43F2-A947-40AFBF8D6498";
paths = (
{
closed = 1;
nodes = (
"402 551 OFFCURVE",
"371 556 OFFCURVE",
"342 554 CURVE SMOOTH",
"310 552 OFFCURVE",
"277 544 OFFCURVE",
"248 526 CURVE",
"193 493 OFFCURVE",
"167 434 OFFCURVE",
"162 366 CURVE",
"170 288 LINE",
"207 288 LINE",
"207 328 OFFCURVE",
"218 364 OFFCURVE",
"242 390 CURVE SMOOTH",
"261 410 OFFCURVE",
"289 424 OFFCURVE",
"328 427 CURVE SMOOTH",
"367 430 OFFCURVE",
"404 424 OFFCURVE",
"432 413 CURVE",
"432 539 LINE"
);
}
);
width = 457;
},
{
associatedMasterId = "0DA27741-1AFD-43F2-A947-40AFBF8D6498";
layerId = "A2873047-0ED6-4C67-9B4D-3870B51BD5C6";
width = 600;
},
{
associatedMasterId = "0DA27741-1AFD-43F2-A947-40AFBF8D6498";
layerId = "55314CA7-5524-4D70-B802-98D4FAE25636";
width = 324;
},
{
associatedMasterId = "0DA27741-1AFD-43F2-A947-40AFBF8D6498";
layerId = "13A3DD5D-E91B-4961-8595-F8141D3FA442";
width = 556;
}
);
leftKerningGroup = r;
note = r;
rightKerningGroup = r;
unicode = 0072;
},
{
glyphname = s;
lastChange = "2018-07-25 11:09:33 +0000";
layers = (
{
layerId = "CAA188E2-8C62-414B-93AE-B576BEB044DB";
paths = (
{
closed = 1;
nodes = (
"478 448 OFFCURVE",
"431 503 OFFCURVE",
"380 529 CURVE",
"345 547 OFFCURVE",
"305 555 OFFCURVE",
"267 555 CURVE SMOOTH",
"229 556 OFFCURVE",
"190 551 OFFCURVE",
"153 534 CURVE",
"107 513 OFFCURVE",
"70 467 OFFCURVE",
"70 418 CURVE SMOOTH",
"70 384 OFFCURVE",
"82 348 OFFCURVE",
"113 323 CURVE",
"146 296 OFFCURVE",
"183 287 OFFCURVE",
"218 277 CURVE",
"260 265 OFFCURVE",
"292 256 OFFCURVE",
"317 248 CURVE",
"373 232 OFFCURVE",
"391 223 OFFCURVE",
"411 206 CURVE",
"433 188 OFFCURVE",
"444 164 OFFCURVE",
"444 139 CURVE SMOOTH",
"444 106 OFFCURVE",
"428 76 OFFCURVE",
"401 58 CURVE",
"370 37 OFFCURVE",
"318 28 OFFCURVE",
"272 28 CURVE SMOOTH",
"220 28 OFFCURVE",
"165 43 OFFCURVE",
"129 83 CURVE",
"104 112 OFFCURVE",
"90 150 OFFCURVE",
"83 190 CURVE",
"40 179 LINE",
"50 137 OFFCURVE",
"62 93 OFFCURVE",
"97 54 CURVE",
"140 7 OFFCURVE",
"205 -14 OFFCURVE",
"274 -14 CURVE SMOOTH",
"327 -14 OFFCURVE",
"384 -5 OFFCURVE",
"425 22 CURVE",
"464 46 OFFCURVE",
"489 95 OFFCURVE",
"489 136 CURVE SMOOTH",
"489 175 OFFCURVE",
"474 209 OFFCURVE",
"438 238 CURVE",
"407 264 OFFCURVE",
"369 279 OFFCURVE",
"334 288 CURVE",
"281 302 OFFCURVE",
"244 312 OFFCURVE",
"218 320 CURVE",
"175 332 OFFCURVE",
"159 341 OFFCURVE",
"141 356 CURVE",
"121 374 OFFCURVE",
"115 394 OFFCURVE",
"115 418 CURVE SMOOTH",
"115 451 OFFCURVE",
"140 480 OFFCURVE",
"171 495 CURVE",
"199 508 OFFCURVE",
"233 514 OFFCURVE",
"266 513 CURVE SMOOTH",
"299 513 OFFCURVE",
"333 506 OFFCURVE",
"361 491 CURVE",
"402 470 OFFCURVE",
"431 432 OFFCURVE",
"447 389 CURVE",
"490 399 LINE"
);
}
);
width = 530;
},
{
layerId = "0DA27741-1AFD-43F2-A947-40AFBF8D6498";
paths = (
{
closed = 1;
nodes = (
"485 454 OFFCURVE",
"443 503 OFFCURVE",
"391 528 CURVE",
"354 547 OFFCURVE",
"313 555 OFFCURVE",
"276 555 CURVE SMOOTH",
"239 555 OFFCURVE",
"200 553 OFFCURVE",
"158 535 CURVE",
"102 511 OFFCURVE",
"60 458 OFFCURVE",
"60 390 CURVE SMOOTH",
"60 367 OFFCURVE",
"68 331 OFFCURVE",
"88 309 CURVE SMOOTH",
"105 284 OFFCURVE",
"142 262 OFFCURVE",
"174 251 CURVE",
"191 244 OFFCURVE",
"208 239 OFFCURVE",
"311 211 CURVE",
"333 205 OFFCURVE",
"344 203 OFFCURVE",
"364 192 CURVE",
"379 184 OFFCURVE",
"389 169 OFFCURVE",
"389 156 CURVE SMOOTH",
"389 141 OFFCURVE",
"382 130 OFFCURVE",
"368 120 CURVE",
"352 108 OFFCURVE",
"315 102 OFFCURVE",
"295 102 CURVE SMOOTH",
"258 102 OFFCURVE",
"216 111 OFFCURVE",
"190 141 CURVE",
"179 155 OFFCURVE",
"167 188 OFFCURVE",
"167 205 CURVE",
"40 174 LINE",
"60 115 OFFCURVE",
"61 97 OFFCURVE",
"97 58 CURVE",
"149 1 OFFCURVE",
"213 -15 OFFCURVE",
"292 -15 CURVE SMOOTH",
"344 -15 OFFCURVE",
"388 -8 OFFCURVE",
"434 21 CURVE",
"481 49 OFFCURVE",
"511 101 OFFCURVE",
"511 156 CURVE SMOOTH",
"511 207 OFFCURVE",
"487 245 OFFCURVE",
"445 276 CURVE",
"417 297 OFFCURVE",
"382 314 OFFCURVE",
"341 323 CURVE",
"302 333 OFFCURVE",
"258 345 OFFCURVE",
"226 357 CURVE",
"212 362 OFFCURVE",
"201 366 OFFCURVE",
"194 371 CURVE",
"188 376 OFFCURVE",
"182 381 OFFCURVE",
"182 395 CURVE SMOOTH",
"182 410 OFFCURVE",
"197 423 OFFCURVE",
"210 428 CURVE",
"225 434 OFFCURVE",
"246 438 OFFCURVE",
"268 438 CURVE SMOOTH",
"289 438 OFFCURVE",
"318 430 OFFCURVE",
"335 420 CURVE",
"356 409 OFFCURVE",
"370 389 OFFCURVE",
"379 366 CURVE",
"506 398 LINE"
);
}
);
width = 551;
},
{
associatedMasterId = "0DA27741-1AFD-43F2-A947-40AFBF8D6498";
layerId = "A2873047-0ED6-4C67-9B4D-3870B51BD5C6";
width = 600;
},
{
associatedMasterId = "0DA27741-1AFD-43F2-A947-40AFBF8D6498";
layerId = "55314CA7-5524-4D70-B802-98D4FAE25636";
width = 516;
},
{
associatedMasterId = "0DA27741-1AFD-43F2-A947-40AFBF8D6498";
layerId = "13A3DD5D-E91B-4961-8595-F8141D3FA442";
width = 587;
}
);
leftKerningGroup = s;
note = s;
rightKerningGroup = s;
unicode = 0073;
},
{
glyphname = germandbls;
lastChange = "2018-07-29 15:00:51 +0000";
layers = (
{
layerId = "CAA188E2-8C62-414B-93AE-B576BEB044DB";
paths = (
{
closed = 1;
nodes = (
"116 0 LINE",
"116 551 LINE",
"116 593 OFFCURVE",
"136 638 OFFCURVE",
"167 662 CURVE SMOOTH",
"194 683 OFFCURVE",
"227 693 OFFCURVE",
"261 693 CURVE SMOOTH",
"293 693 OFFCURVE",
"326 682 OFFCURVE",
"351 661 CURVE SMOOTH",
"384 635 OFFCURVE",
"404 592 OFFCURVE",
"404 550 CURVE SMOOTH",
"404 520 OFFCURVE",
"392 490 OFFCURVE",
"369 465 CURVE",
"345 435 OFFCURVE",
"301 411 OFFCURVE",
"260 406 CURVE",
"260 364 LINE",
"315 358 OFFCURVE",
"371 346 OFFCURVE",
"418 305 CURVE SMOOTH",
"449 278 OFFCURVE",
"470 240 OFFCURVE",
"470 196 CURVE SMOOTH",
"470 157 OFFCURVE",
"457 120 OFFCURVE",
"427 93 CURVE SMOOTH",
"387 57 OFFCURVE",
"326 48 OFFCURVE",
"252 48 CURVE",
"200 48 LINE",
"200 0 LINE",
"252 0 LINE",
"345 0 OFFCURVE",
"410 15 OFFCURVE",
"460 58 CURVE SMOOTH",
"500 93 OFFCURVE",
"515 145 OFFCURVE",
"515 201 CURVE SMOOTH",
"515 256 OFFCURVE",
"486 304 OFFCURVE",
"442 341 CURVE SMOOTH",
"413 365 OFFCURVE",
"379 381 OFFCURVE",
"343 391 CURVE",
"364 402 OFFCURVE",
"383 416 OFFCURVE",
"399 432 CURVE SMOOTH",
"430 463 OFFCURVE",
"449 506 OFFCURVE",
"449 549 CURVE SMOOTH",
"449 607 OFFCURVE",
"422 666 OFFCURVE",
"374 700 CURVE",
"343 724 OFFCURVE",
"300 735 OFFCURVE",
"260 735 CURVE SMOOTH",
"220 735 OFFCURVE",
"179 727 OFFCURVE",
"144 698 CURVE",
"95 662 OFFCURVE",
"70 610 OFFCURVE",
"70 539 CURVE SMOOTH",
"70 0 LINE"
);
}
);
width = 575;
},
{
layerId = "0DA27741-1AFD-43F2-A947-40AFBF8D6498";
paths = (
{
closed = 1;
nodes = (
"207 0 LINE",
"207 533 LINE",
"207 551 OFFCURVE",
"219 575 OFFCURVE",
"240 590 CURVE",
"258 602 OFFCURVE",
"277 608 OFFCURVE",
"299 608 CURVE SMOOTH",
"320 608 OFFCURVE",
"342 602 OFFCURVE",
"359 590 CURVE",
"377 576 OFFCURVE",
"393 554 OFFCURVE",
"393 526 CURVE SMOOTH",
"393 510 OFFCURVE",
"387 489 OFFCURVE",
"372 473 CURVE",
"355 455 OFFCURVE",
"333 447 OFFCURVE",
"300 440 CURVE",
"300 322 LINE",
"335 321 OFFCURVE",
"369 317 OFFCURVE",
"398 302 CURVE SMOOTH",
"429 286 OFFCURVE",
"446 259 OFFCURVE",
"446 222 CURVE SMOOTH",
"446 194 OFFCURVE",
"435 170 OFFCURVE",
"408 154 CURVE",
"378 136 OFFCURVE",
"342 132 OFFCURVE",
"303 132 CURVE",
"263 132 LINE",
"263 0 LINE",
"303 0 LINE",
"375 0 OFFCURVE",
"446 6 OFFCURVE",
"504 47 CURVE",
"569 93 OFFCURVE",
"587 154 OFFCURVE",
"587 214 CURVE SMOOTH",
"587 258 OFFCURVE",
"577 303 OFFCURVE",
"550 338 CURVE SMOOTH",
"530 363 OFFCURVE",
"506 382 OFFCURVE",
"478 399 CURVE",
"495 415 OFFCURVE",
"508 434 OFFCURVE",
"517 456 CURVE",
"526 478 OFFCURVE",
"530 501 OFFCURVE",
"530 529 CURVE SMOOTH",
"530 588 OFFCURVE",
"499 652 OFFCURVE",
"446 690 CURVE",
"404 720 OFFCURVE",
"350 735 OFFCURVE",
"299 735 CURVE SMOOTH",
"252 735 OFFCURVE",
"199 724 OFFCURVE",
"154 693 CURVE",
"102 657 OFFCURVE",
"70 595 OFFCURVE",
"70 540 CURVE SMOOTH",
"70 0 LINE"
);
}
);
width = 647;
},
{
associatedMasterId = "0DA27741-1AFD-43F2-A947-40AFBF8D6498";
layerId = "A2873047-0ED6-4C67-9B4D-3870B51BD5C6";
width = 600;
},
{
associatedMasterId = "0DA27741-1AFD-43F2-A947-40AFBF8D6498";
layerId = "55314CA7-5524-4D70-B802-98D4FAE25636";
width = 628;
},
{
associatedMasterId = "0DA27741-1AFD-43F2-A947-40AFBF8D6498";
layerId = "13A3DD5D-E91B-4961-8595-F8141D3FA442";
width = 604;
}
);
leftKerningGroup = b;
leftMetricsKey = b;
rightKerningGroup = b;
rightMetricsKey = n;
unicode = 00DF;
},
{
glyphname = t;
lastChange = "2018-07-24 06:14:52 +0000";
layers = (
{
layerId = "CAA188E2-8C62-414B-93AE-B576BEB044DB";
paths = (
{
closed = 1;
nodes = (
"322 34 OFFCURVE",
"289 33 OFFCURVE",
"259 36 CURVE",
"228 39 OFFCURVE",
"201 55 OFFCURVE",
"190 82 CURVE",
"176 107 OFFCURVE",
"179 132 OFFCURVE",
"179 179 CURVE SMOOTH",
"179 690 LINE",
"137 690 LINE",
"137 179 LINE SMOOTH",
"137 132 OFFCURVE",
"136 98 OFFCURVE",
"152 63 CURVE",
"171 22 OFFCURVE",
"207 1 OFFCURVE",
"254 -5 CURVE",
"286 -9 OFFCURVE",
"317 -7 OFFCURVE",
"349 0 CURVE",
"349 40 LINE"
);
},
{
closed = 1;
nodes = (
"10 498 LINE",
"349 498 LINE",
"349 540 LINE",
"10 540 LINE"
);
}
);
width = 379;
},
{
layerId = "0DA27741-1AFD-43F2-A947-40AFBF8D6498";
paths = (
{
closed = 1;
nodes = (
"365 113 OFFCURVE",
"332 112 OFFCURVE",
"306 114 CURVE",
"285 116 OFFCURVE",
"263 128 OFFCURVE",
"251 147 CURVE",
"239 166 OFFCURVE",
"238 197 OFFCURVE",
"238 239 CURVE SMOOTH",
"238 690 LINE",
"102 690 LINE",
"102 229 LINE SMOOTH",
"102 170 OFFCURVE",
"105 118 OFFCURVE",
"128 75 CURVE",
"149 35 OFFCURVE",
"187 11 OFFCURVE",
"236 -3 CURVE",
"276 -14 OFFCURVE",
"351 -12 OFFCURVE",
"394 0 CURVE",
"394 117 LINE"
);
},
{
closed = 1;
nodes = (
"10 435 LINE",
"394 435 LINE",
"394 540 LINE",
"10 540 LINE"
);
}
);
width = 444;
},
{
associatedMasterId = "0DA27741-1AFD-43F2-A947-40AFBF8D6498";
layerId = "A2873047-0ED6-4C67-9B4D-3870B51BD5C6";
width = 600;
},
{
associatedMasterId = "0DA27741-1AFD-43F2-A947-40AFBF8D6498";
layerId = "55314CA7-5524-4D70-B802-98D4FAE25636";
width = 316;
},
{
associatedMasterId = "0DA27741-1AFD-43F2-A947-40AFBF8D6498";
layerId = "13A3DD5D-E91B-4961-8595-F8141D3FA442";
width = 555;
}
);
leftKerningGroup = t;
note = t;
rightKerningGroup = t;
unicode = 0074;
},
{
glyphname = tbar;
lastChange = "2018-07-16 06:27:06 +0000";
layers = (
{
components = (
{
name = t;
}
);
layerId = "CAA188E2-8C62-414B-93AE-B576BEB044DB";
paths = (
{
closed = 1;
nodes = (
"10 249 LINE",
"349 249 LINE",
"349 291 LINE",
"10 291 LINE"
);
}
);
width = 399;
},
{
components = (
{
name = t;
}
);
layerId = "0DA27741-1AFD-43F2-A947-40AFBF8D6498";
paths = (
{
closed = 1;
nodes = (
"10 228 LINE",
"414 228 LINE",
"414 333 LINE",
"10 333 LINE"
);
}
);
width = 464;
},
{
associatedMasterId = "0DA27741-1AFD-43F2-A947-40AFBF8D6498";
layerId = "A2873047-0ED6-4C67-9B4D-3870B51BD5C6";
width = 600;
},
{
associatedMasterId = "0DA27741-1AFD-43F2-A947-40AFBF8D6498";
layerId = "55314CA7-5524-4D70-B802-98D4FAE25636";
width = 316;
},
{
associatedMasterId = "0DA27741-1AFD-43F2-A947-40AFBF8D6498";
layerId = "13A3DD5D-E91B-4961-8595-F8141D3FA442";
width = 555;
}
);
leftKerningGroup = t;
leftMetricsKey = t;
rightKerningGroup = t;
unicode = 0167;
},
{
glyphname = tcedilla;
lastChange = "2018-06-29 15:15:08 +0000";
layers = (
{
components = (
{
name = t;
}
);
layerId = "CAA188E2-8C62-414B-93AE-B576BEB044DB";
paths = (
{
closed = 1;
nodes = (
"247 -95 OFFCURVE",
"229 -80 OFFCURVE",
"210 -72 CURVE",
"239 6 LINE",
"203 22 LINE",
"159 -97 LINE",
"191 -108 OFFCURVE",
"211 -113 OFFCURVE",
"221 -134 CURVE",
"229 -149 OFFCURVE",
"227 -165 OFFCURVE",
"218 -179 CURVE",
"210 -193 OFFCURVE",
"195 -200 OFFCURVE",
"176 -199 CURVE",
"164 -198 OFFCURVE",
"150 -194 OFFCURVE",
"136 -189 CURVE",
"122 -226 LINE",
"138 -233 OFFCURVE",
"155 -239 OFFCURVE",
"174 -240 CURVE",
"203 -243 OFFCURVE",
"237 -229 OFFCURVE",
"253 -203 CURVE",
"271 -178 OFFCURVE",
"273 -141 OFFCURVE",
"258 -115 CURVE"
);
}
);
width = 399;
},
{
components = (
{
name = t;
}
);
layerId = "0DA27741-1AFD-43F2-A947-40AFBF8D6498";
paths = (
{
closed = 1;
nodes = (
"282 -60 OFFCURVE",
"264 -46 OFFCURVE",
"246 -37 CURVE",
"264 17 LINE",
"197 51 LINE",
"150 -86 LINE",
"182 -95 OFFCURVE",
"209 -102 OFFCURVE",
"214 -123 CURVE SMOOTH",
"216 -131 OFFCURVE",
"214 -136 OFFCURVE",
"210 -142 CURVE SMOOTH",
"206 -148 OFFCURVE",
"197 -152 OFFCURVE",
"187 -152 CURVE SMOOTH",
"179 -152 OFFCURVE",
"170 -150 OFFCURVE",
"157 -146 CURVE",
"128 -224 LINE",
"145 -233 OFFCURVE",
"164 -240 OFFCURVE",
"186 -242 CURVE",
"228 -247 OFFCURVE",
"265 -229 OFFCURVE",
"289 -195 CURVE",
"311 -163 OFFCURVE",
"314 -114 OFFCURVE",
"294 -80 CURVE"
);
}
);
width = 464;
},
{
associatedMasterId = "0DA27741-1AFD-43F2-A947-40AFBF8D6498";
layerId = "A2873047-0ED6-4C67-9B4D-3870B51BD5C6";
width = 600;
},
{
associatedMasterId = "0DA27741-1AFD-43F2-A947-40AFBF8D6498";
layerId = "55314CA7-5524-4D70-B802-98D4FAE25636";
width = 316;
},
{
associatedMasterId = "0DA27741-1AFD-43F2-A947-40AFBF8D6498";
layerId = "13A3DD5D-E91B-4961-8595-F8141D3FA442";
width = 555;
}
);
leftKerningGroup = t;
leftMetricsKey = t;
rightKerningGroup = t;
unicode = 0163;
},
{
glyphname = v;
lastChange = "2018-07-25 11:11:26 +0000";
layers = (
{
layerId = "CAA188E2-8C62-414B-93AE-B576BEB044DB";
paths = (
{
closed = 1;
nodes = (
"239 61 LINE",
"64 540 LINE",
"20 540 LINE",
"216 0 LINE",
"262 0 LINE",
"458 540 LINE",
"413 540 LINE"
);
}
);
width = 478;
},
{
layerId = "0DA27741-1AFD-43F2-A947-40AFBF8D6498";
paths = (
{
closed = 1;
nodes = (
"285 166 LINE",
"156 540 LINE",
"20 540 LINE",
"217 0 LINE",
"352 0 LINE",
"549 540 LINE",
"413 540 LINE"
);
}
);
width = 569;
},
{
associatedMasterId = "0DA27741-1AFD-43F2-A947-40AFBF8D6498";
layerId = "A2873047-0ED6-4C67-9B4D-3870B51BD5C6";
width = 600;
},
{
associatedMasterId = "0DA27741-1AFD-43F2-A947-40AFBF8D6498";
layerId = "55314CA7-5524-4D70-B802-98D4FAE25636";
width = 476;
},
{
associatedMasterId = "0DA27741-1AFD-43F2-A947-40AFBF8D6498";
layerId = "13A3DD5D-E91B-4961-8595-F8141D3FA442";
width = 580;
}
);
leftKerningGroup = v;
rightKerningGroup = v;
unicode = 0076;
},
{
glyphname = w;
lastChange = "2018-07-25 11:12:22 +0000";
layers = (
{
layerId = "CAA188E2-8C62-414B-93AE-B576BEB044DB";
paths = (
{
closed = 1;
nodes = (
"537 72 LINE",
"394 540 LINE",
"350 540 LINE",
"207 72 LINE",
"64 540 LINE",
"20 540 LINE",
"185 0 LINE",
"229 0 LINE",
"372 469 LINE",
"515 0 LINE",
"559 0 LINE",
"724 540 LINE",
"681 540 LINE"
);
}
);
width = 744;
},
{
layerId = "0DA27741-1AFD-43F2-A947-40AFBF8D6498";
paths = (
{
closed = 1;
nodes = (
"563 218 LINE",
"464 540 LINE",
"351 540 LINE",
"252 218 LINE",
"154 540 LINE",
"20 541 LINE",
"185 0 LINE",
"309 0 LINE",
"407 322 LINE",
"496 0 LINE",
"629 0 LINE",
"794 540 LINE",
"661 540 LINE"
);
}
);
width = 814;
},
{
associatedMasterId = "0DA27741-1AFD-43F2-A947-40AFBF8D6498";
layerId = "A2873047-0ED6-4C67-9B4D-3870B51BD5C6";
width = 600;
},
{
associatedMasterId = "0DA27741-1AFD-43F2-A947-40AFBF8D6498";
layerId = "55314CA7-5524-4D70-B802-98D4FAE25636";
width = 809;
},
{
associatedMasterId = "0DA27741-1AFD-43F2-A947-40AFBF8D6498";
layerId = "13A3DD5D-E91B-4961-8595-F8141D3FA442";
width = 633;
}
);
leftKerningGroup = w;
note = w;
rightKerningGroup = w;
unicode = 0077;
},
{
glyphname = x;
lastChange = "2018-07-25 11:12:34 +0000";
layers = (
{
layerId = "CAA188E2-8C62-414B-93AE-B576BEB044DB";
paths = (
{
closed = 1;
nodes = (
"452 540 LINE",
"265 304 LINE",
"77 540 LINE",
"25 540 LINE",
"240 273 LINE",
"20 0 LINE",
"73 0 LINE",
"265 242 LINE",
"456 0 LINE",
"509 0 LINE",
"289 273 LINE",
"504 540 LINE"
);
}
);
width = 529;
},
{
layerId = "0DA27741-1AFD-43F2-A947-40AFBF8D6498";
paths = (
{
closed = 1;
nodes = (
"393 540 LINE",
"287 385 LINE",
"179 540 LINE",
"24 540 LINE",
"208 273 LINE",
"20 0 LINE",
"175 0 LINE",
"287 161 LINE",
"398 0 LINE",
"553 0 LINE",
"364 273 LINE",
"548 540 LINE"
);
}
);
width = 573;
},
{
associatedMasterId = "0DA27741-1AFD-43F2-A947-40AFBF8D6498";
layerId = "A2873047-0ED6-4C67-9B4D-3870B51BD5C6";
width = 600;
},
{
associatedMasterId = "0DA27741-1AFD-43F2-A947-40AFBF8D6498";
layerId = "55314CA7-5524-4D70-B802-98D4FAE25636";
width = 484;
},
{
associatedMasterId = "0DA27741-1AFD-43F2-A947-40AFBF8D6498";
layerId = "13A3DD5D-E91B-4961-8595-F8141D3FA442";
width = 581;
}
);
leftKerningGroup = x;
note = x;
rightKerningGroup = x;
unicode = 0078;
},
{
glyphname = y;
lastChange = "2018-07-24 00:59:41 +0000";
layers = (
{
layerId = "CAA188E2-8C62-414B-93AE-B576BEB044DB";
paths = (
{
closed = 1;
nodes = (
"289 40 LINE",
"66 540 LINE",
"20 540 LINE",
"267 -15 LINE",
"222 -133 OFFCURVE",
"211 -164 OFFCURVE",
"187 -183 CURVE SMOOTH",
"169 -197 OFFCURVE",
"152 -199 OFFCURVE",
"129 -198 CURVE",
"110 -196 LINE",
"110 -239 LINE",
"128 -240 LINE",
"156 -240 OFFCURVE",
"182 -238 OFFCURVE",
"204 -222 CURVE SMOOTH",
"228 -205 OFFCURVE",
"250 -176 OFFCURVE",
"270 -123 CURVE",
"527 539 LINE",
"482 539 LINE"
);
}
);
width = 537;
},
{
layerId = "0DA27741-1AFD-43F2-A947-40AFBF8D6498";
paths = (
{
closed = 1;
nodes = (
"290 157 LINE",
"156 540 LINE",
"20 540 LINE",
"228 -16 LINE",
"211 -64 OFFCURVE",
"191 -98 OFFCURVE",
"176 -107 CURVE",
"166 -113 OFFCURVE",
"141 -115 OFFCURVE",
"125 -113 CURVE",
"110 -111 LINE",
"110 -240 LINE",
"117 -240 LINE",
"166 -240 OFFCURVE",
"208 -236 OFFCURVE",
"247 -206 CURVE",
"285 -178 OFFCURVE",
"312 -129 OFFCURVE",
"333 -73 CURVE",
"563 540 LINE",
"428 540 LINE"
);
}
);
width = 573;
},
{
associatedMasterId = "0DA27741-1AFD-43F2-A947-40AFBF8D6498";
layerId = "A2873047-0ED6-4C67-9B4D-3870B51BD5C6";
width = 600;
},
{
associatedMasterId = "0DA27741-1AFD-43F2-A947-40AFBF8D6498";
layerId = "55314CA7-5524-4D70-B802-98D4FAE25636";
width = 456;
},
{
associatedMasterId = "0DA27741-1AFD-43F2-A947-40AFBF8D6498";
layerId = "13A3DD5D-E91B-4961-8595-F8141D3FA442";
width = 577;
}
);
leftKerningGroup = y;
note = y;
rightKerningGroup = y;
unicode = 0079;
},
{
glyphname = z;
lastChange = "2018-07-13 09:37:54 +0000";
layers = (
{
layerId = "CAA188E2-8C62-414B-93AE-B576BEB044DB";
paths = (
{
closed = 1;
nodes = (
"127 44 LINE",
"509 495 LINE",
"509 540 LINE",
"70 540 LINE",
"70 496 LINE",
"452 496 LINE",
"70 44 LINE",
"70 0 LINE",
"509 0 LINE",
"509 44 LINE"
);
}
);
width = 579;
},
{
layerId = "0DA27741-1AFD-43F2-A947-40AFBF8D6498";
paths = (
{
closed = 1;
nodes = (
"249 118 LINE",
"505 422 LINE",
"505 540 LINE",
"70 540 LINE",
"70 422 LINE",
"327 422 LINE",
"70 115 LINE",
"70 0 LINE",
"505 0 LINE",
"505 118 LINE"
);
}
);
width = 575;
},
{
associatedMasterId = "0DA27741-1AFD-43F2-A947-40AFBF8D6498";
layerId = "A2873047-0ED6-4C67-9B4D-3870B51BD5C6";
width = 600;
},
{
associatedMasterId = "0DA27741-1AFD-43F2-A947-40AFBF8D6498";
layerId = "55314CA7-5524-4D70-B802-98D4FAE25636";
width = 535;
},
{
associatedMasterId = "0DA27741-1AFD-43F2-A947-40AFBF8D6498";
layerId = "13A3DD5D-E91B-4961-8595-F8141D3FA442";
width = 590;
}
);
leftKerningGroup = z;
note = z;
rightKerningGroup = z;
unicode = 007A;
},
{
glyphname = a.alt;
lastChange = "2018-07-24 05:12:45 +0000";
layers = (
{
layerId = "0DA27741-1AFD-43F2-A947-40AFBF8D6498";
paths = (
{
closed = 1;
nodes = (
"183 386 OFFCURVE",
"187 391 OFFCURVE",
"191 395 CURVE",
"212 420 OFFCURVE",
"241 428 OFFCURVE",
"276 428 CURVE SMOOTH",
"304 429 OFFCURVE",
"331 424 OFFCURVE",
"353 411 CURVE",
"373 400 OFFCURVE",
"388 382 OFFCURVE",
"393 361 CURVE",
"306 349 LINE",
"229 337 OFFCURVE",
"187 336 OFFCURVE",
"127 304 CURVE",
"76 274 OFFCURVE",
"40 217 OFFCURVE",
"40 159 CURVE SMOOTH",
"40 112 OFFCURVE",
"54 85 OFFCURVE",
"82 46 CURVE",
"111 12 OFFCURVE",
"166 -14 OFFCURVE",
"219 -14 CURVE SMOOTH",
"260 -14 OFFCURVE",
"307 -4 OFFCURVE",
"345 19 CURVE SMOOTH",
"369 33 OFFCURVE",
"402 63 OFFCURVE",
"412 92 CURVE",
"412 0 LINE",
"531 0 LINE",
"531 339 LINE SMOOTH",
"531 372 OFFCURVE",
"523 412 OFFCURVE",
"502 447 CURVE",
"458 521 OFFCURVE",
"378 554 OFFCURVE",
"279 554 CURVE SMOOTH",
"190 554 OFFCURVE",
"116 525 OFFCURVE",
"67 456 CURVE SMOOTH",
"63 451 OFFCURVE",
"59 444 OFFCURVE",
"56 440 CURVE",
"180 381 LINE"
);
},
{
closed = 1;
nodes = (
"396 247 OFFCURVE",
"395 227 OFFCURVE",
"389 205 CURVE",
"372 140 OFFCURVE",
"303 112 OFFCURVE",
"246 110 CURVE SMOOTH",
"202 108 OFFCURVE",
"173 136 OFFCURVE",
"175 168 CURVE SMOOTH",
"177 211 OFFCURVE",
"238 222 OFFCURVE",
"296 233 CURVE",
"358 245 OFFCURVE",
"390 251 OFFCURVE",
"396 252 CURVE"
);
}
);
width = 600;
},
{
layerId = "CAA188E2-8C62-414B-93AE-B576BEB044DB";
paths = (
{
closed = 1;
nodes = (
"112 427 OFFCURVE",
"117 434 OFFCURVE",
"122 441 CURVE",
"156 488 OFFCURVE",
"215 512 OFFCURVE",
"276 512 CURVE SMOOTH",
"326 512 OFFCURVE",
"377 499 OFFCURVE",
"412 467 CURVE",
"442 441 OFFCURVE",
"457 402 OFFCURVE",
"461 360 CURVE",
"332 342 LINE",
"243 329 OFFCURVE",
"171 321 OFFCURVE",
"114 288 CURVE",
"65 258 OFFCURVE",
"40 214 OFFCURVE",
"40 157 CURVE SMOOTH",
"40 126 OFFCURVE",
"49 95 OFFCURVE",
"65 68 CURVE",
"94 21 OFFCURVE",
"150 -8 OFFCURVE",
"206 -13 CURVE SMOOTH",
"259 -18 OFFCURVE",
"305 -6 OFFCURVE",
"353 16 CURVE",
"399 37 OFFCURVE",
"441 72 OFFCURVE",
"468 118 CURVE",
"468 0 LINE",
"507 0 LINE",
"507 338 LINE",
"507 367 OFFCURVE",
"502 396 OFFCURVE",
"492 425 CURVE",
"457 515 OFFCURVE",
"375 554 OFFCURVE",
"276 554 CURVE SMOOTH",
"200 554 OFFCURVE",
"133 526 OFFCURVE",
"87 468 CURVE",
"80 459 OFFCURVE",
"73 448 OFFCURVE",
"68 439 CURVE",
"108 420 LINE"
);
},
{
closed = 1;
nodes = (
"465 245 OFFCURVE",
"466 199 OFFCURVE",
"433 140 CURVE",
"390 65 OFFCURVE",
"286 15 OFFCURVE",
"204 27 CURVE SMOOTH",
"138 37 OFFCURVE",
"84 94 OFFCURVE",
"84 158 CURVE SMOOTH",
"84 263 OFFCURVE",
"203 282 OFFCURVE",
"312 297 CURVE SMOOTH",
"361 304 OFFCURVE",
"400 309 OFFCURVE",
"465 318 CURVE"
);
}
);
width = 600;
}
);
},
{
glyphname = e.alt;
lastChange = "2018-07-24 23:33:00 +0000";
layers = (
{
layerId = "0DA27741-1AFD-43F2-A947-40AFBF8D6498";
paths = (
{
closed = 1;
nodes = (
"431 162 OFFCURVE",
"424 154 OFFCURVE",
"418 147 CURVE SMOOTH",
"392 117 OFFCURVE",
"356 102 OFFCURVE",
"313 102 CURVE SMOOTH",
"271 102 OFFCURVE",
"231 119 OFFCURVE",
"208 151 CURVE",
"183 183 OFFCURVE",
"176 226 OFFCURVE",
"176 270 CURVE SMOOTH",
"176 314 OFFCURVE",
"183 358 OFFCURVE",
"208 390 CURVE",
"231 422 OFFCURVE",
"271 438 OFFCURVE",
"313 438 CURVE SMOOTH",
"356 438 OFFCURVE",
"395 422 OFFCURVE",
"418 390 CURVE",
"443 358 OFFCURVE",
"451 314 OFFCURVE",
"451 270 CURVE SMOOTH",
"451 257.51 OFFCURVE",
"450.355 245.1 OFFCURVE",
"448.86 233 CURVE",
"584 233 LINE",
"585 245 OFFCURVE",
"586 258 OFFCURVE",
"586 270 CURVE SMOOTH",
"586 342 OFFCURVE",
"565 411 OFFCURVE",
"520 465 CURVE SMOOTH",
"470 525 OFFCURVE",
"393 555 OFFCURVE",
"313 555 CURVE SMOOTH",
"233 555 OFFCURVE",
"156 524 OFFCURVE",
"106 465 CURVE SMOOTH",
"63 413 OFFCURVE",
"40 341 OFFCURVE",
"40 263 CURVE SMOOTH",
"40 194 OFFCURVE",
"62 129 OFFCURVE",
"106 75 CURVE SMOOTH",
"155 16 OFFCURVE",
"239 -15 OFFCURVE",
"321 -15 CURVE SMOOTH",
"406 -15 OFFCURVE",
"472 13 OFFCURVE",
"524 71 CURVE SMOOTH",
"536 85 OFFCURVE",
"543 95 OFFCURVE",
"550 106 CURVE",
"435 169 LINE"
);
},
{
closed = 1;
nodes = (
"142 233 LINE",
"500 233 LINE",
"500 338 LINE",
"142 338 LINE"
);
}
);
width = 600;
},
{
layerId = "CAA188E2-8C62-414B-93AE-B576BEB044DB";
paths = (
{
closed = 1;
nodes = (
"457 122 OFFCURVE",
"450 110 OFFCURVE",
"441 98 CURVE",
"406 51 OFFCURVE",
"347 27 OFFCURVE",
"287 27 CURVE SMOOTH",
"226 27 OFFCURVE",
"167 51 OFFCURVE",
"132 98 CURVE",
"97 145 OFFCURVE",
"85 208 OFFCURVE",
"85 270 CURVE SMOOTH",
"85 332 OFFCURVE",
"97 395 OFFCURVE",
"132 442 CURVE",
"167 489 OFFCURVE",
"226 514 OFFCURVE",
"287 513 CURVE SMOOTH",
"347 514 OFFCURVE",
"406 489 OFFCURVE",
"441 442 CURVE",
"477 395 OFFCURVE",
"488 332 OFFCURVE",
"488 270 CURVE",
"488 266 OFFCURVE",
"488 262 OFFCURVE",
"488 258 CURVE",
"533 258 LINE",
"533 261 OFFCURVE",
"533 265 OFFCURVE",
"533 268 CURVE SMOOTH",
"533 340 OFFCURVE",
"517 415 OFFCURVE",
"476 469 CURVE",
"430 527 OFFCURVE",
"363 555 OFFCURVE",
"287 555 CURVE SMOOTH",
"211 555 OFFCURVE",
"144 527 OFFCURVE",
"98 469 CURVE",
"53 410 OFFCURVE",
"40 338 OFFCURVE",
"40 270 CURVE SMOOTH",
"40 203 OFFCURVE",
"53 130 OFFCURVE",
"98 72 CURVE",
"142 15 OFFCURVE",
"212 -15 OFFCURVE",
"287 -15 CURVE SMOOTH",
"361 -15 OFFCURVE",
"433 15 OFFCURVE",
"476 72 CURVE",
"487 86 OFFCURVE",
"496 102 OFFCURVE",
"503 118 CURVE",
"463 135 LINE"
);
},
{
closed = 1;
nodes = (
"67 258 LINE",
"507 258 LINE",
"507 300 LINE",
"67 300 LINE"
);
}
);
width = 600;
}
);
},
{
glyphname = fl;
lastChange = "2018-07-16 06:20:14 +0000";
layers = (
{
components = (
{
name = f;
},
{
name = l;
transform = "{1, 0, 0, 1, 379, 0}";
}
);
layerId = "CAA188E2-8C62-414B-93AE-B576BEB044DB";
paths = (
{
closed = 1;
nodes = (
"459 540 LINE",
"459 498 LINE",
"329 498 LINE",
"329 540 LINE"
);
}
);
width = 561;
},
{
components = (
{
name = f;
},
{
name = l;
transform = "{1, 0, 0, 1, 429, 0}";
}
);
layerId = "0DA27741-1AFD-43F2-A947-40AFBF8D6498";
paths = (
{
closed = 1;
nodes = (
"514 540 LINE",
"514 435 LINE",
"384 435 LINE",
"384 540 LINE"
);
}
);
width = 705;
},
{
associatedMasterId = "0DA27741-1AFD-43F2-A947-40AFBF8D6498";
layerId = "A2873047-0ED6-4C67-9B4D-3870B51BD5C6";
width = 600;
},
{
associatedMasterId = "0DA27741-1AFD-43F2-A947-40AFBF8D6498";
layerId = "55314CA7-5524-4D70-B802-98D4FAE25636";
width = 660;
},
{
associatedMasterId = "0DA27741-1AFD-43F2-A947-40AFBF8D6498";
layerId = "13A3DD5D-E91B-4961-8595-F8141D3FA442";
width = 610;
}
);
leftKerningGroup = f;
leftMetricsKey = f;
rightKerningGroup = l;
rightMetricsKey = l;
unicode = FB02;
},
{
glyphname = "Be-cy";
lastChange = "2018-07-29 15:00:58 +0000";
layers = (
{
components = (
{
name = "Softsign-cy";
}
);
layerId = "CAA188E2-8C62-414B-93AE-B576BEB044DB";
paths = (
{
closed = 1;
nodes = (
"100 678 LINE",
"520 678 LINE",
"520 720 LINE",
"100 720 LINE"
);
}
);
width = 611;
},
{
components = (
{
alignment = -1;
name = "Softsign-cy";
}
);
layerId = "0DA27741-1AFD-43F2-A947-40AFBF8D6498";
paths = (
{
closed = 1;
nodes = (
"160 593 LINE",
"566 593 LINE",
"566 720 LINE",
"160 720 LINE"
);
}
);
width = 660;
},
{
associatedMasterId = "0DA27741-1AFD-43F2-A947-40AFBF8D6498";
layerId = "A2873047-0ED6-4C67-9B4D-3870B51BD5C6";
width = 600;
},
{
associatedMasterId = "0DA27741-1AFD-43F2-A947-40AFBF8D6498";
layerId = "55314CA7-5524-4D70-B802-98D4FAE25636";
width = 600;
},
{
associatedMasterId = "0DA27741-1AFD-43F2-A947-40AFBF8D6498";
layerId = "13A3DD5D-E91B-4961-8595-F8141D3FA442";
width = 600;
}
);
leftKerningGroup = N;
leftMetricsKey = B;
rightKerningGroup = P;
rightMetricsKey = P;
unicode = 0411;
},
{
glyphname = "Ge-cy";
lastChange = "2018-07-29 15:01:05 +0000";
layers = (
{
layerId = "CAA188E2-8C62-414B-93AE-B576BEB044DB";
paths = (
{
closed = 1;
nodes = (
"70 0 LINE",
"112 0 LINE",
"112 700 LINE",
"70 700 LINE"
);
},
{
closed = 1;
nodes = (
"70 678 LINE",
"510 678 LINE",
"510 720 LINE",
"70 720 LINE"
);
}
);
width = 520;
},
{
layerId = "0DA27741-1AFD-43F2-A947-40AFBF8D6498";
paths = (
{
closed = 1;
nodes = (
"70 0 LINE",
"206 0 LINE",
"206 700 LINE",
"70 700 LINE"
);
},
{
closed = 1;
nodes = (
"70 593 LINE",
"540 593 LINE",
"540 720 LINE",
"70 720 LINE"
);
}
);
width = 550;
},
{
associatedMasterId = "0DA27741-1AFD-43F2-A947-40AFBF8D6498";
layerId = "A2873047-0ED6-4C67-9B4D-3870B51BD5C6";
width = 600;
},
{
associatedMasterId = "0DA27741-1AFD-43F2-A947-40AFBF8D6498";
layerId = "55314CA7-5524-4D70-B802-98D4FAE25636";
width = 488;
},
{
associatedMasterId = "0DA27741-1AFD-43F2-A947-40AFBF8D6498";
layerId = "13A3DD5D-E91B-4961-8595-F8141D3FA442";
width = 582;
}
);
leftKerningGroup = B;
leftMetricsKey = B;
rightKerningGroup = T;
rightMetricsKey = T;
unicode = 0413;
},
{
glyphname = "De-cy";
lastChange = "2018-07-10 05:51:16 +0000";
layers = (
{
layerId = "CAA188E2-8C62-414B-93AE-B576BEB044DB";
paths = (
{
closed = 1;
nodes = (
"638 720 LINE",
"233 720 LINE",
"183 287 LINE",
"164 125 OFFCURVE",
"109 42 OFFCURVE",
"20 42 CURVE",
"20 -80 LINE",
"62 -80 LINE",
"62 0 LINE",
"664 0 LINE",
"664 -80 LINE",
"706 -80 LINE",
"706 42 LINE",
"638 42 LINE"
);
},
{
closed = 1;
nodes = (
"131 42 LINE",
"180 87 OFFCURVE",
"211 167 OFFCURVE",
"224 282 CURVE",
"271 678 LINE",
"596 678 LINE",
"596 42 LINE"
);
}
);
width = 756;
},
{
layerId = "0DA27741-1AFD-43F2-A947-40AFBF8D6498";
paths = (
{
closed = 1;
nodes = (
"680 720 LINE",
"182 720 LINE",
"133 299 LINE",
"120 186 OFFCURVE",
"88 127 OFFCURVE",
"38 127 CURVE",
"38 -90 LINE",
"165 -90 LINE",
"165 0 LINE",
"597 0 LINE",
"597 -90 LINE",
"725 -90 LINE",
"725 127 LINE",
"680 127 LINE"
);
},
{
closed = 1;
nodes = (
"214 127 LINE",
"243 163 OFFCURVE",
"252 218 OFFCURVE",
"260 284 CURVE",
"296 593 LINE",
"553 593 LINE",
"553 127 LINE"
);
}
);
width = 775;
},
{
associatedMasterId = "0DA27741-1AFD-43F2-A947-40AFBF8D6498";
layerId = "A2873047-0ED6-4C67-9B4D-3870B51BD5C6";
width = 600;
},
{
associatedMasterId = "0DA27741-1AFD-43F2-A947-40AFBF8D6498";
layerId = "55314CA7-5524-4D70-B802-98D4FAE25636";
width = 771;
},
{
associatedMasterId = "0DA27741-1AFD-43F2-A947-40AFBF8D6498";
layerId = "13A3DD5D-E91B-4961-8595-F8141D3FA442";
width = 627;
}
);
leftKerningGroup = A;
rightKerningGroup = N;
unicode = 0414;
},
{
glyphname = "Zhe-cy";
lastChange = "2018-06-29 15:15:08 +0000";
layers = (
{
layerId = "CAA188E2-8C62-414B-93AE-B576BEB044DB";
paths = (
{
closed = 1;
nodes = (
"55 0 LINE",
"285 354 LINE",
"419 354 LINE",
"419 0 LINE",
"461 0 LINE",
"461 354 LINE",
"595 354 LINE",
"825 0 LINE",
"875 0 LINE",
"632 375 LINE",
"856 720 LINE",
"806 720 LINE",
"595 396 LINE",
"461 396 LINE",
"461 720 LINE",
"419 720 LINE",
"419 396 LINE",
"285 396 LINE",
"74 720 LINE",
"24 720 LINE",
"248 375 LINE",
"5 0 LINE"
);
}
);
width = 880;
},
{
layerId = "0DA27741-1AFD-43F2-A947-40AFBF8D6498";
paths = (
{
closed = 1;
nodes = (
"170 0 LINE",
"369 322 LINE",
"449 322 LINE",
"449 0 LINE",
"587 0 LINE",
"587 322 LINE",
"667 322 LINE",
"866 0 LINE",
"1031 0 LINE",
"787 375 LINE",
"1011 720 LINE",
"847 720 LINE",
"667 427 LINE",
"587 427 LINE",
"587 720 LINE",
"449 720 LINE",
"449 427 LINE",
"369 427 LINE",
"189 720 LINE",
"25 720 LINE",
"249 375 LINE",
"5 0 LINE"
);
}
);
width = 1036;
},
{
associatedMasterId = "0DA27741-1AFD-43F2-A947-40AFBF8D6498";
layerId = "A2873047-0ED6-4C67-9B4D-3870B51BD5C6";
width = 600;
},
{
associatedMasterId = "0DA27741-1AFD-43F2-A947-40AFBF8D6498";
layerId = "55314CA7-5524-4D70-B802-98D4FAE25636";
width = 968;
},
{
associatedMasterId = "0DA27741-1AFD-43F2-A947-40AFBF8D6498";
layerId = "13A3DD5D-E91B-4961-8595-F8141D3FA442";
width = 659;
}
);
leftKerningGroup = X;
leftMetricsKey = X;
rightKerningGroup = K;
rightMetricsKey = X;
unicode = 0416;
},
{
glyphname = "Ze-cy";
lastChange = "2018-07-29 15:01:10 +0000";
layers = (
{
layerId = "CAA188E2-8C62-414B-93AE-B576BEB044DB";
paths = (
{
closed = 1;
nodes = (
"100 568 LINE",
"104 605 OFFCURVE",
"122 638 OFFCURVE",
"154 659 CURVE",
"191 683 OFFCURVE",
"238 693 OFFCURVE",
"285 693 CURVE SMOOTH",
"332 693 OFFCURVE",
"379 683 OFFCURVE",
"415 659 CURVE",
"452 635 OFFCURVE",
"472 594 OFFCURVE",
"471 549 CURVE SMOOTH",
"472 505 OFFCURVE",
"452 464 OFFCURVE",
"415 440 CURVE",
"379 416 OFFCURVE",
"332 406 OFFCURVE",
"285 406 CURVE",
"227 406 LINE",
"227 364 LINE",
"285 364 LINE",
"337 363 OFFCURVE",
"389 352 OFFCURVE",
"429 322 CURVE",
"469 294 OFFCURVE",
"488 246 OFFCURVE",
"487 195 CURVE SMOOTH",
"488 145 OFFCURVE",
"469 97 OFFCURVE",
"429 68 CURVE",
"389 39 OFFCURVE",
"337 27 OFFCURVE",
"285 27 CURVE SMOOTH",
"233 27 OFFCURVE",
"180 39 OFFCURVE",
"141 68 CURVE",
"107 93 OFFCURVE",
"88 132 OFFCURVE",
"83 174 CURVE",
"40 166 LINE",
"45 113 OFFCURVE",
"72 65 OFFCURVE",
"115 34 CURVE",
"166 -3 OFFCURVE",
"227 -15 OFFCURVE",
"285 -15 CURVE SMOOTH",
"343 -15 OFFCURVE",
"404 -3 OFFCURVE",
"455 34 CURVE",
"507 72 OFFCURVE",
"532 129 OFFCURVE",
"532 195 CURVE SMOOTH",
"532 261 OFFCURVE",
"507 319 OFFCURVE",
"455 357 CURVE",
"439 369 OFFCURVE",
"421 378 OFFCURVE",
"403 385 CURVE",
"416 390 OFFCURVE",
"428 396 OFFCURVE",
"440 404 CURVE",
"489 436 OFFCURVE",
"516 489 OFFCURVE",
"516 549 CURVE SMOOTH",
"516 608 OFFCURVE",
"493 658 OFFCURVE",
"440 695 CURVE",
"392 726 OFFCURVE",
"337 735 OFFCURVE",
"285 735 CURVE SMOOTH",
"233 735 OFFCURVE",
"178 726 OFFCURVE",
"130 695 CURVE",
"88 666 OFFCURVE",
"61 625 OFFCURVE",
"56 575 CURVE"
);
}
);
width = 572;
},
{
layerId = "0DA27741-1AFD-43F2-A947-40AFBF8D6498";
paths = (
{
closed = 1;
nodes = (
"212 531 LINE",
"213 555 OFFCURVE",
"223 575 OFFCURVE",
"243 588 CURVE",
"263 602 OFFCURVE",
"291 608 OFFCURVE",
"319 608 CURVE SMOOTH",
"347 608 OFFCURVE",
"375 602 OFFCURVE",
"395 588 CURVE",
"416 575 OFFCURVE",
"427 554 OFFCURVE",
"427 529 CURVE SMOOTH",
"427 503 OFFCURVE",
"416 482 OFFCURVE",
"395 469 CURVE",
"375 455 OFFCURVE",
"347 450 OFFCURVE",
"319 449 CURVE",
"274 449 LINE",
"274 319 LINE",
"319 319 LINE",
"352 319 OFFCURVE",
"386 311 OFFCURVE",
"410 293 CURVE",
"436 276 OFFCURVE",
"447 247 OFFCURVE",
"447 216 CURVE SMOOTH",
"447 184 OFFCURVE",
"436 156 OFFCURVE",
"410 138 CURVE",
"386 120 OFFCURVE",
"352 113 OFFCURVE",
"319 112 CURVE SMOOTH",
"286 111 OFFCURVE",
"252 120 OFFCURVE",
"228 138 CURVE",
"205 154 OFFCURVE",
"193 181 OFFCURVE",
"192 210 CURVE",
"50 186 LINE",
"58 121 OFFCURVE",
"93 63 OFFCURVE",
"148 28 CURVE",
"195 -2 OFFCURVE",
"257 -15 OFFCURVE",
"319 -15 CURVE SMOOTH",
"378 -15 OFFCURVE",
"441 -4 OFFCURVE",
"491 28 CURVE",
"555 69 OFFCURVE",
"591 139 OFFCURVE",
"591 216 CURVE SMOOTH",
"591 248 OFFCURVE",
"585 285 OFFCURVE",
"567 319 CURVE",
"554 345 OFFCURVE",
"535 370 OFFCURVE",
"513 388 CURVE",
"525 400 OFFCURVE",
"536 413 OFFCURVE",
"545 429 CURVE",
"564 461 OFFCURVE",
"571 498 OFFCURVE",
"571 529 CURVE SMOOTH",
"571 602 OFFCURVE",
"533 666 OFFCURVE",
"470 702 CURVE",
"431 725 OFFCURVE",
"369 735 OFFCURVE",
"319 735 CURVE SMOOTH",
"273 735 OFFCURVE",
"210 726 OFFCURVE",
"169 702 CURVE",
"116 672 OFFCURVE",
"78 621 OFFCURVE",
"70 555 CURVE"
);
}
);
width = 641;
},
{
associatedMasterId = "0DA27741-1AFD-43F2-A947-40AFBF8D6498";
layerId = "A2873047-0ED6-4C67-9B4D-3870B51BD5C6";
width = 600;
},
{
associatedMasterId = "0DA27741-1AFD-43F2-A947-40AFBF8D6498";
layerId = "55314CA7-5524-4D70-B802-98D4FAE25636";
width = 594;
},
{
associatedMasterId = "0DA27741-1AFD-43F2-A947-40AFBF8D6498";
layerId = "13A3DD5D-E91B-4961-8595-F8141D3FA442";
width = 599;
}
);
leftKerningGroup = O;
leftMetricsKey = O;
rightKerningGroup = B;
rightMetricsKey = O;
unicode = 0417;
},
{
glyphname = "El-cy";
lastChange = "2018-07-29 15:01:18 +0000";
layers = (
{
layerId = "CAA188E2-8C62-414B-93AE-B576BEB044DB";
paths = (
{
closed = 1;
nodes = (
"208 720 LINE",
"156 273 LINE",
"139 130 OFFCURVE",
"124 42 OFFCURVE",
"20 42 CURVE",
"20 0 LINE",
"166 0 OFFCURVE",
"182 136 OFFCURVE",
"197 268 CURVE",
"245 678 LINE",
"572 678 LINE",
"572 0 LINE",
"614 0 LINE",
"614 720 LINE"
);
}
);
width = 684;
},
{
layerId = "0DA27741-1AFD-43F2-A947-40AFBF8D6498";
paths = (
{
closed = 1;
nodes = (
"181 720 LINE",
"120 219 LINE SMOOTH",
"113 159 OFFCURVE",
"85 122 OFFCURVE",
"20 120 CURVE",
"20 0 LINE",
"155 -19 OFFCURVE",
"226 46 OFFCURVE",
"243 190 CURVE SMOOTH",
"291 593 LINE",
"534 593 LINE",
"534 0 LINE",
"670 0 LINE",
"670 720 LINE"
);
}
);
width = 740;
},
{
associatedMasterId = "0DA27741-1AFD-43F2-A947-40AFBF8D6498";
layerId = "A2873047-0ED6-4C67-9B4D-3870B51BD5C6";
width = 600;
},
{
associatedMasterId = "0DA27741-1AFD-43F2-A947-40AFBF8D6498";
layerId = "55314CA7-5524-4D70-B802-98D4FAE25636";
width = 666;
},
{
associatedMasterId = "0DA27741-1AFD-43F2-A947-40AFBF8D6498";
layerId = "13A3DD5D-E91B-4961-8595-F8141D3FA442";
width = 611;
}
);
leftKerningGroup = A;
rightKerningGroup = H;
rightMetricsKey = H;
unicode = 041B;
},
{
glyphname = "U-cy";
lastChange = "2018-06-29 15:15:08 +0000";
layers = (
{
layerId = "CAA188E2-8C62-414B-93AE-B576BEB044DB";
paths = (
{
closed = 1;
nodes = (
"303 200 LINE",
"65 720 LINE",
"20 720 LINE",
"282 153 LINE",
"247 81 OFFCURVE",
"230 52 OFFCURVE",
"198 35 CURVE",
"183 27 OFFCURVE",
"164 24 OFFCURVE",
"143 24 CURVE SMOOTH",
"124 24 OFFCURVE",
"103 29 OFFCURVE",
"86 36 CURVE",
"70 0 LINE",
"94 -9 OFFCURVE",
"117 -15 OFFCURVE",
"143 -15 CURVE SMOOTH",
"166 -15 OFFCURVE",
"192 -12 OFFCURVE",
"217 0 CURVE",
"253 19 OFFCURVE",
"286 63 OFFCURVE",
"308 110 CURVE SMOOTH",
"589 720 LINE",
"544 720 LINE"
);
}
);
width = 599;
},
{
layerId = "0DA27741-1AFD-43F2-A947-40AFBF8D6498";
paths = (
{
closed = 1;
nodes = (
"335 328 LINE",
"158 720 LINE",
"20 720 LINE",
"270 187 LINE",
"267 181 OFFCURVE",
"243 134 OFFCURVE",
"218 119 CURVE SMOOTH",
"208 113 OFFCURVE",
"197 111 OFFCURVE",
"184 111 CURVE SMOOTH",
"173 111 OFFCURVE",
"149 118 OFFCURVE",
"144 120 CURVE",
"100 0 LINE",
"127 -9 OFFCURVE",
"153 -15 OFFCURVE",
"184 -15 CURVE SMOOTH",
"206 -15 OFFCURVE",
"248 -7 OFFCURVE",
"272 6 CURVE",
"319 32 OFFCURVE",
"343 71 OFFCURVE",
"373 131 CURVE",
"651 720 LINE",
"511 720 LINE"
);
}
);
width = 661;
},
{
associatedMasterId = "0DA27741-1AFD-43F2-A947-40AFBF8D6498";
layerId = "A2873047-0ED6-4C67-9B4D-3870B51BD5C6";
width = 600;
},
{
associatedMasterId = "0DA27741-1AFD-43F2-A947-40AFBF8D6498";
layerId = "55314CA7-5524-4D70-B802-98D4FAE25636";
width = 536;
},
{
associatedMasterId = "0DA27741-1AFD-43F2-A947-40AFBF8D6498";
layerId = "13A3DD5D-E91B-4961-8595-F8141D3FA442";
width = 590;
}
);
leftKerningGroup = Y;
leftMetricsKey = y;
rightKerningGroup = Y;
rightMetricsKey = y;
unicode = 0423;
},
{
glyphname = "Ef-cy";
lastChange = "2018-07-29 15:01:30 +0000";
layers = (
{
layerId = "CAA188E2-8C62-414B-93AE-B576BEB044DB";
paths = (
{
closed = 1;
nodes = (
"288 92 OFFCURVE",
"205 110 OFFCURVE",
"137 164 CURVE",
"69 217 OFFCURVE",
"37 302 OFFCURVE",
"40 383 CURVE SMOOTH",
"37 464 OFFCURVE",
"69 549 OFFCURVE",
"137 602 CURVE",
"204 653 OFFCURVE",
"283 672 OFFCURVE",
"376 676 CURVE SMOOTH",
"465 672 OFFCURVE",
"546 655 OFFCURVE",
"615 602 CURVE",
"683 549 OFFCURVE",
"715 464 OFFCURVE",
"712 383 CURVE SMOOTH",
"715 302 OFFCURVE",
"683 217 OFFCURVE",
"615 164 CURVE",
"547 112 OFFCURVE",
"467 92 OFFCURVE",
"376 90 CURVE SMOOTH"
);
},
{
closed = 1;
nodes = (
"455 135 OFFCURVE",
"527 151 OFFCURVE",
"590 200 CURVE",
"646 246 OFFCURVE",
"667 312 OFFCURVE",
"667 383 CURVE SMOOTH",
"667 454 OFFCURVE",
"647 520 OFFCURVE",
"590 566 CURVE",
"534 612 OFFCURVE",
"455 632 OFFCURVE",
"376 634 CURVE SMOOTH",
"300 632 OFFCURVE",
"220 614 OFFCURVE",
"162 566 CURVE",
"105 520 OFFCURVE",
"85 454 OFFCURVE",
"85 383 CURVE SMOOTH",
"85 312 OFFCURVE",
"106 246 OFFCURVE",
"162 200 CURVE",
"223 152 OFFCURVE",
"294 135 OFFCURVE",
"376 133 CURVE SMOOTH"
);
},
{
closed = 1;
nodes = (
"355 0 LINE",
"355 720 LINE",
"397 720 LINE",
"397 0 LINE"
);
}
);
width = 752;
},
{
layerId = "0DA27741-1AFD-43F2-A947-40AFBF8D6498";
paths = (
{
closed = 1;
nodes = (
"325 90 OFFCURVE",
"243 101 OFFCURVE",
"169 150 CURVE",
"94 201 OFFCURVE",
"50 283 OFFCURVE",
"50 380 CURVE SMOOTH",
"50 475 OFFCURVE",
"90 558 OFFCURVE",
"167 612 CURVE",
"242 662 OFFCURVE",
"324 674 OFFCURVE",
"400 675 CURVE SMOOTH",
"475 676 OFFCURVE",
"557 662 OFFCURVE",
"632 612 CURVE",
"710 559 OFFCURVE",
"750 475 OFFCURVE",
"750 380 CURVE SMOOTH",
"750 283 OFFCURVE",
"710 203 OFFCURVE",
"631 150 CURVE",
"556 101 OFFCURVE",
"475 90 OFFCURVE",
"400 90 CURVE SMOOTH"
);
},
{
closed = 1;
nodes = (
"458 225 OFFCURVE",
"515 239 OFFCURVE",
"552 266 CURVE",
"590 292 OFFCURVE",
"606 329 OFFCURVE",
"606 380 CURVE SMOOTH",
"606 431 OFFCURVE",
"588 468 OFFCURVE",
"551 493 CURVE",
"514 519 OFFCURVE",
"457 531 OFFCURVE",
"400 531 CURVE SMOOTH",
"342 531 OFFCURVE",
"286 519 OFFCURVE",
"249 493 CURVE",
"211 468 OFFCURVE",
"194 431 OFFCURVE",
"194 380 CURVE SMOOTH",
"194 329 OFFCURVE",
"210 292 OFFCURVE",
"247 266 CURVE",
"285 239 OFFCURVE",
"342 227 OFFCURVE",
"400 226 CURVE SMOOTH"
);
},
{
closed = 1;
nodes = (
"332 0 LINE",
"332 720 LINE",
"467 720 LINE",
"467 0 LINE"
);
}
);
width = 800;
},
{
associatedMasterId = "0DA27741-1AFD-43F2-A947-40AFBF8D6498";
layerId = "A2873047-0ED6-4C67-9B4D-3870B51BD5C6";
width = 600;
},
{
associatedMasterId = "0DA27741-1AFD-43F2-A947-40AFBF8D6498";
layerId = "55314CA7-5524-4D70-B802-98D4FAE25636";
width = 831;
},
{
associatedMasterId = "0DA27741-1AFD-43F2-A947-40AFBF8D6498";
layerId = "13A3DD5D-E91B-4961-8595-F8141D3FA442";
width = 637;
}
);
leftKerningGroup = O;
leftMetricsKey = O;
rightKerningGroup = O;
rightMetricsKey = O;
unicode = 0424;
},
{
glyphname = "Che-cy";
lastChange = "2018-07-29 15:03:49 +0000";
layers = (
{
layerId = "CAA188E2-8C62-414B-93AE-B576BEB044DB";
paths = (
{
closed = 1;
nodes = (
"505 535 LINE",
"505 511 OFFCURVE",
"502 481 OFFCURVE",
"499 465 CURVE SMOOTH",
"492 426 OFFCURVE",
"479 388 OFFCURVE",
"457 357 CURVE",
"420 307 OFFCURVE",
"363 281 OFFCURVE",
"292 281 CURVE SMOOTH",
"235 281 OFFCURVE",
"176 300 OFFCURVE",
"138 347 CURVE",
"83 408 OFFCURVE",
"82 486 OFFCURVE",
"82 586 CURVE",
"82 720 LINE",
"40 720 LINE",
"40 586 LINE",
"40 479 OFFCURVE",
"43 392 OFFCURVE",
"105 320 CURVE",
"151 266 OFFCURVE",
"217 240 OFFCURVE",
"291 240 CURVE SMOOTH",
"384 240 OFFCURVE",
"460 279 OFFCURVE",
"505 359 CURVE",
"505 0 LINE",
"547 0 LINE",
"547 720 LINE",
"505 720 LINE"
);
}
);
width = 617;
},
{
layerId = "0DA27741-1AFD-43F2-A947-40AFBF8D6498";
paths = (
{
closed = 1;
nodes = (
"479 550 LINE",
"479 534 OFFCURVE",
"478 518 OFFCURVE",
"476 502 CURVE",
"470 471 OFFCURVE",
"460 442 OFFCURVE",
"443 420 CURVE",
"419 388 OFFCURVE",
"376 372 OFFCURVE",
"333 372 CURVE SMOOTH",
"291 372 OFFCURVE",
"251 386 OFFCURVE",
"223 423 CURVE SMOOTH",
"196 459 OFFCURVE",
"188 509 OFFCURVE",
"188 560 CURVE",
"188 720 LINE",
"50 720 LINE",
"50 529 LINE",
"50 464 OFFCURVE",
"64 397 OFFCURVE",
"101 344 CURVE",
"147 279 OFFCURVE",
"231 240 OFFCURVE",
"312 240 CURVE SMOOTH",
"371 240 OFFCURVE",
"434 260 OFFCURVE",
"479 295 CURVE",
"479 0 LINE",
"616 0 LINE",
"616 720 LINE",
"479 720 LINE"
);
}
);
width = 686;
},
{
associatedMasterId = "0DA27741-1AFD-43F2-A947-40AFBF8D6498";
layerId = "A2873047-0ED6-4C67-9B4D-3870B51BD5C6";
width = 600;
},
{
associatedMasterId = "0DA27741-1AFD-43F2-A947-40AFBF8D6498";
layerId = "55314CA7-5524-4D70-B802-98D4FAE25636";
width = 651;
},
{
associatedMasterId = "0DA27741-1AFD-43F2-A947-40AFBF8D6498";
layerId = "13A3DD5D-E91B-4961-8595-F8141D3FA442";
width = 608;
}
);
leftKerningGroup = O;
leftMetricsKey = O;
rightKerningGroup = N;
rightMetricsKey = M;
unicode = 0427;
},
{
glyphname = "Sha-cy";
lastChange = "2018-06-29 15:15:08 +0000";
layers = (
{
components = (
{
name = "Ge-cy";
transform = "{1, 0, 0, -1, 0, 720}";
},
{
name = "Ge-cy";
transform = "{-1, 0, 0, -1, 880, 720}";
}
);
layerId = "CAA188E2-8C62-414B-93AE-B576BEB044DB";
paths = (
{
closed = 1;
nodes = (
"419 0 LINE",
"461 0 LINE",
"461 720 LINE",
"419 720 LINE"
);
}
);
width = 880;
},
{
components = (
{
name = "Ge-cy";
transform = "{1, 0, 0, -1, 0, 720}";
},
{
name = "Ge-cy";
transform = "{-1, 0, 0, -1, 960, 720}";
}
);
layerId = "0DA27741-1AFD-43F2-A947-40AFBF8D6498";
paths = (
{
closed = 1;
nodes = (
"412 0 LINE",
"548 0 LINE",
"548 720 LINE",
"412 720 LINE"
);
}
);
width = 960;
},
{
associatedMasterId = "0DA27741-1AFD-43F2-A947-40AFBF8D6498";
layerId = "A2873047-0ED6-4C67-9B4D-3870B51BD5C6";
width = 600;
},
{
associatedMasterId = "0DA27741-1AFD-43F2-A947-40AFBF8D6498";
layerId = "55314CA7-5524-4D70-B802-98D4FAE25636";
width = 950;
},
{
associatedMasterId = "0DA27741-1AFD-43F2-A947-40AFBF8D6498";
layerId = "13A3DD5D-E91B-4961-8595-F8141D3FA442";
width = 656;
}
);
leftKerningGroup = H;
leftMetricsKey = H;
rightKerningGroup = H;
rightMetricsKey = H;
unicode = 0428;
},
{
glyphname = "Dzhe-cy";
lastChange = "2018-07-29 15:03:52 +0000";
layers = (
{
components = (
{
name = "Ge-cy";
transform = "{1, 0, 0, -1, 0, 720}";
},
{
alignment = -1;
name = "Ge-cy";
transform = "{-1, 0, 0, -1, 710, 720}";
}
);
layerId = "CAA188E2-8C62-414B-93AE-B576BEB044DB";
paths = (
{
closed = 1;
nodes = (
"334 -120 LINE",
"376 -120 LINE",
"376 21 LINE",
"334 21 LINE"
);
}
);
width = 710;
},
{
components = (
{
name = "Ge-cy";
transform = "{1, 0, 0, -1, 0, 720}";
},
{
alignment = -1;
name = "Ge-cy";
transform = "{-1, 0, 0, -1, 780, 720}";
}
);
layerId = "0DA27741-1AFD-43F2-A947-40AFBF8D6498";
paths = (
{
closed = 1;
nodes = (
"322 -120 LINE",
"458 -120 LINE",
"458 21 LINE",
"322 21 LINE"
);
}
);
width = 780;
},
{
associatedMasterId = "0DA27741-1AFD-43F2-A947-40AFBF8D6498";
layerId = "A2873047-0ED6-4C67-9B4D-3870B51BD5C6";
width = 600;
},
{
associatedMasterId = "0DA27741-1AFD-43F2-A947-40AFBF8D6498";
layerId = "55314CA7-5524-4D70-B802-98D4FAE25636";
width = 763;
},
{
associatedMasterId = "0DA27741-1AFD-43F2-A947-40AFBF8D6498";
layerId = "13A3DD5D-E91B-4961-8595-F8141D3FA442";
width = 626;
}
);
leftKerningGroup = "Sha-cy";
leftMetricsKey = "Sha-cy";
rightKerningGroup = "Sha-cy";
rightMetricsKey = "Sha-cy";
unicode = 040F;
},
{
glyphname = "Hardsign-cy";
lastChange = "2018-06-29 15:15:08 +0000";
layers = (
{
components = (
{
name = "Softsign-cy";
transform = "{1, 0, 0, 1, 10, 0}";
}
);
layerId = "CAA188E2-8C62-414B-93AE-B576BEB044DB";
paths = (
{
closed = 1;
nodes = (
"-10 678 LINE",
"130 678 LINE",
"130 720 LINE",
"-10 720 LINE"
);
}
);
width = 591;
},
{
components = (
{
name = "Softsign-cy";
transform = "{1, 0, 0, 1, 20, 0}";
}
);
layerId = "0DA27741-1AFD-43F2-A947-40AFBF8D6498";
paths = (
{
closed = 1;
nodes = (
"-10 615 LINE",
"140 615 LINE",
"140 720 LINE",
"-10 720 LINE"
);
}
);
width = 662;
},
{
associatedMasterId = "0DA27741-1AFD-43F2-A947-40AFBF8D6498";
layerId = "A2873047-0ED6-4C67-9B4D-3870B51BD5C6";
width = 600;
},
{
associatedMasterId = "0DA27741-1AFD-43F2-A947-40AFBF8D6498";
layerId = "55314CA7-5524-4D70-B802-98D4FAE25636";
width = 569;
},
{
associatedMasterId = "0DA27741-1AFD-43F2-A947-40AFBF8D6498";
layerId = "13A3DD5D-E91B-4961-8595-F8141D3FA442";
width = 595;
}
);
leftKerningGroup = T;
rightKerningGroup = B;
unicode = 042A;
},
{
glyphname = "Nje-cy";
lastChange = "2018-07-29 15:01:56 +0000";
layers = (
{
components = (
{
alignment = -1;
name = "Softsign-cy";
transform = "{1, 0, 0, 1, 438, 0}";
}
);
layerId = "CAA188E2-8C62-414B-93AE-B576BEB044DB";
paths = (
{
closed = 1;
nodes = (
"70 0 LINE",
"112 0 LINE",
"112 720 LINE",
"70 720 LINE"
);
},
{
closed = 1;
nodes = (
"100 390 LINE",
"536 390 LINE",
"536 432 LINE",
"100 432 LINE"
);
}
);
width = 1049;
},
{
components = (
{
alignment = -1;
name = "Softsign-cy";
transform = "{1, 0, 0, 1, 458, 0}";
}
);
layerId = "0DA27741-1AFD-43F2-A947-40AFBF8D6498";
paths = (
{
closed = 1;
nodes = (
"70 0 LINE",
"206 0 LINE",
"206 720 LINE",
"70 720 LINE"
);
},
{
closed = 1;
nodes = (
"190 348 LINE",
"590 348 LINE",
"590 475 LINE",
"190 475 LINE"
);
}
);
width = 1118;
},
{
associatedMasterId = "0DA27741-1AFD-43F2-A947-40AFBF8D6498";
layerId = "A2873047-0ED6-4C67-9B4D-3870B51BD5C6";
width = 600;
},
{
associatedMasterId = "0DA27741-1AFD-43F2-A947-40AFBF8D6498";
layerId = "55314CA7-5524-4D70-B802-98D4FAE25636";
width = 1138;
},
{
associatedMasterId = "0DA27741-1AFD-43F2-A947-40AFBF8D6498";
layerId = "13A3DD5D-E91B-4961-8595-F8141D3FA442";
width = 686;
}
);
leftKerningGroup = "En-cy";
leftMetricsKey = "En-cy";
rightKerningGroup = "Softsign-cy";
rightMetricsKey = "Softsign-cy";
unicode = 040A;
},
{
glyphname = "Ereversed-cy";
lastChange = "2018-06-29 15:15:08 +0000";
layers = (
{
components = (
{
name = C;
transform = "{-1, 0, 0, 1, 712, 0}";
}
);
layerId = "CAA188E2-8C62-414B-93AE-B576BEB044DB";
paths = (
{
closed = 1;
nodes = (
"357 339 LINE",
"627 339 LINE",
"627 381 LINE",
"357 381 LINE"
);
}
);
width = 712;
},
{
components = (
{
name = C;
transform = "{-1, 0, 0, 1, 761, 0}";
}
);
layerId = "0DA27741-1AFD-43F2-A947-40AFBF8D6498";
paths = (
{
closed = 1;
nodes = (
"321 292 LINE",
"580 292 LINE",
"580 428 LINE",
"321 428 LINE"
);
}
);
width = 761;
},
{
associatedMasterId = "0DA27741-1AFD-43F2-A947-40AFBF8D6498";
layerId = "A2873047-0ED6-4C67-9B4D-3870B51BD5C6";
width = 600;
},
{
associatedMasterId = "0DA27741-1AFD-43F2-A947-40AFBF8D6498";
layerId = "55314CA7-5524-4D70-B802-98D4FAE25636";
width = 683;
},
{
associatedMasterId = "0DA27741-1AFD-43F2-A947-40AFBF8D6498";
layerId = "13A3DD5D-E91B-4961-8595-F8141D3FA442";
width = 613;
}
);
leftKerningGroup = X;
rightKerningGroup = O;
rightMetricsKey = O;
unicode = 042D;
},
{
glyphname = "Tshe-cy";
lastChange = "2018-07-29 15:39:40 +0000";
layers = (
{
components = (
{
name = "Shha-cy";
}
);
layerId = "CAA188E2-8C62-414B-93AE-B576BEB044DB";
paths = (
{
closed = 1;
nodes = (
"0 678 LINE",
"270 678 LINE",
"270 720 LINE",
"0 720 LINE"
);
}
);
width = 617;
},
{
components = (
{
name = "Shha-cy";
}
);
layerId = "0DA27741-1AFD-43F2-A947-40AFBF8D6498";
paths = (
{
closed = 1;
nodes = (
"0 600 LINE",
"360 600 LINE",
"360 720 LINE",
"0 720 LINE"
);
}
);
width = 686;
},
{
associatedMasterId = "0DA27741-1AFD-43F2-A947-40AFBF8D6498";
layerId = "A2873047-0ED6-4C67-9B4D-3870B51BD5C6";
width = 600;
},
{
associatedMasterId = "0DA27741-1AFD-43F2-A947-40AFBF8D6498";
layerId = "55314CA7-5524-4D70-B802-98D4FAE25636";
width = 651;
},
{
associatedMasterId = "0DA27741-1AFD-43F2-A947-40AFBF8D6498";
layerId = "13A3DD5D-E91B-4961-8595-F8141D3FA442";
width = 608;
}
);
leftKerningGroup = V;
rightKerningGroup = B;
rightMetricsKey = "Shha-cy";
unicode = 040B;
},
{
glyphname = "Iu-cy";
lastChange = "2018-07-29 15:02:15 +0000";
layers = (
{
components = (
{
name = O;
transform = "{1, 0, 0, 1, 280, 0}";
}
);
layerId = "CAA188E2-8C62-414B-93AE-B576BEB044DB";
paths = (
{
closed = 1;
nodes = (
"70 0 LINE",
"112 0 LINE",
"112 720 LINE",
"70 720 LINE"
);
},
{
closed = 1;
nodes = (
"106 339 LINE",
"346 339 LINE",
"346 381 LINE",
"106 381 LINE"
);
}
);
width = 1006;
},
{
components = (
{
name = O;
transform = "{1, 0, 0, 1, 280, 0}";
}
);
layerId = "0DA27741-1AFD-43F2-A947-40AFBF8D6498";
paths = (
{
closed = 1;
nodes = (
"70 0 LINE",
"206 0 LINE",
"206 720 LINE",
"70 720 LINE"
);
},
{
closed = 1;
nodes = (
"106 292 LINE",
"346 292 LINE",
"346 428 LINE",
"106 428 LINE"
);
}
);
width = 1078;
},
{
associatedMasterId = "0DA27741-1AFD-43F2-A947-40AFBF8D6498";
layerId = "A2873047-0ED6-4C67-9B4D-3870B51BD5C6";
width = 600;
},
{
associatedMasterId = "0DA27741-1AFD-43F2-A947-40AFBF8D6498";
layerId = "55314CA7-5524-4D70-B802-98D4FAE25636";
width = 1084;
},
{
associatedMasterId = "0DA27741-1AFD-43F2-A947-40AFBF8D6498";
layerId = "13A3DD5D-E91B-4961-8595-F8141D3FA442";
width = 677;
}
);
leftKerningGroup = H;
leftMetricsKey = H;
rightKerningGroup = O;
rightMetricsKey = O;
unicode = 042E;
},
{
glyphname = "Dje-cy";
lastChange = "2018-06-29 15:15:08 +0000";
layers = (
{
components = (
{
name = "line-vertical-de";
transform = "{1, 0, 0, -1, 70, 720}";
}
);
layerId = "CAA188E2-8C62-414B-93AE-B576BEB044DB";
paths = (
{
closed = 1;
nodes = (
"0 678 LINE",
"270 678 LINE",
"270 720 LINE",
"0 720 LINE"
);
},
{
closed = 1;
nodes = (
"293 0 LINE",
"344 2 OFFCURVE",
"400 27 OFFCURVE",
"436 63 CURVE",
"495 121 OFFCURVE",
"516 205 OFFCURVE",
"516 291 CURVE SMOOTH",
"516 369 OFFCURVE",
"499 439 OFFCURVE",
"453 490 CURVE",
"413 535 OFFCURVE",
"351 555 OFFCURVE",
"295 555 CURVE SMOOTH",
"249 555 OFFCURVE",
"201 543 OFFCURVE",
"163 515 CURVE",
"119 483 OFFCURVE",
"93 433 OFFCURVE",
"82 384 CURVE",
"70 334 OFFCURVE",
"73 284 OFFCURVE",
"73 238 CURVE",
"112 238 LINE",
"112 286 OFFCURVE",
"110 332 OFFCURVE",
"120 375 CURVE",
"131 418 OFFCURVE",
"152 458 OFFCURVE",
"187 482 CURVE",
"217 504 OFFCURVE",
"255 513 OFFCURVE",
"294 513 CURVE SMOOTH",
"340 513 OFFCURVE",
"391 496 OFFCURVE",
"422 462 CURVE",
"462 418 OFFCURVE",
"474 354 OFFCURVE",
"474 291 CURVE SMOOTH",
"474 214 OFFCURVE",
"456 142 OFFCURVE",
"407 93 CURVE",
"377 63 OFFCURVE",
"333 44 OFFCURVE",
"293 42 CURVE"
);
}
);
width = 556;
},
{
components = (
{
name = "line-vertical-de";
transform = "{1, 0, 0, -1, 80, 720}";
}
);
layerId = "0DA27741-1AFD-43F2-A947-40AFBF8D6498";
paths = (
{
closed = 1;
nodes = (
"0 600 LINE",
"360 600 LINE",
"360 720 LINE",
"0 720 LINE"
);
},
{
closed = 1;
nodes = (
"333 0 LINE",
"385 0 OFFCURVE",
"447 17 OFFCURVE",
"496 58 CURVE",
"562 116 OFFCURVE",
"586 197 OFFCURVE",
"586 295 CURVE SMOOTH",
"586 378 OFFCURVE",
"568 450 OFFCURVE",
"507 501 CURVE",
"460 540 OFFCURVE",
"407 555 OFFCURVE",
"341 555 CURVE SMOOTH",
"292 555 OFFCURVE",
"229 532 OFFCURVE",
"189 494 CURVE",
"152 457 OFFCURVE",
"129 409 OFFCURVE",
"122 356 CURVE",
"120 338 OFFCURVE",
"119 253 OFFCURVE",
"121 236 CURVE",
"217 236 LINE",
"217 269 OFFCURVE",
"217 300 OFFCURVE",
"222 327 CURVE",
"227 358 OFFCURVE",
"238 384 OFFCURVE",
"262 402 CURVE",
"280 416 OFFCURVE",
"305 424 OFFCURVE",
"332 424 CURVE SMOOTH",
"357 424 OFFCURVE",
"388 417 OFFCURVE",
"409 397 CURVE",
"435 373 OFFCURVE",
"448 330 OFFCURVE",
"448 285 CURVE SMOOTH",
"448 241 OFFCURVE",
"439 192 OFFCURVE",
"406 162 CURVE",
"387 146 OFFCURVE",
"361 138 OFFCURVE",
"333 138 CURVE"
);
}
);
width = 626;
},
{
associatedMasterId = "0DA27741-1AFD-43F2-A947-40AFBF8D6498";
layerId = "A2873047-0ED6-4C67-9B4D-3870B51BD5C6";
width = 600;
},
{
associatedMasterId = "0DA27741-1AFD-43F2-A947-40AFBF8D6498";
layerId = "55314CA7-5524-4D70-B802-98D4FAE25636";
width = 568;
},
{
associatedMasterId = "0DA27741-1AFD-43F2-A947-40AFBF8D6498";
layerId = "13A3DD5D-E91B-4961-8595-F8141D3FA442";
width = 595;
}
);
leftKerningGroup = V;
rightKerningGroup = b;
rightMetricsKey = b;
unicode = 0402;
},
{
glyphname = "Obarred-cy";
lastChange = "2018-06-29 15:15:08 +0000";
layers = (
{
components = (
{
name = O;
}
);
layerId = "CAA188E2-8C62-414B-93AE-B576BEB044DB";
paths = (
{
closed = 1;
nodes = (
"65 339 LINE",
"655 339 LINE",
"655 381 LINE",
"65 381 LINE"
);
}
);
width = 726;
},
{
components = (
{
name = O;
}
);
layerId = "0DA27741-1AFD-43F2-A947-40AFBF8D6498";
paths = (
{
closed = 1;
nodes = (
"145 292 LINE",
"625 292 LINE",
"625 428 LINE",
"145 428 LINE"
);
}
);
width = 778;
},
{
associatedMasterId = "0DA27741-1AFD-43F2-A947-40AFBF8D6498";
layerId = "A2873047-0ED6-4C67-9B4D-3870B51BD5C6";
width = 600;
},
{
associatedMasterId = "0DA27741-1AFD-43F2-A947-40AFBF8D6498";
layerId = "55314CA7-5524-4D70-B802-98D4FAE25636";
width = 738;
},
{
associatedMasterId = "0DA27741-1AFD-43F2-A947-40AFBF8D6498";
layerId = "13A3DD5D-E91B-4961-8595-F8141D3FA442";
width = 622;
}
);
leftKerningGroup = O;
rightKerningGroup = O;
unicode = 04E8;
},
{
glyphname = "De-cy.loclBGR";
lastChange = "2018-07-10 14:40:57 +0000";
layers = (
{
components = (
{
name = V;
transform = "{1, 0, 0, -1, 55, 720}";
}
);
layerId = "0DA27741-1AFD-43F2-A947-40AFBF8D6498";
paths = (
{
closed = 1;
nodes = (
"38 127 LINE",
"38 -90 LINE",
"165 -90 LINE",
"165 0 LINE",
"597 0 LINE",
"597 -90 LINE",
"725 -90 LINE",
"725 127 LINE"
);
}
);
width = 775;
},
{
components = (
{
name = V;
transform = "{1, 0, 0, -1, 74, 720}";
}
);
layerId = "CAA188E2-8C62-414B-93AE-B576BEB044DB";
paths = (
{
closed = 1;
nodes = (
"20 42 LINE",
"20 -80 LINE",
"62 -80 LINE",
"62 0 LINE",
"664 0 LINE",
"664 -80 LINE",
"706 -80 LINE",
"706 42 LINE"
);
}
);
width = 756;
}
);
leftKerningGroup = de;
rightKerningGroup = N;
},
{
glyphname = "be-cy";
lastChange = "2018-06-29 15:15:08 +0000";
layers = (
{
layerId = "CAA188E2-8C62-414B-93AE-B576BEB044DB";
paths = (
{
closed = 1;
nodes = (
"202 522 OFFCURVE",
"139 490 OFFCURVE",
"89 427 CURVE",
"100 517 OFFCURVE",
"124 589 OFFCURVE",
"181 629 CURVE SMOOTH",
"237 669 OFFCURVE",
"311 681 OFFCURVE",
"383 681 CURVE SMOOTH",
"419 681 OFFCURVE",
"456 677 OFFCURVE",
"494 671 CURVE",
"494 711 LINE",
"457 716 OFFCURVE",
"421 720 OFFCURVE",
"383 720 CURVE SMOOTH",
"306 720 OFFCURVE",
"222 712 OFFCURVE",
"156 662 CURVE SMOOTH",
"92 614 OFFCURVE",
"62 549 OFFCURVE",
"50 468 CURVE SMOOTH",
"42 417 OFFCURVE",
"40 373 OFFCURVE",
"40 252 CURVE SMOOTH",
"40 183 OFFCURVE",
"57 113 OFFCURVE",
"101 62 CURVE",
"147 8 OFFCURVE",
"220 -16 OFFCURVE",
"286 -15 CURVE SMOOTH",
"353 -16 OFFCURVE",
"425 8 OFFCURVE",
"471 62 CURVE",
"518 116 OFFCURVE",
"532 187 OFFCURVE",
"533 252 CURVE SMOOTH",
"532 318 OFFCURVE",
"518 389 OFFCURVE",
"471 443 CURVE",
"425 497 OFFCURVE",
"353 521 OFFCURVE",
"286 519 CURVE SMOOTH"
);
},
{
closed = 1;
nodes = (
"345 478 OFFCURVE",
"402 457 OFFCURVE",
"438 414 CURVE",
"475 372 OFFCURVE",
"488 311 OFFCURVE",
"488 252 CURVE SMOOTH",
"488 193 OFFCURVE",
"475 133 OFFCURVE",
"438 90 CURVE",
"402 47 OFFCURVE",
"345 27 OFFCURVE",
"286 27 CURVE SMOOTH",
"228 27 OFFCURVE",
"170 47 OFFCURVE",
"134 91 CURVE",
"99 131 OFFCURVE",
"85 192 OFFCURVE",
"85 255 CURVE SMOOTH",
"85 314 OFFCURVE",
"98 372 OFFCURVE",
"134 414 CURVE",
"170 457 OFFCURVE",
"228 478 OFFCURVE",
"286 477 CURVE SMOOTH"
);
}
);
width = 573;
},
{
layerId = "0DA27741-1AFD-43F2-A947-40AFBF8D6498";
paths = (
{
closed = 1;
nodes = (
"270 501 OFFCURVE",
"219 481 OFFCURVE",
"182 449 CURVE",
"187 490 OFFCURVE",
"197 538 OFFCURVE",
"238 567 CURVE",
"274 593 OFFCURVE",
"337 595 OFFCURVE",
"396 593 CURVE SMOOTH",
"431 592 OFFCURVE",
"477 588 OFFCURVE",
"518 583 CURVE",
"518 708 LINE",
"483 715 OFFCURVE",
"442 720 OFFCURVE",
"396 720 CURVE SMOOTH",
"313 720 OFFCURVE",
"230 710 OFFCURVE",
"166 665 CURVE",
"97 618 OFFCURVE",
"62 539 OFFCURVE",
"50 459 CURVE",
"39 386 OFFCURVE",
"38 315 OFFCURVE",
"42 251 CURVE SMOOTH",
"46 183 OFFCURVE",
"62 122 OFFCURVE",
"108 69 CURVE",
"155 15 OFFCURVE",
"225 -15 OFFCURVE",
"297 -15 CURVE SMOOTH",
"370 -17 OFFCURVE",
"439 6 OFFCURVE",
"491 56 CURVE",
"537 104 OFFCURVE",
"566 169 OFFCURVE",
"563 241 CURVE SMOOTH",
"563 305 OFFCURVE",
"542 372 OFFCURVE",
"502 420 CURVE",
"458 475 OFFCURVE",
"390 503 OFFCURVE",
"318 503 CURVE SMOOTH"
);
},
{
closed = 1;
nodes = (
"338 383 OFFCURVE",
"371 371 OFFCURVE",
"391 346 CURVE",
"412 322 OFFCURVE",
"420 286 OFFCURVE",
"420 251 CURVE SMOOTH",
"420 215 OFFCURVE",
"412 180 OFFCURVE",
"391 156 CURVE",
"371 131 OFFCURVE",
"338 119 OFFCURVE",
"303 119 CURVE SMOOTH",
"268 119 OFFCURVE",
"235 131 OFFCURVE",
"214 156 CURVE",
"193 180 OFFCURVE",
"186 215 OFFCURVE",
"186 251 CURVE SMOOTH",
"186 286 OFFCURVE",
"193 322 OFFCURVE",
"214 346 CURVE",
"235 371 OFFCURVE",
"268 383 OFFCURVE",
"303 383 CURVE SMOOTH"
);
}
);
width = 603;
},
{
associatedMasterId = "0DA27741-1AFD-43F2-A947-40AFBF8D6498";
layerId = "A2873047-0ED6-4C67-9B4D-3870B51BD5C6";
width = 600;
},
{
associatedMasterId = "0DA27741-1AFD-43F2-A947-40AFBF8D6498";
layerId = "55314CA7-5524-4D70-B802-98D4FAE25636";
width = 585;
},
{
associatedMasterId = "0DA27741-1AFD-43F2-A947-40AFBF8D6498";
layerId = "13A3DD5D-E91B-4961-8595-F8141D3FA442";
width = 598;
}
);
leftKerningGroup = "be-cy";
leftMetricsKey = o;
rightKerningGroup = o;
rightMetricsKey = b;
unicode = 0431;
},
{
glyphname = "ve-cy";
lastChange = "2018-07-16 07:10:07 +0000";
layers = (
{
layerId = "CAA188E2-8C62-414B-93AE-B576BEB044DB";
paths = (
{
closed = 1;
nodes = (
"70 0 LINE",
"342 0 LINE",
"382 0 OFFCURVE",
"420 8 OFFCURVE",
"452 38 CURVE",
"482 65 OFFCURVE",
"500 105 OFFCURVE",
"500 146 CURVE SMOOTH",
"500 186 OFFCURVE",
"482 227 OFFCURVE",
"452 253 CURVE",
"441 264 OFFCURVE",
"427 271 OFFCURVE",
"413 278 CURVE",
"421 283 OFFCURVE",
"428 289 OFFCURVE",
"434 296 CURVE",
"459 322 OFFCURVE",
"473 358 OFFCURVE",
"473 395 CURVE SMOOTH",
"473 431 OFFCURVE",
"459 467 OFFCURVE",
"434 493 CURVE",
"407 524 OFFCURVE",
"372 540 OFFCURVE",
"326 540 CURVE",
"70 540 LINE"
);
},
{
closed = 1;
nodes = (
"326 498 LINE",
"360 498 OFFCURVE",
"383 485 OFFCURVE",
"402 463 CURVE",
"418 444 OFFCURVE",
"428 420 OFFCURVE",
"428 395 CURVE SMOOTH",
"428 370 OFFCURVE",
"419 344 OFFCURVE",
"402 325 CURVE",
"384 305 OFFCURVE",
"358 291 OFFCURVE",
"326 291 CURVE",
"112 291 LINE",
"112 498 LINE"
);
},
{
closed = 1;
nodes = (
"326 249 LINE",
"365 249 OFFCURVE",
"392 249 OFFCURVE",
"423 221 CURVE",
"443 202 OFFCURVE",
"456 174 OFFCURVE",
"455 146 CURVE SMOOTH",
"454 117 OFFCURVE",
"443 89 OFFCURVE",
"423 70 CURVE",
"400 49 OFFCURVE",
"375 42 OFFCURVE",
"342 42 CURVE",
"112 42 LINE",
"112 249 LINE"
);
}
);
width = 540;
},
{
layerId = "0DA27741-1AFD-43F2-A947-40AFBF8D6498";
paths = (
{
closed = 1;
nodes = (
"70 0 LINE",
"398 0 LINE",
"427 0 OFFCURVE",
"469 16 OFFCURVE",
"494 35 CURVE",
"532 65 OFFCURVE",
"556 113 OFFCURVE",
"556 161 CURVE SMOOTH",
"556 185 OFFCURVE",
"550 210 OFFCURVE",
"539 231 CURVE",
"529 252 OFFCURVE",
"514 270 OFFCURVE",
"496 284 CURVE",
"502 291 OFFCURVE",
"507 299 OFFCURVE",
"512 307 CURVE",
"523 329 OFFCURVE",
"528 353 OFFCURVE",
"528 378 CURVE SMOOTH",
"528 430 OFFCURVE",
"506 472 OFFCURVE",
"466 503 CURVE",
"433 529 OFFCURVE",
"388 540 OFFCURVE",
"341 540 CURVE",
"70 538 LINE"
);
},
{
closed = 1;
nodes = (
"341 434 LINE",
"361 434 OFFCURVE",
"372 429 OFFCURVE",
"383 412 CURVE",
"390 400 OFFCURVE",
"390 389 OFFCURVE",
"391 378 CURVE SMOOTH",
"392 367 OFFCURVE",
"390 355 OFFCURVE",
"383 343 CURVE",
"373 327 OFFCURVE",
"360 321 OFFCURVE",
"341 321 CURVE",
"208 321 LINE",
"208 434 LINE"
);
},
{
closed = 1;
nodes = (
"370 217 LINE",
"390 217 OFFCURVE",
"401 210 OFFCURVE",
"411 195 CURVE",
"418 183 OFFCURVE",
"419 171 OFFCURVE",
"419 161 CURVE SMOOTH",
"419 150 OFFCURVE",
"418 138 OFFCURVE",
"411 126 CURVE",
"401 111 OFFCURVE",
"387 104 OFFCURVE",
"370 104 CURVE",
"208 104 LINE",
"208 217 LINE"
);
}
);
width = 596;
},
{
associatedMasterId = "0DA27741-1AFD-43F2-A947-40AFBF8D6498";
layerId = "A2873047-0ED6-4C67-9B4D-3870B51BD5C6";
width = 600;
},
{
associatedMasterId = "0DA27741-1AFD-43F2-A947-40AFBF8D6498";
layerId = "55314CA7-5524-4D70-B802-98D4FAE25636";
width = 535;
},
{
associatedMasterId = "0DA27741-1AFD-43F2-A947-40AFBF8D6498";
layerId = "13A3DD5D-E91B-4961-8595-F8141D3FA442";
width = 590;
}
);
leftKerningGroup = b;
leftMetricsKey = b;
rightKerningGroup = o;
rightMetricsKey = o;
unicode = 0432;
},
{
glyphname = "ge-cy";
lastChange = "2018-06-29 15:15:08 +0000";
layers = (
{
layerId = "CAA188E2-8C62-414B-93AE-B576BEB044DB";
paths = (
{
closed = 1;
nodes = (
"70 540 LINE",
"70 0 LINE",
"112 0 LINE",
"112 498 LINE",
"430 498 LINE",
"430 540 LINE"
);
}
);
width = 455;
},
{
layerId = "0DA27741-1AFD-43F2-A947-40AFBF8D6498";
paths = (
{
closed = 1;
nodes = (
"70 540 LINE",
"70 0 LINE",
"206 0 LINE",
"206 404 LINE",
"460 404 LINE",
"460 540 LINE"
);
}
);
width = 485;
},
{
associatedMasterId = "0DA27741-1AFD-43F2-A947-40AFBF8D6498";
layerId = "A2873047-0ED6-4C67-9B4D-3870B51BD5C6";
width = 600;
},
{
associatedMasterId = "0DA27741-1AFD-43F2-A947-40AFBF8D6498";
layerId = "55314CA7-5524-4D70-B802-98D4FAE25636";
width = 419;
},
{
associatedMasterId = "0DA27741-1AFD-43F2-A947-40AFBF8D6498";
layerId = "13A3DD5D-E91B-4961-8595-F8141D3FA442";
width = 571;
}
);
leftKerningGroup = r;
leftMetricsKey = r;
rightKerningGroup = r;
rightMetricsKey = r;
unicode = 0433;
},
{
glyphname = "de-cy";
lastChange = "2018-06-29 15:15:08 +0000";
layers = (
{
layerId = "CAA188E2-8C62-414B-93AE-B576BEB044DB";
paths = (
{
closed = 1;
nodes = (
"172 540 LINE",
"134 216 LINE",
"114 42 OFFCURVE",
"43 42 OFFCURVE",
"20 42 CURVE",
"20 -80 LINE",
"62 -80 LINE",
"62 0 LINE",
"523 0 LINE",
"523 -80 LINE",
"565 -80 LINE",
"565 42 LINE",
"515 42 LINE",
"515 540 LINE"
);
},
{
closed = 1;
nodes = (
"114 42 LINE",
"146 77 OFFCURVE",
"166 133 OFFCURVE",
"176 211 CURVE",
"209 498 LINE",
"473 498 LINE",
"473 42 LINE"
);
}
);
width = 625;
},
{
layerId = "0DA27741-1AFD-43F2-A947-40AFBF8D6498";
paths = (
{
closed = 1;
nodes = (
"152 540 LINE",
"126 313 LINE",
"111 189 OFFCURVE",
"76 128 OFFCURVE",
"20 128 CURVE",
"20 -64 LINE",
"148 -64 LINE",
"148 0 LINE",
"457 0 LINE",
"457 -64 LINE",
"585 -64 LINE",
"585 128 LINE",
"540 128 LINE",
"540 540 LINE"
);
},
{
closed = 1;
nodes = (
"199 128 LINE",
"226 162 OFFCURVE",
"241 225 OFFCURVE",
"249 298 CURVE",
"263 420 LINE",
"412 420 LINE",
"412 128 LINE"
);
}
);
width = 635;
},
{
associatedMasterId = "0DA27741-1AFD-43F2-A947-40AFBF8D6498";
layerId = "A2873047-0ED6-4C67-9B4D-3870B51BD5C6";
width = 600;
},
{
associatedMasterId = "0DA27741-1AFD-43F2-A947-40AFBF8D6498";
layerId = "55314CA7-5524-4D70-B802-98D4FAE25636";
width = 563;
},
{
associatedMasterId = "0DA27741-1AFD-43F2-A947-40AFBF8D6498";
layerId = "13A3DD5D-E91B-4961-8595-F8141D3FA442";
width = 594;
}
);
leftKerningGroup = de;
rightKerningGroup = "tse-cy";
unicode = 0434;
},
{
glyphname = "zhe-cy";
lastChange = "2018-07-29 15:02:23 +0000";
layers = (
{
layerId = "CAA188E2-8C62-414B-93AE-B576BEB044DB";
paths = (
{
closed = 1;
nodes = (
"595 540 LINE",
"443 291 LINE",
"358 291 LINE",
"358 540 LINE",
"316 540 LINE",
"316 291 LINE",
"231 291 LINE",
"79 540 LINE",
"29 540 LINE",
"197 270 LINE",
"20 0 LINE",
"70 1 LINE",
"231 249 LINE",
"316 249 LINE",
"316 0 LINE",
"358 0 LINE",
"358 249 LINE",
"443 249 LINE",
"604 1 LINE",
"654 0 LINE",
"477 270 LINE",
"645 540 LINE"
);
}
);
width = 674;
},
{
layerId = "0DA27741-1AFD-43F2-A947-40AFBF8D6498";
paths = (
{
closed = 1;
nodes = (
"674 540 LINE",
"549 322 LINE",
"487 322 LINE",
"487 540 LINE",
"367 540 LINE",
"367 322 LINE",
"305 322 LINE",
"180 540 LINE",
"29 540 LINE",
"197 271 LINE",
"20 0 LINE",
"172 0 LINE",
"304 217 LINE",
"367 217 LINE",
"367 0 LINE",
"487 0 LINE",
"487 217 LINE",
"550 217 LINE",
"682 0 LINE",
"834 0 LINE",
"657 271 LINE",
"825 540 LINE"
);
}
);
width = 854;
},
{
associatedMasterId = "0DA27741-1AFD-43F2-A947-40AFBF8D6498";
layerId = "A2873047-0ED6-4C67-9B4D-3870B51BD5C6";
width = 600;
},
{
associatedMasterId = "0DA27741-1AFD-43F2-A947-40AFBF8D6498";
layerId = "55314CA7-5524-4D70-B802-98D4FAE25636";
width = 745;
},
{
associatedMasterId = "0DA27741-1AFD-43F2-A947-40AFBF8D6498";
layerId = "13A3DD5D-E91B-4961-8595-F8141D3FA442";
width = 623;
}
);
leftKerningGroup = x;
leftMetricsKey = x;
rightKerningGroup = x;
rightMetricsKey = x;
unicode = 0436;
},
{
glyphname = "ze-cy";
lastChange = "2018-07-16 07:10:10 +0000";
layers = (
{
layerId = "CAA188E2-8C62-414B-93AE-B576BEB044DB";
paths = (
{
closed = 1;
nodes = (
"98 423 LINE",
"105 449 OFFCURVE",
"122 472 OFFCURVE",
"148 486 CURVE",
"180 505 OFFCURVE",
"221 512 OFFCURVE",
"261 513 CURVE SMOOTH",
"302 512 OFFCURVE",
"343 505 OFFCURVE",
"375 486 CURVE",
"408 468 OFFCURVE",
"431 436 OFFCURVE",
"431 399 CURVE SMOOTH",
"431 359 OFFCURVE",
"417 330 OFFCURVE",
"381 314 CURVE SMOOTH",
"348 300 OFFCURVE",
"307 300 OFFCURVE",
"267 300 CURVE",
"217 300 LINE",
"217 258 LINE",
"267 258 LINE",
"310 258 OFFCURVE",
"354 258 OFFCURVE",
"390 243 CURVE SMOOTH",
"427 230 OFFCURVE",
"444 198 OFFCURVE",
"444 151 CURVE SMOOTH",
"444 111 OFFCURVE",
"420 76 OFFCURVE",
"384 56 CURVE",
"349 35 OFFCURVE",
"305 27 OFFCURVE",
"261 27 CURVE SMOOTH",
"218 27 OFFCURVE",
"174 35 OFFCURVE",
"139 56 CURVE",
"109 73 OFFCURVE",
"90 99 OFFCURVE",
"83 131 CURVE",
"40 120 LINE",
"51 78 OFFCURVE",
"74 42 OFFCURVE",
"117 18 CURVE",
"162 -8 OFFCURVE",
"213 -15 OFFCURVE",
"261 -15 CURVE SMOOTH",
"310 -15 OFFCURVE",
"361 -8 OFFCURVE",
"406 18 CURVE",
"455 46 OFFCURVE",
"487 93 OFFCURVE",
"487 149 CURVE SMOOTH",
"487 210 OFFCURVE",
"464 257 OFFCURVE",
"407 281 CURVE",
"455 305 OFFCURVE",
"474 346 OFFCURVE",
"474 401 CURVE SMOOTH",
"474 451 OFFCURVE",
"446 496 OFFCURVE",
"397 524 CURVE",
"354 548 OFFCURVE",
"307 555 OFFCURVE",
"261 555 CURVE SMOOTH",
"216 555 OFFCURVE",
"169 548 OFFCURVE",
"126 524 CURVE",
"90 504 OFFCURVE",
"64 473 OFFCURVE",
"55 434 CURVE"
);
}
);
width = 527;
},
{
layerId = "0DA27741-1AFD-43F2-A947-40AFBF8D6498";
paths = (
{
closed = 1;
nodes = (
"187 380 LINE",
"189 395 OFFCURVE",
"194 402 OFFCURVE",
"209 412 CURVE",
"225 422 OFFCURVE",
"253 428 OFFCURVE",
"281 428 CURVE SMOOTH",
"309 428 OFFCURVE",
"335 422 OFFCURVE",
"353 412 CURVE SMOOTH",
"367 404 OFFCURVE",
"376 390 OFFCURVE",
"376 377 CURVE SMOOTH",
"376 358 OFFCURVE",
"369 343 OFFCURVE",
"329 335 CURVE SMOOTH",
"314 332 OFFCURVE",
"297 331 OFFCURVE",
"281 331 CURVE",
"229 331 LINE",
"229 226 LINE",
"281 226 LINE SMOOTH",
"299 226 OFFCURVE",
"317 224 OFFCURVE",
"333 222 CURVE SMOOTH",
"368 218 OFFCURVE",
"387 203 OFFCURVE",
"387 174 CURVE SMOOTH",
"387 153 OFFCURVE",
"379 143 OFFCURVE",
"360 132 CURVE SMOOTH",
"341 121 OFFCURVE",
"312 114 OFFCURVE",
"281 114 CURVE SMOOTH",
"250 114 OFFCURVE",
"219 120 OFFCURVE",
"201 132 CURVE SMOOTH",
"186 142 OFFCURVE",
"177 155 OFFCURVE",
"173 172 CURVE",
"40 139 LINE",
"52 87 OFFCURVE",
"79 43 OFFCURVE",
"134 16 CURVE",
"174 -5 OFFCURVE",
"229 -14 OFFCURVE",
"281 -14 CURVE SMOOTH",
"330 -14 OFFCURVE",
"384 -6 OFFCURVE",
"428 16 CURVE",
"483 45 OFFCURVE",
"523 98 OFFCURVE",
"525 167 CURVE SMOOTH",
"526 210 OFFCURVE",
"514 254 OFFCURVE",
"484 284 CURVE",
"505 315 OFFCURVE",
"514 344 OFFCURVE",
"514 383 CURVE SMOOTH",
"509 449 OFFCURVE",
"478 499 OFFCURVE",
"420 528 CURVE",
"386 545 OFFCURVE",
"328 555 OFFCURVE",
"281 555 CURVE SMOOTH",
"236 555 OFFCURVE",
"180 547 OFFCURVE",
"142 528 CURVE",
"97 506 OFFCURVE",
"63 467 OFFCURVE",
"52 412 CURVE"
);
}
);
width = 565;
},
{
associatedMasterId = "0DA27741-1AFD-43F2-A947-40AFBF8D6498";
layerId = "A2873047-0ED6-4C67-9B4D-3870B51BD5C6";
width = 600;
},
{
associatedMasterId = "0DA27741-1AFD-43F2-A947-40AFBF8D6498";
layerId = "55314CA7-5524-4D70-B802-98D4FAE25636";
width = 451;
},
{
associatedMasterId = "0DA27741-1AFD-43F2-A947-40AFBF8D6498";
layerId = "13A3DD5D-E91B-4961-8595-F8141D3FA442";
width = 576;
}
);
leftKerningGroup = a;
leftMetricsKey = o;
rightKerningGroup = e;
rightMetricsKey = o;
unicode = 0437;
},
{
glyphname = "ii-cy";
lastChange = "2018-06-29 15:15:08 +0000";
layers = (
{
layerId = "CAA188E2-8C62-414B-93AE-B576BEB044DB";
paths = (
{
closed = 1;
nodes = (
"434 540 LINE",
"112 74 LINE",
"112 540 LINE",
"70 540 LINE",
"70 0 LINE",
"109 0 LINE",
"431 466 LINE",
"431 0 LINE",
"473 0 LINE",
"473 540 LINE"
);
}
);
width = 543;
},
{
layerId = "0DA27741-1AFD-43F2-A947-40AFBF8D6498";
paths = (
{
closed = 1;
nodes = (
"448 540 LINE",
"208 226 LINE",
"208 540 LINE",
"70 540 LINE",
"70 0 LINE",
"190 0 LINE",
"430 325 LINE",
"430 0 LINE",
"568 0 LINE",
"568 540 LINE"
);
}
);
width = 638;
},
{
associatedMasterId = "0DA27741-1AFD-43F2-A947-40AFBF8D6498";
layerId = "A2873047-0ED6-4C67-9B4D-3870B51BD5C6";
width = 600;
},
{
associatedMasterId = "0DA27741-1AFD-43F2-A947-40AFBF8D6498";
layerId = "55314CA7-5524-4D70-B802-98D4FAE25636";
width = 588;
},
{
associatedMasterId = "0DA27741-1AFD-43F2-A947-40AFBF8D6498";
layerId = "13A3DD5D-E91B-4961-8595-F8141D3FA442";
width = 598;
}
);
leftKerningGroup = n;
leftMetricsKey = n;
rightKerningGroup = u;
rightMetricsKey = u;
unicode = 0438;
},
{
glyphname = "ka-cy";
lastChange = "2018-07-17 05:17:38 +0000";
layers = (
{
layerId = "CAA188E2-8C62-414B-93AE-B576BEB044DB";
paths = (
{
closed = 1;
nodes = (
"169 249 LINE",
"406 0 LINE",
"464 0 LINE",
"206 271 LINE",
"423 540 LINE",
"369 540 LINE",
"168 291 LINE",
"112 291 LINE",
"112 540 LINE",
"70 540 LINE",
"70 0 LINE",
"112 0 LINE",
"112 249 LINE"
);
}
);
width = 464;
},
{
layerId = "0DA27741-1AFD-43F2-A947-40AFBF8D6498";
paths = (
{
closed = 1;
nodes = (
"266 217 LINE",
"413 0 LINE",
"567 0 LINE",
"383 271 LINE",
"554 540 LINE",
"403 540 LINE",
"265 322 LINE",
"209 322 LINE",
"209 540 LINE",
"71 540 LINE",
"70 0 LINE",
"209 0 LINE",
"209 217 LINE"
);
}
);
width = 567;
},
{
associatedMasterId = "0DA27741-1AFD-43F2-A947-40AFBF8D6498";
layerId = "A2873047-0ED6-4C67-9B4D-3870B51BD5C6";
width = 600;
},
{
associatedMasterId = "0DA27741-1AFD-43F2-A947-40AFBF8D6498";
layerId = "55314CA7-5524-4D70-B802-98D4FAE25636";
width = 423;
},
{
associatedMasterId = "0DA27741-1AFD-43F2-A947-40AFBF8D6498";
layerId = "13A3DD5D-E91B-4961-8595-F8141D3FA442";
width = 572;
}
);
leftKerningGroup = k;
leftMetricsKey = k;
rightKerningGroup = k;
rightMetricsKey = k;
unicode = 043A;
},
{
glyphname = "el-cy";
lastChange = "2018-06-29 15:15:08 +0000";
layers = (
{
layerId = "CAA188E2-8C62-414B-93AE-B576BEB044DB";
paths = (
{
closed = 1;
nodes = (
"116 209 LINE",
"103 103 OFFCURVE",
"93 42 OFFCURVE",
"20 42 CURVE",
"20 0 LINE",
"134 0 OFFCURVE",
"146 104 OFFCURVE",
"157 204 CURVE",
"192 498 LINE",
"424 498 LINE",
"424 0 LINE",
"466 0 LINE",
"466 540 LINE",
"154 540 LINE"
);
}
);
width = 536;
},
{
layerId = "0DA27741-1AFD-43F2-A947-40AFBF8D6498";
paths = (
{
closed = 1;
nodes = (
"103 206 LINE SMOOTH",
"96 151 OFFCURVE",
"90 120 OFFCURVE",
"20 120 CURVE",
"20 0 LINE",
"147 -22 OFFCURVE",
"207 39 OFFCURVE",
"225 176 CURVE SMOOTH",
"257 420 LINE",
"419 420 LINE",
"419 0 LINE",
"547 0 LINE",
"547 540 LINE",
"146 540 LINE"
);
}
);
width = 617;
},
{
associatedMasterId = "0DA27741-1AFD-43F2-A947-40AFBF8D6498";
layerId = "A2873047-0ED6-4C67-9B4D-3870B51BD5C6";
width = 600;
},
{
associatedMasterId = "0DA27741-1AFD-43F2-A947-40AFBF8D6498";
layerId = "55314CA7-5524-4D70-B802-98D4FAE25636";
width = 550;
},
{
associatedMasterId = "0DA27741-1AFD-43F2-A947-40AFBF8D6498";
layerId = "13A3DD5D-E91B-4961-8595-F8141D3FA442";
width = 592;
}
);
leftKerningGroup = d;
rightKerningGroup = u;
rightMetricsKey = u;
unicode = 043B;
},
{
glyphname = "em-cy";
lastChange = "2018-07-13 05:48:11 +0000";
layers = (
{
layerId = "CAA188E2-8C62-414B-93AE-B576BEB044DB";
paths = (
{
closed = 1;
nodes = (
"335 131 LINE",
"113 540 LINE",
"70 540 LINE",
"70 0 LINE",
"113 0 LINE",
"113 440 LINE",
"312 74 LINE",
"358 74 LINE",
"558 440 LINE",
"558 0 LINE",
"600 0 LINE",
"598 540 LINE",
"557 540 LINE"
);
}
);
width = 670;
},
{
layerId = "0DA27741-1AFD-43F2-A947-40AFBF8D6498";
paths = (
{
closed = 1;
nodes = (
"366 268 LINE",
"190 540 LINE",
"70 540 LINE",
"70 0 LINE",
"208 0 LINE",
"208 289 LINE",
"330 100 LINE",
"402 100 LINE",
"524 289 LINE",
"524 0 LINE",
"662 0 LINE",
"662 540 LINE",
"542 540 LINE"
);
}
);
width = 732;
},
{
associatedMasterId = "0DA27741-1AFD-43F2-A947-40AFBF8D6498";
layerId = "A2873047-0ED6-4C67-9B4D-3870B51BD5C6";
width = 600;
},
{
associatedMasterId = "0DA27741-1AFD-43F2-A947-40AFBF8D6498";
layerId = "55314CA7-5524-4D70-B802-98D4FAE25636";
width = 691;
},
{
associatedMasterId = "0DA27741-1AFD-43F2-A947-40AFBF8D6498";
layerId = "13A3DD5D-E91B-4961-8595-F8141D3FA442";
width = 615;
}
);
leftKerningGroup = m;
leftMetricsKey = m;
rightKerningGroup = u;
rightMetricsKey = u;
unicode = 043C;
},
{
glyphname = "en-cy";
lastChange = "2018-06-29 15:15:08 +0000";
layers = (
{
layerId = "CAA188E2-8C62-414B-93AE-B576BEB044DB";
paths = (
{
closed = 1;
nodes = (
"112 0 LINE",
"112 540 LINE",
"70 540 LINE",
"70 0 LINE"
);
},
{
closed = 1;
nodes = (
"458 0 LINE",
"500 0 LINE",
"500 540 LINE",
"458 540 LINE"
);
},
{
closed = 1;
nodes = (
"87 273 LINE",
"483 273 LINE",
"483 315 LINE",
"87 315 LINE"
);
}
);
width = 570;
},
{
layerId = "0DA27741-1AFD-43F2-A947-40AFBF8D6498";
paths = (
{
closed = 1;
nodes = (
"206 0 LINE",
"206 540 LINE",
"70 540 LINE",
"70 0 LINE"
);
},
{
closed = 1;
nodes = (
"428 0 LINE",
"564 0 LINE",
"564 540 LINE",
"428 540 LINE"
);
},
{
closed = 1;
nodes = (
"87 211 LINE",
"453 211 LINE",
"453 347 LINE",
"87 347 LINE"
);
}
);
width = 634;
},
{
associatedMasterId = "0DA27741-1AFD-43F2-A947-40AFBF8D6498";
layerId = "A2873047-0ED6-4C67-9B4D-3870B51BD5C6";
width = 600;
},
{
associatedMasterId = "0DA27741-1AFD-43F2-A947-40AFBF8D6498";
layerId = "55314CA7-5524-4D70-B802-98D4FAE25636";
width = 588;
},
{
associatedMasterId = "0DA27741-1AFD-43F2-A947-40AFBF8D6498";
layerId = "13A3DD5D-E91B-4961-8595-F8141D3FA442";
width = 598;
}
);
leftKerningGroup = n;
leftMetricsKey = m;
rightKerningGroup = u;
rightMetricsKey = u;
unicode = 043D;
},
{
glyphname = "pe-cy";
lastChange = "2018-06-29 15:15:08 +0000";
layers = (
{
layerId = "CAA188E2-8C62-414B-93AE-B576BEB044DB";
paths = (
{
closed = 1;
nodes = (
"112 0 LINE",
"112 540 LINE",
"70 540 LINE",
"70 0 LINE"
);
},
{
closed = 1;
nodes = (
"458 0 LINE",
"500 0 LINE",
"500 540 LINE",
"458 540 LINE"
);
},
{
closed = 1;
nodes = (
"87 498 LINE",
"483 498 LINE",
"483 540 LINE",
"87 540 LINE"
);
}
);
width = 570;
},
{
layerId = "0DA27741-1AFD-43F2-A947-40AFBF8D6498";
paths = (
{
closed = 1;
nodes = (
"206 0 LINE",
"206 540 LINE",
"70 540 LINE",
"70 0 LINE"
);
},
{
closed = 1;
nodes = (
"428 0 LINE",
"564 0 LINE",
"564 540 LINE",
"428 540 LINE"
);
},
{
closed = 1;
nodes = (
"87 404 LINE",
"453 404 LINE",
"453 540 LINE",
"87 540 LINE"
);
}
);
width = 634;
},
{
associatedMasterId = "0DA27741-1AFD-43F2-A947-40AFBF8D6498";
layerId = "A2873047-0ED6-4C67-9B4D-3870B51BD5C6";
width = 600;
},
{
associatedMasterId = "0DA27741-1AFD-43F2-A947-40AFBF8D6498";
layerId = "55314CA7-5524-4D70-B802-98D4FAE25636";
width = 588;
},
{
associatedMasterId = "0DA27741-1AFD-43F2-A947-40AFBF8D6498";
layerId = "13A3DD5D-E91B-4961-8595-F8141D3FA442";
width = 598;
}
);
leftKerningGroup = n;
leftMetricsKey = n;
rightKerningGroup = u;
rightMetricsKey = u;
unicode = 043F;
},
{
glyphname = "te-cy";
lastChange = "2018-06-29 15:15:08 +0000";
layers = (
{
layerId = "CAA188E2-8C62-414B-93AE-B576BEB044DB";
paths = (
{
closed = 1;
nodes = (
"266 0 LINE",
"266 520 LINE",
"224 520 LINE",
"224 0 LINE"
);
},
{
closed = 1;
nodes = (
"25 498 LINE",
"465 498 LINE",
"465 540 LINE",
"25 540 LINE"
);
}
);
width = 490;
},
{
layerId = "0DA27741-1AFD-43F2-A947-40AFBF8D6498";
paths = (
{
closed = 1;
nodes = (
"338 0 LINE",
"338 520 LINE",
"202 520 LINE",
"202 0 LINE"
);
},
{
closed = 1;
nodes = (
"25 420 LINE",
"515 420 LINE",
"515 540 LINE",
"25 540 LINE"
);
}
);
width = 540;
},
{
associatedMasterId = "0DA27741-1AFD-43F2-A947-40AFBF8D6498";
layerId = "A2873047-0ED6-4C67-9B4D-3870B51BD5C6";
width = 600;
},
{
associatedMasterId = "0DA27741-1AFD-43F2-A947-40AFBF8D6498";
layerId = "55314CA7-5524-4D70-B802-98D4FAE25636";
width = 438;
},
{
associatedMasterId = "0DA27741-1AFD-43F2-A947-40AFBF8D6498";
layerId = "13A3DD5D-E91B-4961-8595-F8141D3FA442";
width = 574;
}
);
leftKerningGroup = te;
rightKerningGroup = r;
rightMetricsKey = r;
unicode = 0442;
},
{
glyphname = "ef-cy";
lastChange = "2018-06-29 15:15:08 +0000";
layers = (
{
layerId = "CAA188E2-8C62-414B-93AE-B576BEB044DB";
paths = (
{
closed = 1;
nodes = (
"280 -18 OFFCURVE",
"196 0 OFFCURVE",
"137 48 CURVE",
"73 102 OFFCURVE",
"42 176 OFFCURVE",
"40 269 CURVE SMOOTH",
"42 355 OFFCURVE",
"69 434 OFFCURVE",
"137 489 CURVE",
"193 536 OFFCURVE",
"279 557 OFFCURVE",
"359 555 CURVE SMOOTH",
"436 557 OFFCURVE",
"523 538 OFFCURVE",
"581 489 CURVE",
"647 435 OFFCURVE",
"676 358 OFFCURVE",
"678 269 CURVE SMOOTH",
"676 183 OFFCURVE",
"649 105 OFFCURVE",
"581 48 CURVE",
"524 2 OFFCURVE",
"441 -18 OFFCURVE",
"359 -18 CURVE SMOOTH"
);
},
{
closed = 1;
nodes = (
"426 24 OFFCURVE",
"502 39 OFFCURVE",
"551 80 CURVE",
"608 126 OFFCURVE",
"631 192 OFFCURVE",
"633 269 CURVE SMOOTH",
"631 342 OFFCURVE",
"610 410 OFFCURVE",
"551 458 CURVE",
"504 498 OFFCURVE",
"428 515 OFFCURVE",
"359 513 CURVE SMOOTH",
"294 515 OFFCURVE",
"216 499 OFFCURVE",
"167 458 CURVE",
"110 412 OFFCURVE",
"87 346 OFFCURVE",
"85 269 CURVE SMOOTH",
"87 196 OFFCURVE",
"108 128 OFFCURVE",
"167 80 CURVE",
"214 40 OFFCURVE",
"288 24 OFFCURVE",
"359 24 CURVE SMOOTH"
);
},
{
closed = 1;
nodes = (
"338 -225 LINE",
"338 719 LINE",
"380 719 LINE",
"380 -225 LINE"
);
}
);
width = 718;
},
{
layerId = "0DA27741-1AFD-43F2-A947-40AFBF8D6498";
paths = (
{
closed = 1;
nodes = (
"287 -17 OFFCURVE",
"202 2 OFFCURVE",
"144 48 CURVE",
"79 100 OFFCURVE",
"40 180 OFFCURVE",
"40 270 CURVE SMOOTH",
"40 357 OFFCURVE",
"77 437 OFFCURVE",
"144 491 CURVE",
"200 536 OFFCURVE",
"282 555 OFFCURVE",
"362 555 CURVE SMOOTH",
"439 555 OFFCURVE",
"522 537 OFFCURVE",
"580 491 CURVE",
"650 435 OFFCURVE",
"681 360 OFFCURVE",
"684 270 CURVE SMOOTH",
"682 182 OFFCURVE",
"652 105 OFFCURVE",
"580 48 CURVE",
"525 4 OFFCURVE",
"439 -17 OFFCURVE",
"362 -15 CURVE SMOOTH"
);
},
{
closed = 1;
nodes = (
"405 112 OFFCURVE",
"457 120 OFFCURVE",
"489 145 CURVE",
"528 176 OFFCURVE",
"546 219 OFFCURVE",
"546 270 CURVE SMOOTH",
"546 319 OFFCURVE",
"527 367 OFFCURVE",
"489 394 CURVE",
"457 419 OFFCURVE",
"410 427 OFFCURVE",
"362 427 CURVE SMOOTH",
"317 427 OFFCURVE",
"269 421 OFFCURVE",
"235 394 CURVE",
"199 368 OFFCURVE",
"178 323 OFFCURVE",
"178 270 CURVE SMOOTH",
"178 219 OFFCURVE",
"196 176 OFFCURVE",
"235 145 CURVE",
"266 121 OFFCURVE",
"315 112 OFFCURVE",
"362 112 CURVE SMOOTH"
);
},
{
closed = 1;
nodes = (
"302 -225 LINE",
"302 710 LINE",
"422 710 LINE",
"422 -225 LINE"
);
}
);
width = 724;
},
{
associatedMasterId = "0DA27741-1AFD-43F2-A947-40AFBF8D6498";
layerId = "A2873047-0ED6-4C67-9B4D-3870B51BD5C6";
width = 600;
},
{
associatedMasterId = "0DA27741-1AFD-43F2-A947-40AFBF8D6498";
layerId = "55314CA7-5524-4D70-B802-98D4FAE25636";
width = 694;
},
{
associatedMasterId = "0DA27741-1AFD-43F2-A947-40AFBF8D6498";
layerId = "13A3DD5D-E91B-4961-8595-F8141D3FA442";
width = 615;
}
);
leftKerningGroup = o;
leftMetricsKey = o;
rightKerningGroup = o;
rightMetricsKey = o;
unicode = 0444;
},
{
glyphname = "che-cy";
lastChange = "2018-06-29 15:15:08 +0000";
layers = (
{
layerId = "CAA188E2-8C62-414B-93AE-B576BEB044DB";
paths = (
{
closed = 1;
nodes = (
"40 540 LINE",
"40 409 LINE",
"38 307 OFFCURVE",
"54 211 OFFCURVE",
"136 155 CURVE",
"178 127 OFFCURVE",
"228 117 OFFCURVE",
"275 121 CURVE",
"323 123 OFFCURVE",
"372 140 OFFCURVE",
"408 174 CURVE",
"444 208 OFFCURVE",
"459 255 OFFCURVE",
"468 300 CURVE",
"475 334 OFFCURVE",
"474 337 OFFCURVE",
"475 435 CURVE",
"441 435 LINE",
"441 391 OFFCURVE",
"443 348 OFFCURVE",
"434 308 CURVE",
"427 268 OFFCURVE",
"409 230 OFFCURVE",
"380 204 CURVE",
"352 177 OFFCURVE",
"313 163 OFFCURVE",
"273 161 CURVE",
"232 159 OFFCURVE",
"192 168 OFFCURVE",
"159 189 CURVE",
"91 235 OFFCURVE",
"82 312 OFFCURVE",
"82 409 CURVE",
"82 540 LINE"
);
},
{
closed = 1;
nodes = (
"483 540 LINE",
"441 540 LINE",
"441 0 LINE",
"483 0 LINE"
);
}
);
width = 553;
},
{
layerId = "0DA27741-1AFD-43F2-A947-40AFBF8D6498";
paths = (
{
closed = 1;
nodes = (
"40 540 LINE",
"40 405 LINE",
"40 311 OFFCURVE",
"49 239 OFFCURVE",
"113 180 CURVE",
"156 141 OFFCURVE",
"220 118 OFFCURVE",
"280 120 CURVE",
"332 122 OFFCURVE",
"390 140 OFFCURVE",
"434 179 CURVE",
"476 218 OFFCURVE",
"495 265 OFFCURVE",
"504 318 CURVE",
"507 341 OFFCURVE",
"507 422 OFFCURVE",
"507 440 CURVE",
"409 440 LINE",
"409 403 OFFCURVE",
"408 366 OFFCURVE",
"403 342 CURVE",
"397 312 OFFCURVE",
"383 288 OFFCURVE",
"363 273 CURVE",
"345 260 OFFCURVE",
"324 253 OFFCURVE",
"299 252 CURVE",
"262 252 OFFCURVE",
"233 262 OFFCURVE",
"214 282 CURVE",
"186 310 OFFCURVE",
"178 356 OFFCURVE",
"178 405 CURVE",
"178 540 LINE"
);
},
{
closed = 1;
nodes = (
"546 540 LINE",
"409 540 LINE",
"409 0 LINE",
"546 0 LINE"
);
}
);
width = 616;
},
{
associatedMasterId = "0DA27741-1AFD-43F2-A947-40AFBF8D6498";
layerId = "A2873047-0ED6-4C67-9B4D-3870B51BD5C6";
width = 600;
},
{
associatedMasterId = "0DA27741-1AFD-43F2-A947-40AFBF8D6498";
layerId = "55314CA7-5524-4D70-B802-98D4FAE25636";
width = 513;
},
{
associatedMasterId = "0DA27741-1AFD-43F2-A947-40AFBF8D6498";
layerId = "13A3DD5D-E91B-4961-8595-F8141D3FA442";
width = 586;
}
);
leftKerningGroup = o;
leftMetricsKey = o;
rightKerningGroup = u;
rightMetricsKey = u;
unicode = 0447;
},
{
glyphname = "sha-cy";
lastChange = "2018-07-10 14:45:32 +0000";
layers = (
{
layerId = "CAA188E2-8C62-414B-93AE-B576BEB044DB";
paths = (
{
closed = 1;
nodes = (
"667 0 LINE",
"667 540 LINE",
"625 540 LINE",
"625 42 LINE",
"390 42 LINE",
"390 540 LINE",
"348 540 LINE",
"348 42 LINE",
"112 42 LINE",
"112 540 LINE",
"70 540 LINE",
"70 0 LINE"
);
}
);
width = 737;
},
{
layerId = "0DA27741-1AFD-43F2-A947-40AFBF8D6498";
paths = (
{
closed = 1;
nodes = (
"687 0 LINE",
"687 540 LINE",
"567 540 LINE",
"567 127 LINE",
"439 127 LINE",
"439 540 LINE",
"319 540 LINE",
"319 127 LINE",
"190 127 LINE",
"190 540 LINE",
"70 540 LINE",
"70 0 LINE"
);
}
);
width = 757;
},
{
associatedMasterId = "0DA27741-1AFD-43F2-A947-40AFBF8D6498";
layerId = "A2873047-0ED6-4C67-9B4D-3870B51BD5C6";
width = 600;
},
{
associatedMasterId = "0DA27741-1AFD-43F2-A947-40AFBF8D6498";
layerId = "55314CA7-5524-4D70-B802-98D4FAE25636";
width = 850;
},
{
associatedMasterId = "0DA27741-1AFD-43F2-A947-40AFBF8D6498";
layerId = "13A3DD5D-E91B-4961-8595-F8141D3FA442";
width = 640;
}
);
leftKerningGroup = n;
leftMetricsKey = m;
rightKerningGroup = u;
rightMetricsKey = u;
unicode = 0448;
},
{
glyphname = "dzhe-cy";
lastChange = "2018-06-29 15:15:08 +0000";
layers = (
{
components = (
{
name = "pe-cy";
transform = "{1, 0, 0, -1, 0, 540}";
}
);
layerId = "CAA188E2-8C62-414B-93AE-B576BEB044DB";
paths = (
{
closed = 1;
nodes = (
"264 -120 LINE",
"306 -120 LINE",
"306 20 LINE",
"264 20 LINE"
);
}
);
width = 570;
},
{
components = (
{
name = "pe-cy";
transform = "{1, 0, 0, -1, 0, 540}";
}
);
layerId = "0DA27741-1AFD-43F2-A947-40AFBF8D6498";
paths = (
{
closed = 1;
nodes = (
"249 -120 LINE",
"385 -120 LINE",
"385 60 LINE",
"249 60 LINE"
);
}
);
width = 634;
},
{
associatedMasterId = "0DA27741-1AFD-43F2-A947-40AFBF8D6498";
layerId = "A2873047-0ED6-4C67-9B4D-3870B51BD5C6";
width = 600;
},
{
associatedMasterId = "0DA27741-1AFD-43F2-A947-40AFBF8D6498";
layerId = "55314CA7-5524-4D70-B802-98D4FAE25636";
width = 588;
},
{
associatedMasterId = "0DA27741-1AFD-43F2-A947-40AFBF8D6498";
layerId = "13A3DD5D-E91B-4961-8595-F8141D3FA442";
width = 598;
}
);
leftKerningGroup = "sha-cy";
leftMetricsKey = "sha-cy";
rightKerningGroup = "sha-cy";
rightMetricsKey = "sha-cy";
unicode = 045F;
},
{
glyphname = "softsign-cy";
lastChange = "2018-06-29 15:15:08 +0000";
layers = (
{
layerId = "CAA188E2-8C62-414B-93AE-B576BEB044DB";
paths = (
{
closed = 1;
nodes = (
"71 0 LINE",
"319 0 LINE",
"359 0 OFFCURVE",
"399 21 OFFCURVE",
"427 50 CURVE",
"455 79 OFFCURVE",
"472 120 OFFCURVE",
"472 161 CURVE SMOOTH",
"472 202 OFFCURVE",
"455 242 OFFCURVE",
"427 272 CURVE",
"399 301 OFFCURVE",
"359 321 OFFCURVE",
"319 321 CURVE",
"113 321 LINE",
"113 540 LINE",
"70 540 LINE"
);
},
{
closed = 1;
nodes = (
"317 279 LINE",
"347 279 OFFCURVE",
"375 264 OFFCURVE",
"395 242 CURVE",
"416 220 OFFCURVE",
"427 191 OFFCURVE",
"427 161 CURVE SMOOTH",
"427 131 OFFCURVE",
"416 102 OFFCURVE",
"395 80 CURVE",
"375 58 OFFCURVE",
"347 42 OFFCURVE",
"317 42 CURVE",
"113 42 LINE",
"113 279 LINE"
);
}
);
width = 512;
},
{
layerId = "0DA27741-1AFD-43F2-A947-40AFBF8D6498";
paths = (
{
closed = 1;
nodes = (
"70 0 LINE",
"325 0 LINE",
"372 0 OFFCURVE",
"423 14 OFFCURVE",
"459 49 CURVE",
"495 83 OFFCURVE",
"513 134 OFFCURVE",
"513 183 CURVE SMOOTH",
"513 233 OFFCURVE",
"495 285 OFFCURVE",
"459 319 CURVE",
"423 354 OFFCURVE",
"372 368 OFFCURVE",
"325 368 CURVE",
"208 368 LINE",
"208 540 LINE",
"70 540 LINE"
);
},
{
closed = 1;
nodes = (
"320 239 LINE",
"336 239 OFFCURVE",
"350 232 OFFCURVE",
"360 220 CURVE",
"369 210 OFFCURVE",
"375 197 OFFCURVE",
"375 183 CURVE SMOOTH",
"375 169 OFFCURVE",
"369 155 OFFCURVE",
"359 145 CURVE",
"349 134 OFFCURVE",
"335 128 OFFCURVE",
"320 127 CURVE",
"208 127 LINE",
"208 239 LINE"
);
}
);
width = 553;
},
{
associatedMasterId = "0DA27741-1AFD-43F2-A947-40AFBF8D6498";
layerId = "A2873047-0ED6-4C67-9B4D-3870B51BD5C6";
width = 600;
},
{
associatedMasterId = "0DA27741-1AFD-43F2-A947-40AFBF8D6498";
layerId = "55314CA7-5524-4D70-B802-98D4FAE25636";
width = 501;
},
{
associatedMasterId = "0DA27741-1AFD-43F2-A947-40AFBF8D6498";
layerId = "13A3DD5D-E91B-4961-8595-F8141D3FA442";
width = 584;
}
);
leftKerningGroup = n;
leftMetricsKey = n;
rightKerningGroup = b;
rightMetricsKey = b;
unicode = 044C;
},
{
glyphname = "hardsign-cy";
lastChange = "2018-06-29 15:15:08 +0000";
layers = (
{
components = (
{
name = "softsign-cy";
}
);
layerId = "CAA188E2-8C62-414B-93AE-B576BEB044DB";
paths = (
{
closed = 1;
nodes = (
"0 498 LINE",
"80 498 LINE",
"80 540 LINE",
"0 540 LINE"
);
}
);
width = 512;
},
{
components = (
{
name = "softsign-cy";
}
);
layerId = "0DA27741-1AFD-43F2-A947-40AFBF8D6498";
paths = (
{
closed = 1;
nodes = (
"-10 435 LINE",
"140 435 LINE",
"140 540 LINE",
"-10 540 LINE"
);
}
);
width = 553;
},
{
associatedMasterId = "0DA27741-1AFD-43F2-A947-40AFBF8D6498";
layerId = "A2873047-0ED6-4C67-9B4D-3870B51BD5C6";
width = 600;
},
{
associatedMasterId = "0DA27741-1AFD-43F2-A947-40AFBF8D6498";
layerId = "55314CA7-5524-4D70-B802-98D4FAE25636";
width = 551;
},
{
associatedMasterId = "0DA27741-1AFD-43F2-A947-40AFBF8D6498";
layerId = "13A3DD5D-E91B-4961-8595-F8141D3FA442";
width = 592;
}
);
rightKerningGroup = b;
rightMetricsKey = b;
unicode = 044A;
},
{
glyphname = "yeru-cy";
lastChange = "2018-06-29 15:15:08 +0000";
layers = (
{
components = (
{
alignment = -1;
name = idotless;
transform = "{1, 0, 0, 1, 432, 0}";
}
);
layerId = "CAA188E2-8C62-414B-93AE-B576BEB044DB";
paths = (
{
closed = 1;
nodes = (
"71 0 LINE",
"289 0 LINE",
"329 0 OFFCURVE",
"369 21 OFFCURVE",
"397 50 CURVE",
"425 79 OFFCURVE",
"442 120 OFFCURVE",
"442 161 CURVE SMOOTH",
"442 202 OFFCURVE",
"425 242 OFFCURVE",
"397 272 CURVE",
"369 301 OFFCURVE",
"329 321 OFFCURVE",
"289 321 CURVE",
"113 321 LINE",
"113 540 LINE",
"70 540 LINE"
);
},
{
closed = 1;
nodes = (
"287 279 LINE",
"317 279 OFFCURVE",
"345 264 OFFCURVE",
"365 242 CURVE",
"386 220 OFFCURVE",
"397 191 OFFCURVE",
"397 161 CURVE SMOOTH",
"397 131 OFFCURVE",
"386 102 OFFCURVE",
"365 80 CURVE",
"345 58 OFFCURVE",
"317 42 OFFCURVE",
"287 42 CURVE",
"113 42 LINE",
"113 279 LINE"
);
}
);
width = 624;
},
{
components = (
{
alignment = -1;
name = idotless;
transform = "{1, 0, 0, 1, 477, 0}";
}
);
layerId = "0DA27741-1AFD-43F2-A947-40AFBF8D6498";
paths = (
{
closed = 1;
nodes = (
"70 0 LINE",
"315 0 LINE",
"362 0 OFFCURVE",
"413 14 OFFCURVE",
"449 49 CURVE",
"485 83 OFFCURVE",
"503 134 OFFCURVE",
"503 183 CURVE SMOOTH",
"503 233 OFFCURVE",
"485 285 OFFCURVE",
"449 319 CURVE",
"413 354 OFFCURVE",
"362 368 OFFCURVE",
"315 368 CURVE",
"208 368 LINE",
"208 540 LINE",
"70 540 LINE"
);
},
{
closed = 1;
nodes = (
"310 239 LINE",
"326 239 OFFCURVE",
"340 232 OFFCURVE",
"350 220 CURVE",
"359 210 OFFCURVE",
"365 197 OFFCURVE",
"365 183 CURVE SMOOTH",
"365 169 OFFCURVE",
"359 155 OFFCURVE",
"349 145 CURVE",
"339 134 OFFCURVE",
"325 128 OFFCURVE",
"310 127 CURVE",
"208 127 LINE",
"208 239 LINE"
);
}
);
width = 763;
},
{
associatedMasterId = "0DA27741-1AFD-43F2-A947-40AFBF8D6498";
layerId = "A2873047-0ED6-4C67-9B4D-3870B51BD5C6";
width = 600;
},
{
associatedMasterId = "0DA27741-1AFD-43F2-A947-40AFBF8D6498";
layerId = "55314CA7-5524-4D70-B802-98D4FAE25636";
width = 708;
},
{
associatedMasterId = "0DA27741-1AFD-43F2-A947-40AFBF8D6498";
layerId = "13A3DD5D-E91B-4961-8595-F8141D3FA442";
width = 617;
}
);
leftKerningGroup = n;
leftMetricsKey = n;
rightKerningGroup = u;
rightMetricsKey = u;
unicode = 044B;
},
{
glyphname = "nje-cy";
lastChange = "2018-06-29 15:15:08 +0000";
layers = (
{
components = (
{
alignment = -1;
name = "softsign-cy";
transform = "{1, 0, 0, 1, 362, 0}";
}
);
layerId = "CAA188E2-8C62-414B-93AE-B576BEB044DB";
paths = (
{
closed = 1;
nodes = (
"112 0 LINE",
"112 540 LINE",
"70 540 LINE",
"70 0 LINE"
);
},
{
closed = 1;
nodes = (
"87 279 LINE",
"443 279 LINE",
"443 321 LINE",
"87 321 LINE"
);
}
);
width = 874;
},
{
components = (
{
alignment = -1;
name = "softsign-cy";
transform = "{1, 0, 0, 1, 362, 0}";
}
);
layerId = "0DA27741-1AFD-43F2-A947-40AFBF8D6498";
paths = (
{
closed = 1;
nodes = (
"206 0 LINE",
"206 540 LINE",
"70 540 LINE",
"70 0 LINE"
);
},
{
closed = 1;
nodes = (
"177 239 LINE",
"543 239 LINE",
"543 368 LINE",
"177 368 LINE"
);
}
);
width = 915;
},
{
associatedMasterId = "0DA27741-1AFD-43F2-A947-40AFBF8D6498";
layerId = "A2873047-0ED6-4C67-9B4D-3870B51BD5C6";
width = 600;
},
{
associatedMasterId = "0DA27741-1AFD-43F2-A947-40AFBF8D6498";
layerId = "55314CA7-5524-4D70-B802-98D4FAE25636";
width = 914;
},
{
associatedMasterId = "0DA27741-1AFD-43F2-A947-40AFBF8D6498";
layerId = "13A3DD5D-E91B-4961-8595-F8141D3FA442";
width = 650;
}
);
leftKerningGroup = n;
leftMetricsKey = "en-cy";
rightKerningGroup = b;
rightMetricsKey = "softsign-cy";
unicode = 045A;
},
{
glyphname = "ereversed-cy";
lastChange = "2018-06-29 15:15:08 +0000";
layers = (
{
components = (
{
name = c;
transform = "{-1, 0, 0, 1, 539, 0}";
}
);
layerId = "CAA188E2-8C62-414B-93AE-B576BEB044DB";
paths = (
{
closed = 1;
nodes = (
"170 249 LINE",
"461 249 LINE",
"461 291 LINE",
"170 291 LINE"
);
}
);
width = 539;
},
{
components = (
{
name = c;
transform = "{-1, 0, 0, 1, 584, 0}";
}
);
layerId = "0DA27741-1AFD-43F2-A947-40AFBF8D6498";
paths = (
{
closed = 1;
nodes = (
"236 218 LINE",
"407 218 LINE",
"407 323 LINE",
"236 323 LINE"
);
}
);
width = 584;
},
{
associatedMasterId = "0DA27741-1AFD-43F2-A947-40AFBF8D6498";
layerId = "A2873047-0ED6-4C67-9B4D-3870B51BD5C6";
width = 600;
},
{
associatedMasterId = "0DA27741-1AFD-43F2-A947-40AFBF8D6498";
layerId = "55314CA7-5524-4D70-B802-98D4FAE25636";
width = 573;
},
{
associatedMasterId = "0DA27741-1AFD-43F2-A947-40AFBF8D6498";
layerId = "13A3DD5D-E91B-4961-8595-F8141D3FA442";
width = 596;
}
);
leftKerningGroup = o;
rightKerningGroup = o;
unicode = 044D;
},
{
glyphname = "iu-cy";
lastChange = "2018-06-29 15:15:08 +0000";
layers = (
{
components = (
{
name = o;
transform = "{1, 0, 0, 1, 177, 0}";
}
);
layerId = "CAA188E2-8C62-414B-93AE-B576BEB044DB";
paths = (
{
closed = 1;
nodes = (
"70 0 LINE",
"112 0 LINE",
"112 540 LINE",
"70 540 LINE"
);
},
{
closed = 1;
nodes = (
"106 249 LINE",
"241 249 LINE",
"241 291 LINE",
"106 291 LINE"
);
}
);
width = 751;
},
{
components = (
{
name = o;
transform = "{1, 0, 0, 1, 240, 0}";
}
);
layerId = "0DA27741-1AFD-43F2-A947-40AFBF8D6498";
paths = (
{
closed = 1;
nodes = (
"70 0 LINE",
"206 0 LINE",
"206 540 LINE",
"70 540 LINE"
);
},
{
closed = 1;
nodes = (
"151 202 LINE",
"336 202 LINE",
"336 338 LINE",
"151 338 LINE"
);
}
);
width = 867;
},
{
associatedMasterId = "0DA27741-1AFD-43F2-A947-40AFBF8D6498";
layerId = "A2873047-0ED6-4C67-9B4D-3870B51BD5C6";
width = 600;
},
{
associatedMasterId = "0DA27741-1AFD-43F2-A947-40AFBF8D6498";
layerId = "55314CA7-5524-4D70-B802-98D4FAE25636";
width = 898;
},
{
associatedMasterId = "0DA27741-1AFD-43F2-A947-40AFBF8D6498";
layerId = "13A3DD5D-E91B-4961-8595-F8141D3FA442";
width = 648;
}
);
leftKerningGroup = n;
leftMetricsKey = n;
rightKerningGroup = o;
rightMetricsKey = o;
unicode = 044E;
},
{
glyphname = "ia-cy";
lastChange = "2018-06-29 15:15:08 +0000";
layers = (
{
layerId = "CAA188E2-8C62-414B-93AE-B576BEB044DB";
paths = (
{
closed = 1;
nodes = (
"90 0 LINE",
"200 227 LINE",
"164 254 LINE",
"40 0 LINE"
);
},
{
closed = 1;
nodes = (
"471 540 LINE",
"193 540 LINE",
"153 540 OFFCURVE",
"113 519 OFFCURVE",
"85 490 CURVE",
"57 461 OFFCURVE",
"40 420 OFFCURVE",
"40 379 CURVE SMOOTH",
"40 338 OFFCURVE",
"57 298 OFFCURVE",
"85 268 CURVE",
"113 239 OFFCURVE",
"153 219 OFFCURVE",
"193 219 CURVE",
"429 219 LINE",
"429 0 LINE",
"472 0 LINE"
);
},
{
closed = 1;
nodes = (
"195 261 LINE",
"165 261 OFFCURVE",
"137 276 OFFCURVE",
"117 298 CURVE",
"96 320 OFFCURVE",
"85 349 OFFCURVE",
"85 379 CURVE SMOOTH",
"85 409 OFFCURVE",
"96 438 OFFCURVE",
"117 460 CURVE",
"137 482 OFFCURVE",
"165 498 OFFCURVE",
"195 498 CURVE",
"429 498 LINE",
"429 261 LINE"
);
}
);
width = 542;
},
{
layerId = "0DA27741-1AFD-43F2-A947-40AFBF8D6498";
paths = (
{
closed = 1;
nodes = (
"194 0 LINE",
"309 237 LINE",
"169 264 LINE",
"40 0 LINE"
);
},
{
closed = 1;
nodes = (
"513 540 LINE",
"228 540 LINE",
"181 540 OFFCURVE",
"130 526 OFFCURVE",
"94 491 CURVE",
"58 457 OFFCURVE",
"40 406 OFFCURVE",
"40 357 CURVE SMOOTH",
"40 307 OFFCURVE",
"58 255 OFFCURVE",
"94 221 CURVE",
"130 186 OFFCURVE",
"181 172 OFFCURVE",
"228 172 CURVE",
"375 172 LINE",
"375 0 LINE",
"513 0 LINE"
);
},
{
closed = 1;
nodes = (
"233 301 LINE",
"217 301 OFFCURVE",
"203 308 OFFCURVE",
"193 320 CURVE",
"184 330 OFFCURVE",
"178 343 OFFCURVE",
"178 357 CURVE SMOOTH",
"178 371 OFFCURVE",
"184 385 OFFCURVE",
"194 395 CURVE",
"204 406 OFFCURVE",
"218 412 OFFCURVE",
"233 413 CURVE",
"375 413 LINE",
"375 301 LINE"
);
}
);
width = 583;
},
{
associatedMasterId = "0DA27741-1AFD-43F2-A947-40AFBF8D6498";
layerId = "A2873047-0ED6-4C67-9B4D-3870B51BD5C6";
width = 600;
},
{
associatedMasterId = "0DA27741-1AFD-43F2-A947-40AFBF8D6498";
layerId = "55314CA7-5524-4D70-B802-98D4FAE25636";
width = 499;
},
{
associatedMasterId = "0DA27741-1AFD-43F2-A947-40AFBF8D6498";
layerId = "13A3DD5D-E91B-4961-8595-F8141D3FA442";
width = 584;
}
);
leftKerningGroup = a;
leftMetricsKey = a;
rightKerningGroup = u;
rightMetricsKey = u;
unicode = 044F;
},
{
glyphname = "dje-cy";
lastChange = "2018-07-29 15:02:30 +0000";
layers = (
{
components = (
{
name = hbar;
}
);
layerId = "CAA188E2-8C62-414B-93AE-B576BEB044DB";
paths = (
{
closed = 1;
nodes = (
"416 -179 OFFCURVE",
"433 -181 OFFCURVE",
"461 -178 CURVE",
"491 -172 OFFCURVE",
"513 -152 OFFCURVE",
"513 -95 CURVE SMOOTH",
"513 1 LINE",
"471 1 LINE",
"471 -55 LINE",
"471 -126 OFFCURVE",
"461 -143 OFFCURVE",
"396 -133 CURVE",
"396 -174 LINE"
);
}
);
width = 573;
},
{
components = (
{
name = hbar;
}
);
layerId = "0DA27741-1AFD-43F2-A947-40AFBF8D6498";
paths = (
{
closed = 1;
nodes = (
"382 -238 OFFCURVE",
"422 -244 OFFCURVE",
"471 -234 CURVE SMOOTH",
"537 -221 OFFCURVE",
"576 -167 OFFCURVE",
"576 -88 CURVE SMOOTH",
"576 2 LINE",
"438 2 LINE",
"438 -66 LINE",
"438 -147 OFFCURVE",
"377 -136 OFFCURVE",
"346 -134 CURVE",
"346 -229 LINE"
);
}
);
width = 636;
},
{
associatedMasterId = "0DA27741-1AFD-43F2-A947-40AFBF8D6498";
layerId = "A2873047-0ED6-4C67-9B4D-3870B51BD5C6";
width = 600;
},
{
associatedMasterId = "0DA27741-1AFD-43F2-A947-40AFBF8D6498";
layerId = "55314CA7-5524-4D70-B802-98D4FAE25636";
width = 564;
},
{
associatedMasterId = "0DA27741-1AFD-43F2-A947-40AFBF8D6498";
layerId = "13A3DD5D-E91B-4961-8595-F8141D3FA442";
width = 594;
}
);
leftKerningGroup = h;
rightKerningGroup = h;
rightMetricsKey = h;
unicode = 0452;
},
{
glyphname = "ustrait-cy";
lastChange = "2018-07-29 15:02:38 +0000";
layers = (
{
components = (
{
name = v;
}
);
layerId = "CAA188E2-8C62-414B-93AE-B576BEB044DB";
paths = (
{
closed = 1;
nodes = (
"218 10 LINE",
"218 -180 LINE",
"260 -180 LINE",
"260 10 LINE"
);
}
);
width = 478;
},
{
components = (
{
name = v;
}
);
layerId = "0DA27741-1AFD-43F2-A947-40AFBF8D6498";
paths = (
{
closed = 1;
nodes = (
"207 10 LINE",
"207 -180 LINE",
"342 -180 LINE",
"342 10 LINE"
);
}
);
width = 569;
},
{
associatedMasterId = "0DA27741-1AFD-43F2-A947-40AFBF8D6498";
layerId = "A2873047-0ED6-4C67-9B4D-3870B51BD5C6";
width = 600;
},
{
associatedMasterId = "0DA27741-1AFD-43F2-A947-40AFBF8D6498";
layerId = "55314CA7-5524-4D70-B802-98D4FAE25636";
width = 476;
},
{
associatedMasterId = "0DA27741-1AFD-43F2-A947-40AFBF8D6498";
layerId = "13A3DD5D-E91B-4961-8595-F8141D3FA442";
width = 580;
}
);
leftKerningGroup = v;
leftMetricsKey = v;
rightKerningGroup = v;
rightMetricsKey = v;
unicode = 04AF;
},
{
glyphname = "obarred-cy";
lastChange = "2018-06-29 15:15:08 +0000";
layers = (
{
components = (
{
name = o;
}
);
layerId = "CAA188E2-8C62-414B-93AE-B576BEB044DB";
paths = (
{
closed = 1;
nodes = (
"78 249 LINE",
"504 249 LINE",
"504 291 LINE",
"78 291 LINE"
);
}
);
width = 574;
},
{
components = (
{
name = o;
}
);
layerId = "0DA27741-1AFD-43F2-A947-40AFBF8D6498";
paths = (
{
closed = 1;
nodes = (
"101 218 LINE",
"527 218 LINE",
"527 323 LINE",
"101 323 LINE"
);
}
);
width = 627;
},
{
associatedMasterId = "0DA27741-1AFD-43F2-A947-40AFBF8D6498";
layerId = "A2873047-0ED6-4C67-9B4D-3870B51BD5C6";
width = 600;
},
{
associatedMasterId = "0DA27741-1AFD-43F2-A947-40AFBF8D6498";
layerId = "55314CA7-5524-4D70-B802-98D4FAE25636";
width = 588;
},
{
associatedMasterId = "0DA27741-1AFD-43F2-A947-40AFBF8D6498";
layerId = "13A3DD5D-E91B-4961-8595-F8141D3FA442";
width = 598;
}
);
leftKerningGroup = o;
rightKerningGroup = o;
unicode = 04E9;
},
{
glyphname = "ve-cy.loclBGR";
lastChange = "2018-07-13 14:39:57 +0000";
layers = (
{
layerId = "0DA27741-1AFD-43F2-A947-40AFBF8D6498";
paths = (
{
closed = 1;
nodes = (
"252 735 OFFCURVE",
"199 724 OFFCURVE",
"154 693 CURVE SMOOTH",
"102 657 OFFCURVE",
"70 595 OFFCURVE",
"70 540 CURVE",
"70 215 LINE",
"70 168 OFFCURVE",
"84 110 OFFCURVE",
"118 67 CURVE",
"167 8 OFFCURVE",
"244 -15 OFFCURVE",
"323 -15 CURVE SMOOTH",
"395 -15 OFFCURVE",
"459 4 OFFCURVE",
"511 49 CURVE",
"565 96 OFFCURVE",
"587 154 OFFCURVE",
"587 214 CURVE SMOOTH",
"587 258 OFFCURVE",
"578 303 OFFCURVE",
"552 337 CURVE",
"533 363 OFFCURVE",
"506 382 OFFCURVE",
"478 399 CURVE",
"495 415 OFFCURVE",
"508 434 OFFCURVE",
"517 456 CURVE",
"526 478 OFFCURVE",
"530 501 OFFCURVE",
"530 529 CURVE SMOOTH",
"530 588 OFFCURVE",
"499 652 OFFCURVE",
"446 690 CURVE",
"404 720 OFFCURVE",
"350 735 OFFCURVE",
"299 735 CURVE SMOOTH"
);
},
{
closed = 1;
nodes = (
"320 608 OFFCURVE",
"342 602 OFFCURVE",
"359 590 CURVE",
"377 576 OFFCURVE",
"393 554 OFFCURVE",
"393 526 CURVE SMOOTH",
"393 510 OFFCURVE",
"387 489 OFFCURVE",
"372 473 CURVE",
"355 455 OFFCURVE",
"333 447 OFFCURVE",
"300 440 CURVE",
"300 322 LINE",
"335 321 OFFCURVE",
"363 314 OFFCURVE",
"392 302 CURVE",
"424 287 OFFCURVE",
"451 257 OFFCURVE",
"451 216 CURVE SMOOTH",
"451 194 OFFCURVE",
"442 172 OFFCURVE",
"424 151 CURVE",
"400 126 OFFCURVE",
"362 111 OFFCURVE",
"326 111 CURVE SMOOTH",
"284 111 OFFCURVE",
"254 122 OFFCURVE",
"234 139 CURVE",
"216 155 OFFCURVE",
"207 178 OFFCURVE",
"207 215 CURVE",
"207 533 LINE",
"207 551 OFFCURVE",
"219 575 OFFCURVE",
"240 590 CURVE",
"258 602 OFFCURVE",
"277 608 OFFCURVE",
"299 608 CURVE SMOOTH"
);
}
);
width = 627;
},
{
layerId = "CAA188E2-8C62-414B-93AE-B576BEB044DB";
paths = (
{
closed = 1;
nodes = (
"220 735 OFFCURVE",
"179 727 OFFCURVE",
"144 698 CURVE",
"95 662 OFFCURVE",
"70 610 OFFCURVE",
"70 539 CURVE",
"70 194 LINE",
"70 127 OFFCURVE",
"90 64 OFFCURVE",
"144 27 CURVE",
"187 -3 OFFCURVE",
"247 -15 OFFCURVE",
"302 -15 CURVE SMOOTH",
"365 -15 OFFCURVE",
"427 8 OFFCURVE",
"465 55 CURVE",
"497 95 OFFCURVE",
"515 145 OFFCURVE",
"515 201 CURVE SMOOTH",
"515 256 OFFCURVE",
"486 304 OFFCURVE",
"442 341 CURVE",
"413 365 OFFCURVE",
"379 381 OFFCURVE",
"343 391 CURVE",
"364 402 OFFCURVE",
"383 416 OFFCURVE",
"399 432 CURVE",
"430 463 OFFCURVE",
"449 506 OFFCURVE",
"449 549 CURVE SMOOTH",
"449 607 OFFCURVE",
"422 666 OFFCURVE",
"374 700 CURVE",
"343 724 OFFCURVE",
"300 735 OFFCURVE",
"260 735 CURVE SMOOTH"
);
},
{
closed = 1;
nodes = (
"293 693 OFFCURVE",
"326 682 OFFCURVE",
"351 661 CURVE",
"384 635 OFFCURVE",
"404 592 OFFCURVE",
"404 550 CURVE SMOOTH",
"404 520 OFFCURVE",
"392 490 OFFCURVE",
"369 465 CURVE",
"345 435 OFFCURVE",
"301 411 OFFCURVE",
"260 406 CURVE",
"260 364 LINE",
"315 358 OFFCURVE",
"371 346 OFFCURVE",
"418 305 CURVE SMOOTH",
"449 278 OFFCURVE",
"470 240 OFFCURVE",
"470 196 CURVE SMOOTH",
"470 157 OFFCURVE",
"455 117 OFFCURVE",
"432 87 CURVE",
"402 48 OFFCURVE",
"359 28 OFFCURVE",
"305 28 CURVE SMOOTH",
"259 28 OFFCURVE",
"210 38 OFFCURVE",
"173 66 CURVE",
"132 97 OFFCURVE",
"116 137 OFFCURVE",
"116 194 CURVE",
"116 551 LINE",
"116 593 OFFCURVE",
"136 638 OFFCURVE",
"167 662 CURVE",
"194 683 OFFCURVE",
"227 693 OFFCURVE",
"261 693 CURVE SMOOTH"
);
}
);
width = 545;
}
);
leftKerningGroup = b;
leftMetricsKey = b;
rightKerningGroup = B;
rightMetricsKey = B;
},
{
glyphname = "zhe-cy.loclBGR";
lastChange = "2018-07-10 12:11:27 +0000";
layers = (
{
layerId = "0DA27741-1AFD-43F2-A947-40AFBF8D6498";
paths = (
{
closed = 1;
nodes = (
"664 540 LINE",
"539 322 LINE",
"477 322 LINE",
"477 720 LINE",
"357 720 LINE",
"357 322 LINE",
"295 322 LINE",
"170 540 LINE",
"19 540 LINE",
"187 271 LINE",
"10 0 LINE",
"162 0 LINE",
"294 217 LINE",
"357 217 LINE",
"357 0 LINE",
"477 0 LINE",
"477 217 LINE",
"540 217 LINE",
"672 0 LINE",
"824 0 LINE",
"647 271 LINE",
"815 540 LINE"
);
}
);
width = 834;
},
{
layerId = "CAA188E2-8C62-414B-93AE-B576BEB044DB";
paths = (
{
closed = 1;
nodes = (
"585 540 LINE",
"433 291 LINE",
"348 291 LINE",
"348 720 LINE",
"306 720 LINE",
"306 291 LINE",
"221 291 LINE",
"69 540 LINE",
"19 540 LINE",
"187 270 LINE",
"10 0 LINE",
"60 1 LINE",
"221 249 LINE",
"306 249 LINE",
"306 0 LINE",
"348 0 LINE",
"348 249 LINE",
"433 249 LINE",
"594 1 LINE",
"644 0 LINE",
"467 270 LINE",
"635 540 LINE"
);
}
);
width = 654;
}
);
leftKerningGroup = x;
rightKerningGroup = x;
},
{
glyphname = "iu-cy.loclBGR";
lastChange = "2018-07-10 14:53:28 +0000";
layers = (
{
components = (
{
name = o;
transform = "{1, 0, 0, 1, 240, 0}";
}
);
layerId = "0DA27741-1AFD-43F2-A947-40AFBF8D6498";
paths = (
{
closed = 1;
nodes = (
"70 0 LINE",
"206 0 LINE",
"206 720 LINE",
"70 720 LINE"
);
},
{
closed = 1;
nodes = (
"151 202 LINE",
"336 202 LINE",
"336 338 LINE",
"151 338 LINE"
);
}
);
width = 867;
},
{
components = (
{
name = o;
transform = "{1, 0, 0, 1, 177, 0}";
}
);
layerId = "CAA188E2-8C62-414B-93AE-B576BEB044DB";
paths = (
{
closed = 1;
nodes = (
"70 0 LINE",
"112 0 LINE",
"112 720 LINE",
"70 720 LINE"
);
},
{
closed = 1;
nodes = (
"106 249 LINE",
"241 249 LINE",
"241 291 LINE",
"106 291 LINE"
);
}
);
width = 751;
}
);
leftKerningGroup = n;
rightKerningGroup = u;
},
{
glyphname = alpha;
lastChange = "2018-05-18 06:52:34 +0000";
layers = (
{
components = (
{
name = o;
}
);
layerId = "CAA188E2-8C62-414B-93AE-B576BEB044DB";
paths = (
{
closed = 1;
nodes = (
"587 42 LINE",
"548 50 OFFCURVE",
"534 76 OFFCURVE",
"533 156 CURVE",
"533 540 LINE",
"494 540 LINE",
"494 368 LINE",
"491 368 LINE",
"491 139 LINE",
"491 66 OFFCURVE",
"503 9 OFFCURVE",
"587 0 CURVE"
);
}
);
width = 587;
},
{
components = (
{
name = o;
}
);
layerId = "0DA27741-1AFD-43F2-A947-40AFBF8D6498";
paths = (
{
closed = 1;
nodes = (
"642 129 LINE",
"587 136 OFFCURVE",
"587 182 OFFCURVE",
"587 209 CURVE",
"587 540 LINE",
"467 540 LINE",
"467 439 LINE",
"449 439 LINE",
"449 219 LINE",
"449 102 OFFCURVE",
"500 0 OFFCURVE",
"642 0 CURVE"
);
}
);
width = 642;
},
{
associatedMasterId = "0DA27741-1AFD-43F2-A947-40AFBF8D6498";
layerId = "A2873047-0ED6-4C67-9B4D-3870B51BD5C6";
width = 600;
},
{
associatedMasterId = "0DA27741-1AFD-43F2-A947-40AFBF8D6498";
layerId = "55314CA7-5524-4D70-B802-98D4FAE25636";
width = 638;
},
{
associatedMasterId = "0DA27741-1AFD-43F2-A947-40AFBF8D6498";
layerId = "13A3DD5D-E91B-4961-8595-F8141D3FA442";
width = 606;
}
);
leftKerningGroup = o;
rightKerningGroup = k;
rightMetricsKey = k;
unicode = 03B1;
},
{
glyphname = mu;
lastChange = "2018-05-18 06:52:34 +0000";
layers = (
{
components = (
{
name = h;
transform = "{1, 0, 0, -1, 0, 540}";
}
);
layerId = "CAA188E2-8C62-414B-93AE-B576BEB044DB";
paths = (
{
closed = 1;
nodes = (
"567 42 LINE",
"528 50 OFFCURVE",
"514 76 OFFCURVE",
"513 156 CURVE",
"513 540 LINE",
"474 540 LINE",
"474 368 LINE",
"471 368 LINE",
"471 139 LINE",
"471 66 OFFCURVE",
"483 9 OFFCURVE",
"567 0 CURVE"
);
}
);
width = 567;
},
{
components = (
{
name = h;
transform = "{1, 0, 0, -1, 0, 540}";
}
);
layerId = "0DA27741-1AFD-43F2-A947-40AFBF8D6498";
paths = (
{
closed = 1;
nodes = (
"631 129 LINE",
"576 136 OFFCURVE",
"576 182 OFFCURVE",
"576 209 CURVE",
"576 540 LINE",
"456 540 LINE",
"456 439 LINE",
"438 439 LINE",
"438 219 LINE",
"438 102 OFFCURVE",
"489 0 OFFCURVE",
"631 0 CURVE"
);
}
);
width = 631;
},
{
associatedMasterId = "0DA27741-1AFD-43F2-A947-40AFBF8D6498";
layerId = "A2873047-0ED6-4C67-9B4D-3870B51BD5C6";
width = 600;
},
{
associatedMasterId = "0DA27741-1AFD-43F2-A947-40AFBF8D6498";
layerId = "55314CA7-5524-4D70-B802-98D4FAE25636";
width = 659;
},
{
associatedMasterId = "0DA27741-1AFD-43F2-A947-40AFBF8D6498";
layerId = "13A3DD5D-E91B-4961-8595-F8141D3FA442";
width = 609;
}
);
leftKerningGroup = p;
leftMetricsKey = p;
rightKerningGroup = k;
rightMetricsKey = k;
unicode = 03BC;
},
{
glyphname = zero;
lastChange = "2018-07-14 13:53:56 +0000";
layers = (
{
layerId = "0DA27741-1AFD-43F2-A947-40AFBF8D6498";
paths = (
{
closed = 1;
nodes = (
"261 -14 OFFCURVE",
"182 13 OFFCURVE",
"131 73 CURVE",
"80 137 OFFCURVE",
"70 190 OFFCURVE",
"70 272 CURVE SMOOTH",
"70 449 LINE",
"70 529 OFFCURVE",
"78 582 OFFCURVE",
"131 648 CURVE",
"178 704 OFFCURVE",
"256 737 OFFCURVE",
"337 735 CURVE SMOOTH",
"413 737 OFFCURVE",
"491 709 OFFCURVE",
"543 648 CURVE",
"595 587 OFFCURVE",
"604 531 OFFCURVE",
"604 449 CURVE",
"604 272 LINE SMOOTH",
"604 194 OFFCURVE",
"595 135 OFFCURVE",
"543 73 CURVE",
"492 14 OFFCURVE",
"418 -14 OFFCURVE",
"337 -14 CURVE SMOOTH"
);
},
{
closed = 1;
nodes = (
"292 608 OFFCURVE",
"248 581 OFFCURVE",
"226 542 CURVE",
"210 515 OFFCURVE",
"209 487 OFFCURVE",
"209 449 CURVE SMOOTH",
"209 272 LINE SMOOTH",
"209 238 OFFCURVE",
"208 204 OFFCURVE",
"229 173 CURVE SMOOTH",
"253 137 OFFCURVE",
"294 113 OFFCURVE",
"337 114 CURVE SMOOTH",
"381 113 OFFCURVE",
"423 137 OFFCURVE",
"446 174 CURVE SMOOTH",
"466 203 OFFCURVE",
"465 229 OFFCURVE",
"465 272 CURVE SMOOTH",
"465 449 LINE SMOOTH",
"465 485 OFFCURVE",
"467 507 OFFCURVE",
"450 541 CURVE",
"428 581 OFFCURVE",
"383 608 OFFCURVE",
"337 607 CURVE SMOOTH"
);
}
);
width = 674;
},
{
layerId = "CAA188E2-8C62-414B-93AE-B576BEB044DB";
paths = (
{
closed = 1;
nodes = (
"226 -15 OFFCURVE",
"168 12 OFFCURVE",
"128 56 CURVE SMOOTH",
"92 95 OFFCURVE",
"70 147 OFFCURVE",
"70 204 CURVE",
"70 517 LINE",
"70 576 OFFCURVE",
"94 630 OFFCURVE",
"133 669 CURVE SMOOTH",
"174 710 OFFCURVE",
"228 735 OFFCURVE",
"289 735 CURVE",
"350 735 OFFCURVE",
"406 710 OFFCURVE",
"446 669 CURVE SMOOTH",
"484 630 OFFCURVE",
"508 576 OFFCURVE",
"508 517 CURVE",
"508 204 LINE",
"508 146 OFFCURVE",
"486 94 OFFCURVE",
"449 55 CURVE SMOOTH",
"409 13 OFFCURVE",
"352 -15 OFFCURVE",
"289 -15 CURVE"
);
},
{
closed = 1;
nodes = (
"230 693 OFFCURVE",
"176 663 OFFCURVE",
"144 618 CURVE SMOOTH",
"124 590 OFFCURVE",
"112 555 OFFCURVE",
"112 517 CURVE",
"112 204 LINE",
"112 168 OFFCURVE",
"123 134 OFFCURVE",
"142 106 CURVE SMOOTH",
"174 58 OFFCURVE",
"228 27 OFFCURVE",
"289 27 CURVE",
"350 27 OFFCURVE",
"404 58 OFFCURVE",
"436 106 CURVE SMOOTH",
"455 134 OFFCURVE",
"466 168 OFFCURVE",
"466 204 CURVE",
"466 517 LINE",
"466 554 OFFCURVE",
"454 589 OFFCURVE",
"434 617 CURVE SMOOTH",
"401 663 OFFCURVE",
"349 693 OFFCURVE",
"289 693 CURVE"
);
}
);
width = 578;
}
);
unicode = 0030;
},
{
glyphname = one;
lastChange = "2018-07-17 14:04:10 +0000";
layers = (
{
layerId = "CAA188E2-8C62-414B-93AE-B576BEB044DB";
paths = (
{
closed = 1;
nodes = (
"60 639 LINE",
"60 590 LINE",
"196 671 LINE",
"196 0 LINE",
"238 0 LINE",
"238 720 LINE",
"196 720 LINE"
);
}
);
width = 358;
},
{
layerId = "0DA27741-1AFD-43F2-A947-40AFBF8D6498";
paths = (
{
closed = 1;
nodes = (
"60 639 LINE",
"60 489 LINE",
"195 572 LINE",
"195 0 LINE",
"334 0 LINE",
"334 720 LINE",
"195 720 LINE"
);
}
);
width = 454;
},
{
associatedMasterId = "0DA27741-1AFD-43F2-A947-40AFBF8D6498";
layerId = "A2873047-0ED6-4C67-9B4D-3870B51BD5C6";
width = 600;
},
{
associatedMasterId = "0DA27741-1AFD-43F2-A947-40AFBF8D6498";
layerId = "55314CA7-5524-4D70-B802-98D4FAE25636";
width = 341;
},
{
associatedMasterId = "0DA27741-1AFD-43F2-A947-40AFBF8D6498";
layerId = "13A3DD5D-E91B-4961-8595-F8141D3FA442";
width = 559;
}
);
note = one;
unicode = 0031;
},
